<svg width="45" height="44" viewBox="0 0 45 44" fill="none" xmlns="http://www.w3.org/2000/svg">
<path d="M4.3335 18.7C4.3335 16.6465 4.3335 15.6197 4.73314 14.8354C5.08467 14.1454 5.6456 13.5845 6.33553 13.233C7.11987 12.8333 8.14664 12.8333 10.2002 12.8333H35.1335C37.187 12.8333 38.2138 12.8333 38.9981 13.233C39.6881 13.5845 40.249 14.1454 40.6005 14.8354C41.0002 15.6197 41.0002 16.6465 41.0002 18.7V32.6333C41.0002 34.6869 41.0002 35.7136 40.6005 36.498C40.249 37.1879 39.6881 37.7488 38.9981 38.1004C38.2138 38.5 37.187 38.5 35.1335 38.5H10.2002C8.14664 38.5 7.11987 38.5 6.33553 38.1004C5.6456 37.7488 5.08467 37.1879 4.73314 36.498C4.3335 35.7136 4.3335 34.6869 4.3335 32.6333V18.7Z" fill="#F7931A" fill-opacity="0.1"/>
<path d="M15.3335 38.5V12.8333C15.3335 11.1284 15.3335 10.2759 15.5209 9.5765C16.0295 7.67849 17.512 6.19598 19.41 5.68741C20.1094 5.5 20.9619 5.5 22.6668 5.5C24.3718 5.5 25.2243 5.5 25.9237 5.68741C27.8217 6.19598 29.3042 7.67849 29.8128 9.5765C30.0002 10.2759 30.0002 11.1284 30.0002 12.8333V38.5M10.2002 38.5H35.1335C37.187 38.5 38.2138 38.5 38.9981 38.1004C39.6881 37.7488 40.249 37.1879 40.6005 36.498C41.0002 35.7136 41.0002 34.6869 41.0002 32.6333V18.7C41.0002 16.6465 41.0002 15.6197 40.6005 14.8354C40.249 14.1454 39.6881 13.5845 38.9981 13.233C38.2138 12.8333 37.187 12.8333 35.1335 12.8333H10.2002C8.14664 12.8333 7.11987 12.8333 6.33553 13.233C5.6456 13.5845 5.08467 14.1454 4.73314 14.8354C4.3335 15.6197 4.3335 16.6465 4.3335 18.7V32.6333C4.3335 34.6869 4.3335 35.7136 4.73314 36.498C5.08467 37.1879 5.6456 37.7488 6.33553 38.1004C7.11987 38.5 8.14664 38.5 10.2002 38.5Z" stroke="#F7931A" stroke-width="3" stroke-linecap="round" stroke-linejoin="round"/>
</svg>
