<svg width="44" height="44" viewBox="0 0 44 44" fill="none" xmlns="http://www.w3.org/2000/svg">
<path d="M22 27.5003C25.0375 27.5003 27.5 25.0379 27.5 22.0003C27.5 18.9628 25.0375 16.5003 22 16.5003C18.9624 16.5003 16.5 18.9628 16.5 22.0003C16.5 25.0379 18.9624 27.5003 22 27.5003Z" fill="#F7931A" fill-opacity="0.1"/>
<path d="M34.3333 27.0003C34.1114 27.503 34.0453 28.0606 34.1433 28.6013C34.2413 29.142 34.4991 29.6409 34.8833 30.0337L34.9833 30.1337C35.2932 30.4432 35.5391 30.8109 35.7068 31.2155C35.8746 31.6202 35.9609 32.0539 35.9609 32.492C35.9609 32.93 35.8746 33.3638 35.7068 33.7685C35.5391 34.1731 35.2932 34.5407 34.9833 34.8503C34.6737 35.1602 34.3061 35.4061 33.9014 35.5739C33.4968 35.7416 33.063 35.8279 32.625 35.8279C32.1869 35.8279 31.7532 35.7416 31.3485 35.5739C30.9438 35.4061 30.5762 35.1602 30.2666 34.8503L30.1666 34.7503C29.7738 34.3661 29.2749 34.1083 28.7343 34.0103C28.1936 33.9123 27.636 33.9785 27.1333 34.2003C26.6403 34.4116 26.2199 34.7624 25.9238 35.2096C25.6277 35.6567 25.4688 36.1807 25.4666 36.717V37.0003C25.4666 37.8844 25.1154 38.7322 24.4903 39.3573C23.8652 39.9825 23.0173 40.3337 22.1333 40.3337C21.2492 40.3337 20.4014 39.9825 19.7763 39.3573C19.1511 38.7322 18.8 37.8844 18.8 37.0003V36.8503C18.7871 36.2987 18.6085 35.7636 18.2875 35.3148C17.9665 34.866 17.5179 34.5241 17 34.3337C16.4973 34.1118 15.9396 34.0456 15.399 34.1437C14.8583 34.2417 14.3594 34.4994 13.9666 34.8837L13.8666 34.9837C13.557 35.2936 13.1894 35.5394 12.7848 35.7072C12.3801 35.8749 11.9463 35.9613 11.5083 35.9613C11.0702 35.9613 10.6365 35.8749 10.2318 35.7072C9.82716 35.5394 9.45954 35.2936 9.14996 34.9837C8.84004 34.6741 8.59417 34.3065 8.42643 33.9018C8.25868 33.4971 8.17234 33.0634 8.17234 32.6253C8.17234 32.1873 8.25868 31.7535 8.42643 31.3489C8.59417 30.9442 8.84004 30.5766 9.14996 30.267L9.24996 30.167C9.63419 29.7742 9.89193 29.2753 9.98997 28.7346C10.088 28.194 10.0218 27.6364 9.79996 27.1337C9.58869 26.6407 9.23788 26.2203 8.79073 25.9242C8.34358 25.628 7.8196 25.4691 7.28329 25.467H6.99996C6.1159 25.467 5.26806 25.1158 4.64294 24.4907C4.01782 23.8656 3.66663 23.0177 3.66663 22.1337C3.66663 21.2496 4.01782 20.4018 4.64294 19.7766C5.26806 19.1515 6.1159 18.8003 6.99996 18.8003H7.14996C7.70162 18.7874 8.23663 18.6089 8.68546 18.2878C9.13428 17.9668 9.47615 17.5182 9.66663 17.0003C9.88848 16.4976 9.95466 15.94 9.85663 15.3993C9.7586 14.8587 9.50085 14.3598 9.11663 13.967L9.01663 13.867C8.7067 13.5574 8.46084 13.1898 8.29309 12.7851C8.12535 12.3805 8.039 11.9467 8.039 11.5087C8.039 11.0706 8.12535 10.6369 8.29309 10.2322C8.46084 9.82753 8.7067 9.4599 9.01663 9.15033C9.3262 8.8404 9.69383 8.59454 10.0985 8.42679C10.5032 8.25905 10.9369 8.1727 11.375 8.1727C11.813 8.1727 12.2468 8.25905 12.6514 8.42679C13.0561 8.59454 13.4237 8.8404 13.7333 9.15033L13.8333 9.25033C14.2261 9.63455 14.725 9.8923 15.2656 9.99033C15.8063 10.0884 16.3639 10.0222 16.8666 9.80032H17C17.4929 9.58905 17.9133 9.23825 18.2094 8.7911C18.5056 8.34395 18.6645 7.81997 18.6666 7.28366V7.00033C18.6666 6.11627 19.0178 5.26842 19.6429 4.6433C20.2681 4.01818 21.1159 3.66699 22 3.66699C22.884 3.66699 23.7319 4.01818 24.357 4.6433C24.9821 5.26842 25.3333 6.11627 25.3333 7.00033V7.15033C25.3354 7.68664 25.4943 8.21062 25.7905 8.65777C26.0866 9.10492 26.507 9.45572 27 9.66699C27.5027 9.88885 28.0603 9.95503 28.6009 9.857C29.1416 9.75897 29.6405 9.50122 30.0333 9.11699L30.1333 9.01699C30.4429 8.70707 30.8105 8.46121 31.2152 8.29346C31.6198 8.12571 32.0536 8.03937 32.4916 8.03937C32.9297 8.03937 33.3634 8.12571 33.7681 8.29346C34.1728 8.46121 34.5404 8.70707 34.85 9.01699C35.1599 9.32657 35.4057 9.6942 35.5735 10.0989C35.7412 10.5035 35.8276 10.9373 35.8276 11.3753C35.8276 11.8134 35.7412 12.2471 35.5735 12.6518C35.4057 13.0565 35.1599 13.4241 34.85 13.7337L34.75 13.8337C34.3657 14.2265 34.108 14.7254 34.01 15.266C33.9119 15.8067 33.9781 16.3643 34.2 16.867V17.0003C34.4112 17.4933 34.762 17.9137 35.2092 18.2098C35.6563 18.5059 36.1803 18.6649 36.7166 18.667H37C37.884 18.667 38.7319 19.0182 39.357 19.6433C39.9821 20.2684 40.3333 21.1163 40.3333 22.0003C40.3333 22.8844 39.9821 23.7322 39.357 24.3573C38.7319 24.9825 37.884 25.3337 37 25.3337H36.85C36.3136 25.3358 35.7897 25.4947 35.3425 25.7908C34.8954 26.087 34.5446 26.5074 34.3333 27.0003Z" fill="#F7931A" fill-opacity="0.1"/>
<path d="M22 27.5003C25.0375 27.5003 27.5 25.0379 27.5 22.0003C27.5 18.9628 25.0375 16.5003 22 16.5003C18.9624 16.5003 16.5 18.9628 16.5 22.0003C16.5 25.0379 18.9624 27.5003 22 27.5003Z" stroke="#F7931A" stroke-width="3" stroke-linecap="round" stroke-linejoin="round"/>
<path d="M34.3333 27.0003C34.1114 27.503 34.0453 28.0606 34.1433 28.6013C34.2413 29.142 34.4991 29.6409 34.8833 30.0337L34.9833 30.1337C35.2932 30.4432 35.5391 30.8109 35.7068 31.2155C35.8746 31.6202 35.9609 32.0539 35.9609 32.492C35.9609 32.93 35.8746 33.3638 35.7068 33.7685C35.5391 34.1731 35.2932 34.5407 34.9833 34.8503C34.6737 35.1602 34.3061 35.4061 33.9014 35.5739C33.4968 35.7416 33.063 35.8279 32.625 35.8279C32.1869 35.8279 31.7532 35.7416 31.3485 35.5739C30.9438 35.4061 30.5762 35.1602 30.2666 34.8503L30.1666 34.7503C29.7738 34.3661 29.2749 34.1083 28.7343 34.0103C28.1936 33.9123 27.636 33.9785 27.1333 34.2003C26.6403 34.4116 26.2199 34.7624 25.9238 35.2096C25.6277 35.6567 25.4688 36.1807 25.4666 36.717V37.0003C25.4666 37.8844 25.1154 38.7322 24.4903 39.3573C23.8652 39.9825 23.0173 40.3337 22.1333 40.3337C21.2492 40.3337 20.4014 39.9825 19.7763 39.3573C19.1511 38.7322 18.8 37.8844 18.8 37.0003V36.8503C18.7871 36.2987 18.6085 35.7636 18.2875 35.3148C17.9665 34.866 17.5179 34.5241 17 34.3337C16.4973 34.1118 15.9396 34.0456 15.399 34.1437C14.8583 34.2417 14.3594 34.4994 13.9666 34.8837L13.8666 34.9837C13.557 35.2936 13.1894 35.5394 12.7848 35.7072C12.3801 35.8749 11.9463 35.9613 11.5083 35.9613C11.0702 35.9613 10.6365 35.8749 10.2318 35.7072C9.82716 35.5394 9.45954 35.2936 9.14996 34.9837C8.84004 34.6741 8.59417 34.3065 8.42643 33.9018C8.25868 33.4971 8.17234 33.0634 8.17234 32.6253C8.17234 32.1873 8.25868 31.7535 8.42643 31.3489C8.59417 30.9442 8.84004 30.5766 9.14996 30.267L9.24996 30.167C9.63419 29.7742 9.89193 29.2753 9.98997 28.7346C10.088 28.194 10.0218 27.6364 9.79996 27.1337C9.58869 26.6407 9.23788 26.2203 8.79073 25.9242C8.34358 25.628 7.8196 25.4691 7.28329 25.467H6.99996C6.1159 25.467 5.26806 25.1158 4.64294 24.4907C4.01782 23.8656 3.66663 23.0177 3.66663 22.1337C3.66663 21.2496 4.01782 20.4018 4.64294 19.7766C5.26806 19.1515 6.1159 18.8003 6.99996 18.8003H7.14996C7.70162 18.7874 8.23663 18.6089 8.68546 18.2878C9.13428 17.9668 9.47615 17.5182 9.66663 17.0003C9.88848 16.4976 9.95466 15.94 9.85663 15.3993C9.7586 14.8587 9.50085 14.3598 9.11663 13.967L9.01663 13.867C8.7067 13.5574 8.46084 13.1898 8.29309 12.7851C8.12535 12.3805 8.039 11.9467 8.039 11.5087C8.039 11.0706 8.12535 10.6369 8.29309 10.2322C8.46084 9.82753 8.7067 9.4599 9.01663 9.15033C9.3262 8.8404 9.69383 8.59454 10.0985 8.42679C10.5032 8.25905 10.9369 8.1727 11.375 8.1727C11.813 8.1727 12.2468 8.25905 12.6514 8.42679C13.0561 8.59454 13.4237 8.8404 13.7333 9.15033L13.8333 9.25033C14.2261 9.63455 14.725 9.8923 15.2656 9.99033C15.8063 10.0884 16.3639 10.0222 16.8666 9.80032H17C17.4929 9.58905 17.9133 9.23825 18.2094 8.7911C18.5056 8.34395 18.6645 7.81997 18.6666 7.28366V7.00033C18.6666 6.11627 19.0178 5.26842 19.6429 4.6433C20.2681 4.01818 21.1159 3.66699 22 3.66699C22.884 3.66699 23.7319 4.01818 24.357 4.6433C24.9821 5.26842 25.3333 6.11627 25.3333 7.00033V7.15033C25.3354 7.68664 25.4943 8.21062 25.7905 8.65777C26.0866 9.10492 26.507 9.45572 27 9.66699C27.5027 9.88885 28.0603 9.95503 28.6009 9.857C29.1416 9.75897 29.6405 9.50122 30.0333 9.11699L30.1333 9.01699C30.4429 8.70707 30.8105 8.46121 31.2152 8.29346C31.6198 8.12571 32.0536 8.03937 32.4916 8.03937C32.9297 8.03937 33.3634 8.12571 33.7681 8.29346C34.1728 8.46121 34.5404 8.70707 34.85 9.01699C35.1599 9.32657 35.4057 9.6942 35.5735 10.0989C35.7412 10.5035 35.8276 10.9373 35.8276 11.3753C35.8276 11.8134 35.7412 12.2471 35.5735 12.6518C35.4057 13.0565 35.1599 13.4241 34.85 13.7337L34.75 13.8337C34.3657 14.2265 34.108 14.7254 34.01 15.266C33.9119 15.8067 33.9781 16.3643 34.2 16.867V17.0003C34.4112 17.4933 34.762 17.9137 35.2092 18.2098C35.6563 18.5059 36.1803 18.6649 36.7166 18.667H37C37.884 18.667 38.7319 19.0182 39.357 19.6433C39.9821 20.2684 40.3333 21.1163 40.3333 22.0003C40.3333 22.8844 39.9821 23.7322 39.357 24.3573C38.7319 24.9825 37.884 25.3337 37 25.3337H36.85C36.3136 25.3358 35.7897 25.4947 35.3425 25.7908C34.8954 26.087 34.5446 26.5074 34.3333 27.0003Z" stroke="#F7931A" stroke-width="3" stroke-linecap="round" stroke-linejoin="round"/>
</svg>
