<svg width="45" height="44" viewBox="0 0 45 44" fill="none" xmlns="http://www.w3.org/2000/svg">
<path d="M21.0535 39.6289C21.4594 39.8657 21.6623 39.9841 21.9488 40.0455C22.171 40.0932 22.4953 40.0932 22.7176 40.0455C23.004 39.9841 23.2069 39.8657 23.6128 39.6289C27.1842 37.5454 36.9998 31.0004 36.9998 22.0016V13.2339C36.9998 11.7681 36.9998 11.0352 36.7601 10.4053C36.5483 9.84873 36.2042 9.35214 35.7575 8.95844C35.2518 8.51277 34.5655 8.25544 33.1931 7.74077L23.3631 4.05454C22.982 3.91161 22.7914 3.84014 22.5954 3.81181C22.4215 3.78669 22.2449 3.78669 22.071 3.81181C21.8749 3.84014 21.6844 3.91161 21.3032 4.05454L11.4732 7.74077C10.1008 8.25544 9.41458 8.51277 8.90888 8.95844C8.46214 9.35214 8.11801 9.84873 7.90623 10.4053C7.6665 11.0352 7.6665 11.7681 7.6665 13.2339V22.0016C7.6665 31.0005 17.4821 37.5454 21.0535 39.6289Z" fill="#F7931A" fill-opacity="0.1"/>
<path d="M16.8332 21.085L20.4998 24.7516L28.7498 16.5016M36.9998 22.0016C36.9998 31.0004 27.1842 37.5454 23.6128 39.6289C23.2069 39.8657 23.004 39.9841 22.7176 40.0455C22.4953 40.0932 22.171 40.0932 21.9488 40.0455C21.6623 39.9841 21.4594 39.8657 21.0535 39.6289C17.4821 37.5454 7.6665 31.0004 7.6665 22.0016V13.2339C7.6665 11.7681 7.6665 11.0352 7.90623 10.4053C8.11801 9.84873 8.46214 9.35214 8.90888 8.95844C9.41458 8.51277 10.1008 8.25544 11.4732 7.74077L21.3032 4.05454C21.6844 3.91161 21.8749 3.84014 22.071 3.81181C22.2449 3.78669 22.4215 3.78669 22.5954 3.81181C22.7914 3.84014 22.982 3.91161 23.3631 4.05454L33.1931 7.74077C34.5655 8.25544 35.2518 8.51277 35.7575 8.95844C36.2042 9.35214 36.5483 9.84873 36.7601 10.4053C36.9998 11.0352 36.9998 11.7681 36.9998 13.2339V22.0016Z" stroke="#F7931A" stroke-width="3" stroke-linecap="round" stroke-linejoin="round"/>
</svg>
