<svg width="24" height="27" viewBox="0 0 24 27" fill="none" xmlns="http://www.w3.org/2000/svg">
<path d="M14.0497 9C15.0264 9.19057 15.924 9.66826 16.6277 10.3719C17.3314 11.0756 17.8091 11.9733 17.9997 12.95M14.0497 5C16.0789 5.22544 17.9713 6.13417 19.4159 7.57701C20.8606 9.01984 21.7717 10.911 21.9997 12.94M10.2266 16.8631C9.02506 15.6615 8.07627 14.3028 7.38028 12.8532C7.32041 12.7285 7.29048 12.6662 7.26748 12.5873C7.18576 12.3069 7.24446 11.9627 7.41447 11.7253C7.46231 11.6584 7.51947 11.6013 7.63378 11.487C7.98338 11.1374 8.15819 10.9626 8.27247 10.7868C8.70347 10.1239 8.70347 9.26932 8.27247 8.60643C8.15819 8.43065 7.98338 8.25585 7.63378 7.90624L7.43891 7.71137C6.90747 7.17993 6.64174 6.91421 6.35636 6.76987C5.7888 6.4828 5.11854 6.4828 4.55098 6.76987C4.2656 6.91421 3.99987 7.17993 3.46843 7.71137L3.3108 7.86901C2.78117 8.39863 2.51636 8.66344 2.31411 9.02348C2.08969 9.42298 1.92833 10.0435 1.9297 10.5017C1.93092 10.9146 2.01103 11.1969 2.17124 11.7613C3.03221 14.7947 4.65668 17.6571 7.04466 20.045C9.43264 22.433 12.295 24.0575 15.3284 24.9185C15.8928 25.0787 16.1751 25.1588 16.588 25.16C17.0462 25.1614 17.6667 25 18.0662 24.7756C18.4263 24.5733 18.6911 24.3085 19.2207 23.7789L19.3783 23.6213C19.9098 23.0898 20.1755 22.8241 20.3198 22.5387C20.6069 21.9712 20.6069 21.3009 20.3198 20.7333C20.1755 20.448 19.9098 20.1822 19.3783 19.6508L19.1835 19.4559C18.8339 19.1063 18.6591 18.9315 18.4833 18.8172C17.8204 18.3862 16.9658 18.3862 16.3029 18.8172C16.1271 18.9315 15.9523 19.1063 15.6027 19.4559C15.4884 19.5702 15.4313 19.6274 15.3644 19.6752C15.127 19.8453 14.7828 19.904 14.5024 19.8222C14.4235 19.7992 14.3612 19.7693 14.2365 19.7094C12.7869 19.0134 11.4282 18.0646 10.2266 16.8631Z" stroke="#D0D5DD" stroke-width="2" stroke-linecap="round" stroke-linejoin="round"/>
</svg>
