<svg width="180" height="56" viewBox="0 0 180 56" fill="none" xmlns="http://www.w3.org/2000/svg">
<path d="M59.1914 39.3421H63.9464V40.4219H57.8652V27.1797H59.1914V39.3421Z" fill="#667085"/>
<path d="M71.7892 40.5537C70.5578 40.5537 69.459 40.2696 68.4549 39.6823C67.4509 39.1139 66.6742 38.3183 66.1058 37.2763C65.5185 36.2533 65.2344 35.0977 65.2344 33.7905C65.2344 32.4834 65.5185 31.3277 66.1058 30.2858C66.6742 29.2628 67.4509 28.4671 68.4549 27.8798C69.459 27.3115 70.5578 27.0273 71.7892 27.0273C73.0206 27.0273 74.1383 27.3115 75.1424 27.8798C76.1464 28.4671 76.9231 29.2628 77.4915 30.2858C78.0598 31.3277 78.344 32.4834 78.344 33.7905C78.344 35.0977 78.0598 36.2533 77.4915 37.2763C76.9231 38.3183 76.1464 39.1139 75.1424 39.6823C74.1383 40.2696 73.0206 40.5537 71.7892 40.5537ZM71.7892 39.3981C72.7743 39.3981 73.6647 39.1708 74.4414 38.7161C75.2181 38.2614 75.8433 37.5984 76.298 36.7459C76.7526 35.8934 76.98 34.9083 76.98 33.7905C76.98 32.6728 76.7526 31.6877 76.298 30.8352C75.8433 29.9827 75.2181 29.3386 74.4414 28.8839C73.6647 28.4292 72.7743 28.2019 71.7892 28.2019C70.8041 28.2019 69.9137 28.4292 69.1369 28.8839C68.3602 29.3386 67.7351 29.9827 67.2804 30.8352C66.8257 31.6877 66.5984 32.6728 66.5984 33.7905C66.5984 34.9083 66.8257 35.8934 67.2804 36.7459C67.7351 37.5984 68.3602 38.2614 69.1369 38.7161C69.9137 39.1708 70.8041 39.3981 71.7892 39.3981Z" fill="#667085"/>
<path d="M80.1628 33.7905C80.1628 32.4834 80.447 31.3277 81.0153 30.2858C81.5837 29.2628 82.3604 28.4671 83.3455 27.8798C84.3306 27.3115 85.4294 27.0273 86.6419 27.0273C88.1195 27.0273 89.3888 27.3683 90.4497 28.0693C91.4917 28.7892 92.2684 29.7743 92.742 31.0436H91.1885C90.8097 30.1532 90.2413 29.4522 89.4646 28.9407C88.6879 28.4292 87.7406 28.183 86.6419 28.183C85.6757 28.183 84.8042 28.4103 84.0275 28.865C83.2508 29.3196 82.6256 29.9637 82.1899 30.8162C81.7542 31.6687 81.5268 32.6728 81.5268 33.7905C81.5268 34.9083 81.7542 35.8934 82.1899 36.7459C82.6256 37.5984 83.2508 38.2425 84.0275 38.6972C84.8042 39.1518 85.6757 39.3792 86.6419 39.3792C87.7406 39.3792 88.6879 39.1329 89.4646 38.6214C90.2413 38.1288 90.8097 37.4468 91.1885 36.5564H92.742C92.2684 37.8257 91.4917 38.7919 90.4308 39.4928C89.3699 40.1938 88.1006 40.5348 86.6419 40.5348C85.4294 40.5348 84.3306 40.2506 83.3455 39.6633C82.3604 39.095 81.5837 38.2993 81.0153 37.2763C80.447 36.2533 80.1628 35.0977 80.1628 33.7905Z" fill="#667085"/>
<path d="M102.441 40.4219L96.7011 34.3028V40.4219H95.375V27.1797H96.7011V33.3745L102.441 27.1797H104.127L97.9325 33.7913L104.184 40.4219H102.441Z" fill="#667085"/>
<path d="M113.884 27.1797V28.2785H110.209V40.4219H108.883V28.2785H105.188V27.1797H113.884Z" fill="#667085"/>
<path d="M123.035 40.4219L119.757 34.8901H117.313V40.4219H115.987V27.1797H119.966C121.443 27.1797 122.561 27.5396 123.338 28.2406C124.096 28.9415 124.474 29.8698 124.474 31.0254C124.474 31.9916 124.209 32.8062 123.66 33.4693C123.11 34.1513 122.296 34.587 121.216 34.7954L124.626 40.4219H123.035ZM117.313 33.8103H119.985C121.027 33.8103 121.803 33.564 122.334 33.0525C122.845 32.541 123.11 31.8779 123.11 31.0254C123.11 30.154 122.864 29.472 122.353 28.9984C121.841 28.5247 121.045 28.2974 119.966 28.2974H117.313V33.8103Z" fill="#667085"/>
<path d="M134.78 37.2746H128.756L127.6 40.4194H126.198L131.029 27.3477H132.526L137.338 40.4194H135.936L134.78 37.2746ZM134.382 36.1758L131.768 29.0148L129.154 36.1758H134.382Z" fill="#667085"/>
<path d="M139.459 27.1797H140.785V40.4219H139.459V27.1797Z" fill="#667085"/>
<path d="M153.782 40.4219H152.455L145.124 29.2825V40.4219H143.798V27.1797H145.124L152.455 38.3001V27.1797H153.782V40.4219Z" fill="#667085"/>
<path d="M158.119 28.2589V33.2035H163.139V34.3022H158.119V39.3225H163.708V40.4213H156.793V27.1602H163.708V28.2589H158.119Z" fill="#667085"/>
<path d="M173.37 40.4219L170.092 34.8901H167.649V40.4219H166.323V27.1797H170.301C171.779 27.1797 172.896 27.5396 173.673 28.2406C174.431 28.9415 174.81 29.8698 174.81 31.0254C174.81 31.9916 174.544 32.8062 173.995 33.4693C173.446 34.1513 172.631 34.587 171.551 34.7954L174.961 40.4219H173.37ZM167.649 33.8103H170.32C171.362 33.8103 172.138 33.564 172.669 33.0525C173.18 32.541 173.446 31.8779 173.446 31.0254C173.446 30.154 173.199 29.472 172.688 28.9984C172.176 28.5247 171.381 28.2974 170.301 28.2974H167.649V33.8103Z" fill="#667085"/>
<path d="M54.4314 35.2684C51.9741 43.8272 45.2141 48.4628 36.9833 48.8047C35.4881 48.8666 33.8984 48.5562 32.3822 48.1785C27.5256 46.9674 23.9697 44.2737 21.3915 39.9824C18.8246 35.71 18.1345 31.1011 19.3237 26.2642C24.8465 24.8537 30.1086 24.6644 32.4304 24.6498L30.0342 34.258C29.9204 34.5407 29.6122 34.9708 28.9818 34.8034C28.3515 34.6363 27.3128 34.3867 27.3128 34.3867L26.1729 37.0156L29.161 37.7604C29.7171 37.8998 30.2619 38.0456 30.7981 38.183L29.848 41.9986L32.1416 42.571L33.0827 38.796C33.7094 38.9659 34.3176 39.123 34.9127 39.2708L33.9747 43.0281L36.2713 43.6004L37.2216 39.792C41.1374 40.5329 44.0817 40.234 45.3212 36.6926C46.3198 33.8408 45.2716 32.1958 43.2113 31.1232C44.7116 30.7775 45.8419 29.7904 46.1434 27.7518C46.5601 24.9669 44.4396 23.4695 41.54 22.471L42.4808 18.6985L40.1845 18.1262L39.2687 21.7994C38.6649 21.6488 38.0449 21.5069 37.4288 21.3661L38.3511 17.6691L36.8108 17.2849C37.9243 15.117 38.9905 13.3689 39.7473 12.2046C40.7226 12.4578 40.754 12.4648 41.4517 12.6824C46.2311 14.1737 50.0014 16.991 52.5801 21.2825C55.1585 25.5741 55.8127 30.4564 54.4314 35.2684ZM40.8965 35.1088C40.187 37.9606 35.3857 36.4192 33.8291 36.0325L35.0902 30.9774C36.6465 31.3658 41.6382 32.1353 40.8965 35.1088ZM35.667 28.6634L36.8102 24.0786C38.1063 24.4016 42.2812 25.0048 41.6068 27.7103C40.9593 30.3044 36.9631 28.9864 35.667 28.6634ZM14.7877 23.8357L31.3073 21.7651L38.7401 7.44396L40.373 9.62111C40.2089 9.84377 39.8166 10.6242 39.1899 11.5854C37.7376 13.8021 35.0834 18.0535 33.1379 23.6501C31.8586 23.6324 24.7386 23.6925 18.2138 25.3884C17.4404 25.5884 17.015 25.6268 16.293 25.8662L14.7877 23.8357ZM17.5024 5.40672L40.4781 1.51005L30.431 20.5372L11.4712 22.992C12.0996 21.66 13.827 21.2573 16.4926 19.844C20.6919 17.6186 22.4349 17.6685 24.3168 12.7113C24.6289 12.6244 24.846 12.3585 24.846 12.0069C24.846 11.5871 24.4629 11.0989 24.0588 11.0989C23.6548 11.0989 23.1147 11.5602 23.1147 11.9797C23.1147 12.2803 23.3614 12.5647 23.6046 12.688C21.5261 17.1781 20.2084 16.97 16.1194 19.1376C13.1102 20.7326 11.0671 21.5001 10.5579 23.0896L7.20043 23.5413L17.5024 5.40672ZM53.6605 20.7282C51.0058 16.3096 46.55 13.1283 41.586 11.7408C41.0011 11.5773 40.9983 11.5756 40.2151 11.3294C40.982 10.1604 41.3022 9.8275 41.3062 9.82245L39.2 6.71936L42.6861 0L16.7172 4.47153L5 25.0267L10.4359 24.2951L10.5295 26.433C10.1686 26.5378 9.90646 26.8292 9.90646 27.1761C9.90646 27.498 10.1305 27.7734 10.4505 27.8956L9.99703 33.5373H11.7286L11.1479 27.9082C11.4875 27.7938 11.7286 27.5103 11.7286 27.1761C11.7286 26.8098 11.5618 26.4938 11.1692 26.406L11.4336 24.2642L13.8609 23.928L15.9265 26.8833C16.6477 26.6396 17.4267 26.4767 18.1603 26.2852C16.966 31.2385 17.7506 36.298 20.3784 40.6717C23.0325 45.0897 27.248 48.2093 32.2481 49.4561C33.8098 49.8456 35.3745 50.0318 36.916 50.0318C45.566 50.0312 53.5245 44.1646 55.7092 35.4024C56.956 30.4014 56.3155 25.1464 53.6605 20.7282Z" fill="#667085"/>
</svg>
