<svg width="180" height="48" viewBox="0 0 180 48" fill="none" xmlns="http://www.w3.org/2000/svg">
<path d="M161.844 11.2814C154.81 11.2814 149.088 17.0028 149.088 24.0373C149.088 31.0717 154.81 36.7931 161.844 36.7931C168.879 36.7931 174.6 31.0717 174.6 24.0373C174.6 17.0028 168.879 11.2814 161.844 11.2814ZM161.844 35.058C155.748 35.058 150.824 30.1338 150.824 24.0373C150.824 17.9407 155.748 13.0166 161.844 13.0166C167.941 13.0166 172.865 17.9407 172.865 24.0373C172.865 30.1338 167.941 35.058 161.844 35.058Z" fill="#667085"/>
<path d="M4.6001 36.4181V11.6567H15.4332C18.4346 11.6567 20.6387 12.2663 22.0925 13.4387C23.4994 14.6112 24.2498 16.2994 24.2498 18.4098C24.2498 19.7229 23.8277 20.8953 23.0305 21.927C22.2332 22.9588 21.0608 23.6153 19.5132 23.8967V23.9436C21.2484 24.1781 22.5615 24.8346 23.4994 25.9132C24.4374 26.945 24.9063 28.2112 24.9063 29.665C24.9063 31.7753 24.156 33.4636 22.6084 34.636C21.0608 35.8553 18.8098 36.4181 15.8553 36.4181H4.6001ZM9.61803 22.0208H14.7767C17.4967 22.0208 18.8567 20.9422 18.8567 18.8318C18.8567 16.7215 17.4967 15.6429 14.7767 15.6429H9.61803V22.0208ZM9.61803 32.5257H15.3394C16.7463 32.5257 17.778 32.2443 18.4346 31.6815C19.0912 31.1188 19.4663 30.3215 19.4663 29.2898C19.4663 28.2581 19.138 27.4608 18.4346 26.8981C17.778 26.3353 16.6994 26.0539 15.3394 26.0539H9.61803V32.5257Z" fill="#667085"/>
<path d="M47.6981 11.6567V15.8305H39.3974V36.4181H34.2387V15.8305H25.938V11.6567H47.6981Z" fill="#667085"/>
<path d="M82.4014 11.6567H99.3311V13.3918H84.2773V22.9587H96.189V24.7408H84.2773V34.7298H99.9407V36.465H82.4014V11.6567Z" fill="#667085"/>
<path d="M128.688 11.6567V36.4181H126.813V11.6567H128.688ZM144.868 22.9587V24.7408H127.751V22.9587H144.868ZM145.853 11.6567V36.4181H143.977V11.6567H145.853Z" fill="#667085"/>
<path d="M77.0551 31.1186L69.8331 23.8966L77.0551 16.6276V31.1186Z" fill="#667085"/>
<path d="M66.8317 30.3214C65.1903 32.0097 62.9393 33.0414 60.4069 33.0414C55.4358 33.0414 51.4027 29.0083 51.4027 24.0373C51.4027 19.0662 55.4358 15.0331 60.4069 15.0331C62.8455 15.0331 65.0496 16.0179 66.691 17.6124L69.5517 14.7517C67.2069 12.4538 63.971 11 60.4069 11C53.2317 11 47.3696 16.8152 47.3696 24.0373C47.3696 31.2593 53.1848 37.0745 60.4069 37.0745C64.0179 37.0745 67.3007 35.5738 69.6924 33.1821L66.8317 30.3214Z" fill="#667085"/>
<path d="M120.95 31.7283C118.934 33.7449 116.167 35.0111 113.072 35.0111C106.975 35.0111 102.051 30.0869 102.051 23.9904C102.051 17.8938 106.975 12.9697 113.072 12.9697C116.073 12.9697 118.793 14.189 120.81 16.1117L122.029 14.8924C119.731 12.6414 116.589 11.2345 113.072 11.2345C106.037 11.2345 100.316 16.9559 100.316 23.9904C100.316 31.0249 106.037 36.7462 113.072 36.7462C116.636 36.7462 119.825 35.2924 122.17 32.9476L120.95 31.7283Z" fill="#667085"/>
</svg>
