<svg width="180" height="48" viewBox="0 0 180 48" fill="none" xmlns="http://www.w3.org/2000/svg">
<g clip-path="url(#clip0_821_6969)">
<mask id="mask0_821_6969" style="mask-type:luminance" maskUnits="userSpaceOnUse" x="4" y="13" width="171" height="23">
<path d="M4.7998 13H174.428V35.0289H4.7998V13Z" fill="white"/>
</mask>
<g mask="url(#mask0_821_6969)">
<path fill-rule="evenodd" clip-rule="evenodd" d="M17.3976 34.5289H23.242V18.8911H17.3976V34.5289ZM17.3976 17.2033H23.242V13.0144H17.3976V17.2033ZM7.19092 34.5289H13.0354V23.2378H15.9865V18.89H12.9165C12.8276 17.4456 13.2354 17.2344 14.652 17.2344H16.1331V13.0133C15.2476 12.9833 14.392 13.0133 13.5065 13.0133C11.1454 13.0133 9.66981 13.1944 8.39869 14.4911C7.27869 15.6356 7.13092 17.3533 7.19092 18.89H4.7998V23.2378H7.19092V34.5289ZM24.7654 34.5289H30.6098V26.2733C30.6098 23.7711 31.9376 23.26 32.9409 23.26C34.6531 23.26 34.8598 24.5256 34.8598 26.3333V34.5289H40.7043V23.8022C40.7043 20.2167 38.1954 18.4989 35.4509 18.4989C33.1176 18.4989 31.5531 19.3122 30.462 20.8789H30.4031V18.89H24.7654V34.5289ZM51.7431 28.9544C51.6543 30.5811 50.6209 31.3944 49.2943 31.3944C48.2309 31.3944 47.4631 30.6722 47.4631 29.9489C47.4631 28.8933 48.1431 28.5633 49.4409 28.2611C50.2387 28.0811 51.0354 27.87 51.7431 27.5078V28.9544ZM57.352 24.6156C57.352 21.6022 57.4109 18.4989 50.0909 18.4989C46.4598 18.4989 42.3865 19.2211 42.2098 23.6211H47.6409C47.6698 22.9578 48.0243 22.0244 49.8254 22.0244C50.7698 22.0244 51.7431 22.4156 51.7431 23.47C51.7431 24.4656 50.9465 24.7056 50.1498 24.8567C47.1676 25.4289 41.5009 25.2478 41.5009 30.19C41.5009 33.4744 43.9509 34.92 46.9031 34.92C48.792 34.92 50.592 34.4989 51.832 33.0522H51.8909C51.862 33.4744 51.9498 34.1078 52.0976 34.53H57.352V24.6156ZM58.8454 34.5289H64.6898V26.2733C64.6898 23.7711 66.0176 23.26 67.0209 23.26C68.7331 23.26 68.9398 24.5256 68.9398 26.3333V34.5289H74.7843V23.8022C74.7843 20.2167 72.2754 18.4989 69.5298 18.4989C67.1976 18.4989 65.6331 19.3122 64.5409 20.8789H64.482V18.89H58.8454V34.5289ZM75.9076 34.5289H91.1965V30.19H83.582L90.5776 23.47V18.89H76.5554V23.23H83.0787L75.9065 29.9189V34.53L75.9076 34.5289ZM96.8943 24.9467C97.1609 23.26 98.1643 22.3267 99.9054 22.3267C101.41 22.3267 102.473 23.5011 102.473 24.9467H96.8943ZM108.081 28.0511C108.081 21.9644 105.454 18.4989 99.3743 18.4989C94.5331 18.4989 91.2865 22.2056 91.2865 26.7544C91.2865 31.9678 94.9754 34.9211 99.8754 34.9211C103.358 34.9211 106.575 33.3533 107.758 29.9789H102.296C101.824 30.7322 100.79 31.0933 99.8465 31.0933C98.0165 31.0933 97.0131 29.8289 96.8654 28.0511H108.081ZM109.055 34.5289H114.9V26.2733C114.9 23.7711 116.229 23.26 117.231 23.26C118.943 23.26 119.15 24.5256 119.15 26.3333V34.5289H124.743V23.8022C124.743 20.2167 122.486 18.4989 119.74 18.4989C117.409 18.4989 115.844 19.3122 114.752 20.8789H114.693V18.89H109.055V34.5289ZM138.179 18.7111H140.076V21.4456H140.135C140.829 19.5411 142.906 18.2489 145.104 18.2489C149.469 18.2489 150.793 20.5856 150.793 24.3656V34.5689H148.898V24.6733C148.898 21.9378 148.024 19.8778 144.953 19.8778C141.942 19.8778 140.135 22.2144 140.075 25.3189V34.5689H138.179V18.7111ZM164.673 25.5333C164.583 22.6133 162.806 19.8778 159.736 19.8778C156.634 19.8778 154.919 22.6444 154.618 25.5333H164.673ZM154.618 27.1622C154.648 29.99 156.092 33.4011 159.736 33.4011C162.505 33.4011 164.012 31.7411 164.614 29.3433H166.51C165.698 32.94 163.65 35.03 159.736 35.03C154.799 35.03 152.721 31.1578 152.721 26.64C152.721 22.46 154.799 18.2489 159.736 18.2489C164.733 18.2489 166.721 22.7067 166.57 27.1622H154.618ZM171.266 18.7111H174.429V20.3389H171.268V31.0344C171.268 32.2944 171.446 33.0322 172.801 33.1233C173.344 33.1233 173.886 33.0933 174.429 33.0322V34.6911C173.855 34.6911 173.313 34.7533 172.742 34.7533C170.213 34.7533 169.34 33.8922 169.37 31.1878V20.3389H166.661V18.7111H169.37V13.9456H171.268V18.71L171.266 18.7111Z" fill="#667085"/>
</g>
<path fill-rule="evenodd" clip-rule="evenodd" d="M131.364 34.6926C134.135 34.6926 136.381 32.3992 136.381 29.5714C136.381 26.7426 134.135 24.4492 131.364 24.4492C128.593 24.4492 126.348 26.7426 126.348 29.5714C126.348 32.3992 128.593 34.6926 131.364 34.6926Z" fill="#667085"/>
<path fill-rule="evenodd" clip-rule="evenodd" d="M131.364 28.7814C133.509 28.7814 135.379 29.9626 136.373 29.7426C136.374 29.6848 136.381 29.6292 136.381 29.5714C136.381 26.7426 134.135 24.4492 131.364 24.4492C128.593 24.4492 126.348 26.7426 126.348 29.5714C126.348 29.6292 126.353 29.6848 126.355 29.7426C127.349 29.9637 129.219 28.7814 131.364 28.7814Z" fill="#667085"/>
</g>
<defs>
<clipPath id="clip0_821_6969">
<rect width="170" height="22.2222" fill="white" transform="translate(4.7998 13)"/>
</clipPath>
</defs>
</svg>
