<svg width="180" height="48" viewBox="0 0 180 48" fill="none" xmlns="http://www.w3.org/2000/svg">
<g clip-path="url(#clip0_821_6997)">
<path d="M29.8362 33.6171L22.7533 36.6612V36.3568C21.3876 36.7025 19.8747 36.9016 18.4418 36.9657C11.7807 36.9016 6.49359 33.4553 6.43206 29.3544V27.832C8.61986 30.977 13.0735 33.0843 18.4418 33.0081C20.2579 33.0843 22.1158 32.8001 23.6769 32.3992L24.2928 30.8768C22.4412 31.4229 20.4203 31.8029 18.4418 31.7902C11.7807 31.8029 6.49359 28.3566 6.43206 24.1796V22.9616C8.61986 25.8688 13.064 27.9766 18.4418 27.8326C20.8611 27.9766 23.2272 27.4736 25.2164 26.6147L25.5247 25.0923C23.5811 26.106 21.0622 26.6947 18.4418 26.6147C11.7807 26.6947 6.49359 23.2484 6.43206 19.0041V17.7862C8.61986 20.7612 13.0735 22.8684 18.4418 22.9616C21.4929 22.8684 24.3855 22.071 26.7566 20.8303L27.0649 19.0034C24.9126 20.5804 21.7708 21.5966 18.4418 21.7437C11.7807 21.5966 6.49423 18.1496 6.43206 13.8286C6.49359 9.71877 11.7807 6.27246 18.4418 6.21791C22.4127 6.27246 26.1007 7.64895 28.2967 9.87101L28.5105 10.2231L30.0633 10.2294L29.8362 9.87101C27.6522 6.9366 23.2843 5 18.4418 5C11.0715 5 5.2002 9.01593 5.2002 13.8286V29.6589C5.459 34.3567 11.1965 38.183 18.4418 38.183C23.2272 38.183 27.5279 36.3225 29.8362 33.6171Z" fill="#667085"/>
<path d="M26.955 44.3292L29.4416 33.8824L22.2934 36.9551L26.6448 18.8273H18.2527L20.4284 9.91685H47.1565L44.9807 18.8273H36.279L34.4141 23.7433L44.0483 19.7489L26.955 44.3292ZM31.3065 31.7314L30.0632 37.8768L40.3191 22.5146L31.9275 26.202L35.6574 17.5986H44.0483L45.6024 11.1462H21.3609L19.8068 17.5986H28.1983L24.1576 34.8047L31.3065 31.7327V31.7314ZM65.5698 15.8015C65.4962 16.8202 65.12 17.622 64.4413 18.2082C63.7626 18.7936 62.8682 19.0861 61.7581 19.0861C60.5446 19.0861 59.5887 18.6776 58.8935 17.8599C58.1976 17.0429 57.8494 15.9208 57.8494 14.4942V13.915C57.8494 13.0048 58.0099 12.2023 58.3308 11.5084C58.6518 10.8151 59.1104 10.2822 59.706 9.91177C60.3023 9.54069 60.995 9.35547 61.7847 9.35547C62.8771 9.35547 63.7575 9.64853 64.4254 10.234C65.0928 10.8189 65.4784 11.641 65.5831 12.699H63.6319C63.5843 12.0875 63.4137 11.6441 63.1213 11.3688C62.8282 11.0935 62.3829 10.9559 61.7847 10.9559C61.1339 10.9559 60.6474 11.1887 60.3245 11.6549C60.001 12.1211 59.8354 12.8443 59.8266 13.8243V14.5398C59.8266 15.563 59.982 16.3109 60.2915 16.7835C60.6023 17.256 61.0908 17.4926 61.7587 17.4926C62.3613 17.4926 62.8111 17.355 63.1079 17.0797C63.4054 16.8044 63.5755 16.3781 63.6186 15.8015H65.5698ZM75.6454 14.4358C75.6454 15.3683 75.4805 16.1853 75.1507 16.8875C74.8215 17.5903 74.3502 18.132 73.7361 18.5139C73.1227 18.8951 72.4193 19.0861 71.6257 19.0861C70.841 19.0861 70.1407 18.8977 69.5248 18.5202C68.9095 18.1428 68.4319 17.6043 68.0938 16.904C67.7557 16.2037 67.5844 15.3981 67.58 14.4872V14.0191C67.58 13.0866 67.7481 12.2664 68.0843 11.5579C68.4204 10.8487 68.8949 10.3044 69.509 9.92446C70.1224 9.54513 70.8239 9.35547 71.613 9.35547C72.4021 9.35547 73.1037 9.54577 73.7171 9.92446C74.3305 10.3044 74.8056 10.8487 75.1412 11.5572C75.4773 12.2664 75.6454 13.0847 75.6454 14.0127V14.4358ZM73.6683 14.0064C73.6683 13.013 73.4906 12.2588 73.1354 11.7424C72.7795 11.2267 72.2721 10.9686 71.613 10.9686C70.9578 10.9686 70.4528 11.2236 70.097 11.7329C69.7418 12.2423 69.5616 12.9889 69.5578 13.974V14.4358C69.5578 15.4025 69.7354 16.1529 70.0906 16.6858C70.4459 17.2192 70.9578 17.4863 71.6257 17.4863C72.2803 17.4863 72.7834 17.2294 73.1354 16.7156C73.4862 16.2018 73.6638 15.4526 73.6683 14.4682V14.0064ZM80.1524 18.956H78.2012V9.48551H80.1524V18.956ZM90.6771 18.956H88.7253L84.9269 12.725V18.956H82.9757V9.48551H84.9269L88.7323 15.7298V9.48551H90.6771V18.956ZM100.337 11.0663H97.4359V18.956H95.4847V11.0663H92.6226V9.48551H100.337V11.0663ZM108.162 14.8519H104.415V17.3886H108.812V18.956H102.464V9.48551H108.799V11.0663H104.415V13.3232H108.162V14.8519ZM112.923 17.3886H117.066V18.956H110.972V9.48551H112.923V17.3892V17.3886ZM124.898 14.8513H121.152V17.3886H125.548V18.956H119.2V9.48551H125.535V11.0663H121.152V13.3232H124.898V14.8513ZM135.201 17.7591C134.85 18.1796 134.353 18.5063 133.711 18.7378C133.07 18.97 132.359 19.0867 131.578 19.0867C130.758 19.0867 130.04 18.9072 129.422 18.5494C128.804 18.1917 128.327 17.6728 127.991 16.9915C127.655 16.3109 127.483 15.511 127.474 14.5918V13.9474C127.474 13.0022 127.633 12.1839 127.952 11.4925C128.271 10.8011 128.73 10.2714 129.331 9.90543C129.931 9.53879 130.635 9.35547 131.442 9.35547C132.564 9.35547 133.443 9.62316 134.076 10.1592C134.709 10.6945 135.084 11.4741 135.201 12.4973H133.301C133.215 11.9549 133.023 11.5585 132.726 11.3067C132.429 11.0555 132.02 10.9299 131.5 10.9299C130.836 10.9299 130.332 11.1792 129.984 11.6777C129.638 12.1763 129.462 12.9179 129.457 13.9023V14.5068C129.457 15.5002 129.646 16.25 130.023 16.7574C130.401 17.2649 130.954 17.5186 131.682 17.5186C132.415 17.5186 132.938 17.3626 133.249 17.0505V15.4177H131.474V13.9804H135.201V17.7591ZM141.302 15.4894H139.748V18.956H137.796V9.48551H141.316C142.434 9.48551 143.297 9.7348 143.904 10.234C144.511 10.7326 144.815 11.4367 144.815 12.3476C144.815 12.994 144.675 13.5325 144.395 13.9639C144.115 14.3952 143.691 14.739 143.123 14.9946L145.172 18.8647V18.956H143.078L141.302 15.4894ZM139.748 13.9087H141.321C141.812 13.9087 142.191 13.7837 142.46 13.5344C142.729 13.2851 142.863 12.942 142.863 12.5036C142.863 12.0571 142.736 11.7057 142.483 11.45C142.229 11.1944 141.84 11.0663 141.316 11.0663H139.748L139.748 13.9087ZM152.659 17.0042H149.238L148.588 18.956H146.513L150.038 9.48551H151.846L155.391 18.956H153.316L152.659 17.0042ZM149.765 15.4247H152.132L150.942 11.8788L149.765 15.4247ZM159.242 15.6195V18.956H157.29V9.48551H160.985C161.696 9.48551 162.321 9.61554 162.861 9.87625C163.402 10.1363 163.816 10.5055 164.107 10.9851C164.397 11.464 164.543 12.0095 164.543 12.621C164.543 13.549 164.226 14.2804 163.59 14.8158C162.954 15.3518 162.075 15.6195 160.952 15.6195H159.242ZM159.242 14.0387H160.985C161.501 14.0387 161.894 13.9176 162.165 13.6746C162.437 13.4317 162.572 13.0847 162.572 12.6343C162.572 12.17 162.436 11.7945 162.162 11.5084C161.889 11.2229 161.512 11.0751 161.03 11.0663H159.242V14.0387ZM174.605 18.956H172.654V14.8976H168.849V18.956H166.897V9.48551H168.849V13.3232H172.654V9.48551H174.605V18.956Z" fill="#667085"/>
<path d="M63.2158 27.7296H61.106V33.5464H59.9401V27.7296H57.8494V26.7819H63.2158V27.7296ZM65.4867 29.068C65.8552 28.6405 66.3215 28.4267 66.8854 28.4267C67.9574 28.4267 68.5004 29.0382 68.5156 30.2618V33.5464H67.3871V30.3037C67.3871 29.9567 67.3123 29.7112 67.1619 29.5672C67.0116 29.4232 66.7909 29.3516 66.4997 29.3516C66.0474 29.3516 65.71 29.5526 65.4867 29.9548V33.5464H64.3576V26.4102H65.4867V29.068ZM72.2512 33.639C71.5356 33.639 70.9559 33.4138 70.5112 32.9634C70.0672 32.5131 69.8445 31.9124 69.8445 31.1632V31.0237C69.8445 30.5219 69.9416 30.0734 70.135 29.6789C70.3139 29.3005 70.5966 28.9806 70.9501 28.7566C71.3007 28.5365 71.7072 28.422 72.1211 28.4267C72.8056 28.4267 73.3346 28.6449 73.7076 29.0813C74.0806 29.5184 74.2677 30.1362 74.2677 30.9355V31.3909H70.9825C71.0168 31.8058 71.1557 32.1337 71.3986 32.3754C71.6416 32.6171 71.9473 32.7382 72.3159 32.7382C72.8335 32.7382 73.2547 32.5289 73.5801 32.1103L74.189 32.6913C73.9873 32.9923 73.7087 33.2338 73.3822 33.391C73.046 33.5559 72.6692 33.639 72.2512 33.639ZM72.1167 29.3319C71.8065 29.3319 71.5566 29.441 71.3663 29.6579C71.176 29.8743 71.0542 30.1762 71.0015 30.5638H73.1519V30.48C73.1278 30.102 73.0269 29.8165 72.8506 29.6231C72.6736 29.4296 72.4294 29.3319 72.1167 29.3319ZM78.6712 33.5464V29.356H77.9043V28.5193H78.6712V28.0594C78.6712 27.5019 78.826 27.0712 79.1355 26.7679C79.4457 26.4641 79.879 26.3125 80.4365 26.3125C80.6351 26.3125 80.8457 26.3404 81.0683 26.3962L81.0404 27.2792C80.898 27.2527 80.7533 27.2402 80.6084 27.2418C80.0693 27.2418 79.8003 27.519 79.8003 28.0734V28.5193H80.8216V29.356H79.8003V33.5464H78.6712ZM85.0728 33.0541C84.7417 33.4443 84.2704 33.639 83.6602 33.639C83.1153 33.639 82.7023 33.4798 82.4226 33.1607C82.1422 32.8416 82.0021 32.3805 82.0021 31.776V28.5193H83.1312V31.762C83.1312 32.4001 83.3957 32.7198 83.9253 32.7198C84.4734 32.7198 84.8438 32.5232 85.0354 32.1299V28.5193H86.1645V33.5464H85.1007L85.0728 33.0541ZM89.1097 27.2976V28.5193H89.9978V29.356H89.1097V32.1616C89.1097 32.3538 89.1478 32.4928 89.2239 32.5778C89.3 32.6628 89.4351 32.7053 89.6298 32.7053C89.7605 32.7053 89.8918 32.69 90.025 32.659V33.5324C89.7832 33.6014 89.5331 33.6373 89.2816 33.639C88.4145 33.639 87.9812 33.1607 87.9812 32.2035V29.3554H87.1541V28.5193H87.9806V27.2982H89.1097V27.2976ZM94.2852 33.0541C93.9534 33.4443 93.4828 33.639 92.8725 33.639C92.327 33.639 91.9147 33.4798 91.6343 33.1607C91.354 32.8416 91.2138 32.3805 91.2138 31.776V28.5193H92.3429V31.762C92.3429 32.4001 92.608 32.7198 93.1377 32.7198C93.6857 32.7198 94.0556 32.5232 94.2478 32.1299V28.5193H95.3769V33.5464H94.3131L94.2852 33.0541ZM99.5393 29.5507C99.3873 29.5258 99.2335 29.5135 99.0794 29.514C98.5618 29.514 98.2136 29.7119 98.0341 30.1083V33.5464H96.905V28.5193H97.9833L98.0106 29.0813C98.2834 28.6449 98.6614 28.4267 99.1441 28.4267C99.3053 28.4267 99.4385 28.4483 99.5438 28.4914L99.5393 29.5507ZM102.759 33.639C102.043 33.639 101.463 33.4138 101.019 32.9634C100.575 32.5131 100.352 31.9124 100.352 31.1632V31.0237C100.352 30.5219 100.449 30.0734 100.642 29.6789C100.821 29.3005 101.104 28.9806 101.458 28.7566C101.808 28.5365 102.215 28.422 102.629 28.4267C103.313 28.4267 103.842 28.6449 104.215 29.0813C104.588 29.5184 104.775 30.1362 104.775 30.9355V31.3909H101.49C101.524 31.8058 101.663 32.1337 101.906 32.3754C102.149 32.6171 102.455 32.7382 102.823 32.7382C103.341 32.7382 103.762 32.5289 104.087 32.1103L104.696 32.6913C104.495 32.9923 104.216 33.2338 103.89 33.391C103.553 33.5559 103.177 33.639 102.759 33.639ZM102.624 29.3319C102.314 29.3319 102.064 29.441 101.874 29.6579C101.683 29.8743 101.562 30.1762 101.509 30.5638H103.659V30.48C103.635 30.102 103.534 29.8165 103.358 29.6231C103.181 29.4296 102.937 29.3319 102.624 29.3319ZM108.57 30.9862C108.57 30.494 108.667 30.0506 108.863 29.6554C109.042 29.278 109.328 28.9613 109.685 28.7445C110.038 28.5326 110.443 28.4267 110.903 28.4267C111.58 28.4267 112.131 28.6449 112.554 29.0813C112.976 29.5184 113.205 30.0975 113.239 30.8194L113.244 31.0839C113.244 31.5793 113.149 32.0227 112.959 32.4128C112.781 32.7887 112.496 33.1038 112.14 33.3187C111.786 33.5324 111.376 33.639 110.912 33.639C110.202 33.639 109.635 33.403 109.208 32.9311C108.783 32.4585 108.57 31.8286 108.57 31.0421V30.9862ZM109.699 31.0839C109.699 31.6015 109.806 32.0062 110.02 32.2987C110.233 32.5917 110.53 32.7382 110.912 32.7382C111.292 32.7382 111.589 32.5892 111.801 32.2917C112.013 31.9948 112.119 31.5597 112.119 30.9862C112.119 30.4788 112.01 30.076 111.792 29.7785C111.573 29.481 111.277 29.3325 110.902 29.3325C110.534 29.3325 110.241 29.4784 110.024 29.7715C109.807 30.0646 109.699 30.501 109.699 31.0839ZM114.977 33.5464V29.356H114.21V28.5193H114.977V28.0594C114.977 27.5019 115.132 27.0712 115.441 26.7679C115.751 26.4641 116.185 26.3125 116.742 26.3125C116.941 26.3125 117.151 26.3404 117.374 26.3962L117.346 27.2792C117.204 27.2527 117.06 27.2402 116.915 27.2418C116.376 27.2418 116.106 27.519 116.106 28.0734V28.5193H117.128V29.356H116.106V33.5464H114.977ZM122.145 28.5193L122.177 29.0446C122.531 28.6322 123.014 28.4267 123.627 28.4267C124.299 28.4267 124.759 28.6836 125.007 29.1981C125.372 28.6836 125.886 28.4267 126.549 28.4267C127.103 28.4267 127.516 28.5796 127.787 28.8866C128.058 29.193 128.197 29.6453 128.203 30.2428V33.5464H127.074V30.2758C127.074 29.9567 127.004 29.7226 126.865 29.5742C126.725 29.4251 126.495 29.3509 126.174 29.3509C125.916 29.3509 125.706 29.4201 125.544 29.5577C125.378 29.6998 125.259 29.8883 125.202 30.0988L125.207 33.5464H124.078V30.2384C124.062 29.6472 123.761 29.3509 123.172 29.3509C122.72 29.3509 122.399 29.5349 122.21 29.9041V33.5464H121.081V28.5193H122.145ZM129.532 30.9869C129.532 30.494 129.629 30.0506 129.824 29.6554C130.003 29.2779 130.289 28.9612 130.647 28.7445C130.999 28.5326 131.405 28.4267 131.864 28.4267C132.542 28.4267 133.093 28.6449 133.515 29.0813C133.938 29.5184 134.167 30.0975 134.2 30.8194L134.205 31.0839C134.205 31.5793 134.11 32.0227 133.92 32.4128C133.742 32.7887 133.458 33.1038 133.102 33.3187C132.747 33.5324 132.338 33.639 131.873 33.639C131.164 33.639 130.596 33.403 130.17 32.9311C129.745 32.4585 129.532 31.8286 129.532 31.0421V30.9869ZM130.661 31.0839C130.661 31.6015 130.767 32.0062 130.981 32.2987C131.195 32.5917 131.492 32.7382 131.873 32.7382C132.254 32.7382 132.55 32.5892 132.763 32.2917C132.975 31.9948 133.081 31.5597 133.081 30.9862C133.081 30.4788 132.972 30.076 132.753 29.7785C132.535 29.481 132.238 29.3325 131.864 29.3325C131.496 29.3325 131.202 29.4784 130.986 29.7715C130.769 30.0646 130.661 30.501 130.661 31.0839ZM136.589 28.5193L136.621 29.1004C136.993 28.6513 137.48 28.4267 138.084 28.4267C139.131 28.4267 139.664 29.0262 139.683 30.2244V33.5464H138.554V30.2897C138.554 29.9707 138.485 29.7341 138.347 29.5812C138.209 29.4277 137.984 29.3509 137.671 29.3509C137.216 29.3509 136.877 29.5571 136.653 29.9688V33.5464H135.524V28.5193H136.589ZM143.427 33.639C142.712 33.639 142.131 33.4138 141.687 32.9634C141.243 32.5131 141.021 31.9124 141.021 31.1632V31.0237C141.021 30.5219 141.117 30.0734 141.31 29.6789C141.49 29.3004 141.772 28.9805 142.126 28.7566C142.477 28.5366 142.883 28.4221 143.297 28.4267C143.982 28.4267 144.51 28.6449 144.884 29.0813C145.257 29.5184 145.443 30.1362 145.443 30.9355V31.3909H142.159C142.193 31.8058 142.331 32.1337 142.574 32.3754C142.818 32.6171 143.123 32.7382 143.492 32.7382C144.009 32.7382 144.431 32.5289 144.756 32.1103L145.364 32.6913C145.163 32.9922 144.885 33.2338 144.558 33.391C144.222 33.5559 143.845 33.639 143.427 33.639ZM143.292 29.3319C142.983 29.3319 142.733 29.441 142.542 29.6579C142.351 29.8743 142.23 30.1762 142.177 30.5638H144.328V30.48C144.303 30.102 144.203 29.8165 144.026 29.6231C143.85 29.4296 143.605 29.3319 143.292 29.3319ZM148.398 31.9295L149.42 28.5193H150.623L148.625 34.3082C148.319 35.1538 147.798 35.5769 147.064 35.5769C146.88 35.5739 146.697 35.5457 146.521 35.4931V34.6197L146.735 34.6336C147.019 34.6336 147.234 34.5816 147.378 34.4782C147.522 34.3742 147.636 34.1997 147.719 33.9555L147.882 33.5229L146.117 28.5193H147.334L148.398 31.9295Z" fill="#667085"/>
</g>
<defs>
<clipPath id="clip0_821_6997">
<rect width="170" height="39.3284" fill="white" transform="translate(5.2002 5)"/>
</clipPath>
</defs>
</svg>
