<svg width="180" height="48" viewBox="0 0 180 48" fill="none" xmlns="http://www.w3.org/2000/svg">
<g clip-path="url(#clip0_945_17152)">
<path d="M52.2074 32.3206C50.7134 32.3206 49.9664 31.5813 49.9664 30.1029V18.0809C49.9664 16.6025 50.7134 15.8633 52.2074 15.8633H57.9033C59.6767 15.8633 61.05 16.2485 62.0232 17.0191C62.9964 17.7896 63.4828 18.8211 63.4824 20.1135C63.4824 20.9698 63.2683 21.7168 62.8402 22.3544C62.412 22.9921 61.8169 23.4668 61.0547 23.7784C61.9729 24.0585 62.681 24.529 63.179 25.1899C63.6769 25.8508 63.9259 26.6716 63.9259 27.6524C63.9259 29.1 63.4084 30.2401 62.3733 31.0725C61.3382 31.9049 59.9268 32.3211 58.1389 32.3211L52.2074 32.3206ZM54.076 22.3995H57.134C57.9118 22.3995 58.4836 22.2594 58.8495 21.9793C59.2154 21.6992 59.3976 21.2712 59.3962 20.6954C59.3962 20.12 59.2132 19.696 58.8473 19.4235C58.4814 19.1509 57.9096 19.0147 57.1319 19.0147H54.076V22.3995ZM54.076 29.1692H57.5542C58.3479 29.1692 58.927 29.0175 59.2914 28.7142C59.6559 28.411 59.8388 27.9557 59.8403 27.3484C59.8403 26.7414 59.6573 26.2901 59.2914 25.9944C58.9255 25.6987 58.3464 25.5509 57.5542 25.5509H54.076V29.1692Z" fill="#667085"/>
<path d="M68.5806 18.9683C67.8488 18.9683 67.2846 18.7971 66.8879 18.4548C66.4913 18.1124 66.2922 17.6144 66.2908 16.9608C66.2908 16.3231 66.4898 15.8329 66.8879 15.4901C67.286 15.1474 67.8503 14.9762 68.5806 14.9766C70.1213 14.9766 70.8916 15.638 70.8916 16.9608C70.8916 17.6144 70.6926 18.1124 70.2945 18.4548C69.8964 18.7971 69.3251 18.9683 68.5806 18.9683ZM68.5806 32.531C67.9111 32.531 67.4013 32.3365 67.0513 31.9474C66.7014 31.5583 66.5264 30.9974 66.5264 30.2645V22.8901C66.5264 22.1586 66.7014 21.5977 67.0513 21.2072C67.4013 20.8166 67.9111 20.6221 68.5806 20.6236C69.2494 20.6236 69.7668 20.8181 70.1327 21.2072C70.4986 21.5962 70.6816 22.1572 70.6816 22.8901V30.2678C70.6816 30.9995 70.5026 31.5605 70.1446 31.9507C69.7867 32.3408 69.2654 32.5343 68.5806 32.531Z" fill="#667085"/>
<path d="M79.6774 32.5753C77.9348 32.5753 76.6431 32.1706 75.8023 31.3614C74.9616 30.5521 74.5416 29.3305 74.5423 27.6964V23.8914H73.7486C72.7056 23.8914 72.1841 23.3779 72.1841 22.3507C72.1841 21.3395 72.7056 20.8338 73.7486 20.8334H74.5423V19.3861C74.5423 18.7017 74.7211 18.1804 75.0787 17.8221C75.4363 17.4638 75.9498 17.2848 76.6194 17.2852C78.0048 17.2852 78.6975 17.9855 78.6975 19.3861V20.8334H80.6111C81.6698 20.8334 82.1991 21.3392 82.1991 22.3507C82.1991 23.3779 81.6698 23.8914 80.6111 23.8914H78.6975V27.5564C78.6975 28.6783 79.2654 29.2393 80.4011 29.2393C80.6133 29.2399 80.8249 29.2164 81.0319 29.1693C81.2152 29.1248 81.403 29.1014 81.5916 29.0992C81.7031 29.0875 81.8158 29.1014 81.9211 29.1398C82.0263 29.1783 82.1214 29.2404 82.1991 29.3213C82.3543 29.4845 82.4319 29.854 82.4319 30.4298C82.4319 30.8967 82.3619 31.2897 82.2219 31.6089C82.0818 31.9282 81.833 32.1576 81.4754 32.2973C81.1866 32.3913 80.8896 32.4579 80.5883 32.496C80.2869 32.5433 79.9825 32.5698 79.6774 32.5753Z" fill="#667085"/>
<path d="M89.914 32.5768C88.6219 32.5768 87.4974 32.3356 86.5405 31.8531C85.6107 31.3953 84.8363 30.6736 84.3142 29.7782C83.7851 28.876 83.5205 27.8022 83.5205 26.5568C83.5205 25.3115 83.7851 24.2407 84.3142 23.3446C84.8367 22.4549 85.6113 21.74 86.54 21.2904C87.4973 20.8155 88.6217 20.5781 89.9134 20.5781C90.3909 20.5805 90.8672 20.6235 91.3374 20.7068C91.8686 20.8026 92.386 20.9633 92.8781 21.1851C93.2356 21.3251 93.4924 21.5392 93.6484 21.8273C93.8026 22.1092 93.8715 22.4298 93.8466 22.7502C93.8271 23.0643 93.7309 23.3689 93.5664 23.6372C93.414 23.893 93.1732 24.084 92.8895 24.1741C92.5999 24.2675 92.2771 24.2286 91.921 24.0574C91.4309 23.8294 90.8974 23.71 90.3569 23.7073C89.5318 23.7073 88.8937 23.9563 88.4428 24.4543C87.9918 24.9523 87.7662 25.6526 87.7658 26.5552C87.7658 27.4737 87.9915 28.1858 88.4428 28.6914C88.8941 29.197 89.5321 29.4503 90.3569 29.4514C90.6158 29.4504 90.8739 29.4231 91.1273 29.37C91.4016 29.3111 91.668 29.22 91.921 29.0986C92.2945 28.9277 92.6173 28.8928 92.8895 28.9938C93.1605 29.095 93.3898 29.284 93.5409 29.5307C93.7066 29.7941 93.8029 30.0952 93.821 30.4058C93.846 30.7262 93.7771 31.0468 93.6229 31.3287C93.4669 31.6182 93.2023 31.8321 92.8292 31.9704C92.3435 32.1902 91.8331 32.3509 91.3091 32.4492C90.8487 32.5321 90.3818 32.5748 89.914 32.5768Z" fill="#667085"/>
<path d="M101.476 32.575C100.2 32.575 99.0871 32.3338 98.1374 31.8514C97.2114 31.3913 96.4404 30.6699 95.9198 29.7765C95.391 28.8717 95.1265 27.8041 95.1261 26.5735C95.1261 25.3289 95.3907 24.2591 95.9198 23.3641C96.443 22.4749 97.2135 21.757 98.1374 21.2979C99.0867 20.8158 100.199 20.5746 101.476 20.5742C102.752 20.5739 103.864 20.8151 104.814 21.2979C105.736 21.7551 106.503 22.4737 107.02 23.3641C107.541 24.2587 107.802 25.3285 107.802 26.5735C107.802 27.8041 107.541 28.8701 107.02 29.7716C106.506 30.6671 105.738 31.3902 104.814 31.8492C103.865 32.3327 102.752 32.5747 101.476 32.575ZM101.476 29.517C101.769 29.5236 102.059 29.464 102.326 29.3428C102.593 29.2215 102.829 29.0417 103.016 28.8167C103.421 28.3498 103.624 27.6028 103.623 26.5757C103.623 25.5334 103.421 24.7826 103.016 24.3233C102.612 23.864 102.098 23.6344 101.476 23.6344C100.838 23.6344 100.317 23.864 99.9116 24.3233C99.5066 24.7826 99.3043 25.5327 99.3046 26.5735C99.3046 27.6007 99.5069 28.3477 99.9116 28.8145C100.316 29.2814 100.838 29.5156 101.476 29.517Z" fill="#667085"/>
<path d="M112.041 18.9683C111.309 18.9683 110.745 18.7971 110.348 18.4548C109.951 18.1124 109.752 17.6144 109.751 16.9608C109.751 16.3231 109.95 15.8329 110.348 15.4901C110.746 15.1474 111.31 14.9762 112.041 14.9766C113.582 14.9766 114.352 15.638 114.352 16.9608C114.352 17.6144 114.153 18.1124 113.755 18.4548C113.357 18.7971 112.785 18.9683 112.041 18.9683ZM112.041 32.531C111.372 32.531 110.862 32.3365 110.512 31.9474C110.161 31.5583 109.986 30.9974 109.987 30.2645V22.8901C109.987 22.1586 110.162 21.5977 110.512 21.2072C110.862 20.8166 111.371 20.6221 112.041 20.6236C112.71 20.6236 113.227 20.8181 113.593 21.2072C113.959 21.5962 114.142 22.1572 114.142 22.8901V30.2678C114.142 30.9995 113.963 31.5605 113.605 31.9507C113.247 32.3408 112.726 32.5343 112.041 32.531Z" fill="#667085"/>
<path d="M118.971 32.5301C118.302 32.5301 117.793 32.3511 117.443 31.9932C117.093 31.6352 116.918 31.1141 116.917 30.4297V22.7024C116.917 21.3173 117.594 20.6248 118.948 20.6248C120.179 20.6248 120.848 21.224 120.957 22.4223C121.341 21.8352 121.878 21.3633 122.509 21.0569C123.155 20.7377 123.875 20.5781 124.668 20.5781C126.038 20.5781 127.053 20.9827 127.715 21.792C128.377 22.6012 128.708 23.8462 128.707 25.527V30.4297C128.707 31.1148 128.528 31.6361 128.17 31.9937C127.812 32.3513 127.298 32.5303 126.629 32.5306C125.96 32.5306 125.447 32.3517 125.089 31.9937C124.731 31.6358 124.551 31.1144 124.551 30.4297V25.6904C124.551 24.9901 124.43 24.4921 124.189 24.1964C123.947 23.9007 123.593 23.7527 123.127 23.7523C122.504 23.7523 122.006 23.9514 121.633 24.3495C121.26 24.7476 121.073 25.2805 121.072 25.9483V30.4297C121.072 31.83 120.372 32.5301 118.971 32.5301Z" fill="#667085"/>
<path d="M133.064 32.3184C132.379 32.3184 131.885 32.159 131.582 31.8402C131.279 31.5213 131.127 31.0508 131.127 30.4287C131.12 30.0222 131.216 29.6206 131.407 29.2615C131.614 28.8915 131.874 28.5531 132.177 28.2567L136.262 23.9848C136.869 23.3471 137.301 22.7908 137.557 22.316C137.814 21.8411 137.942 21.3706 137.943 20.9045C137.943 19.7221 137.188 19.1307 135.678 19.1304C135.273 19.1347 134.87 19.1857 134.476 19.2824C134.008 19.3991 133.557 19.5755 133.134 19.8073C132.714 20.0096 132.332 20.0681 131.99 19.9827C131.66 19.9046 131.364 19.7199 131.15 19.4572C130.933 19.1965 130.792 18.8818 130.741 18.5468C130.687 18.2008 130.74 17.8465 130.893 17.5316C131.048 17.1968 131.328 16.9205 131.733 16.7026C132.438 16.3334 133.187 16.055 133.962 15.8742C134.724 15.6961 135.503 15.606 136.285 15.6055C138.184 15.6055 139.635 16.0179 140.639 16.8427C141.642 17.6675 142.144 18.858 142.145 20.4143C142.146 21.4036 141.914 22.3794 141.468 23.2622C141.016 24.1648 140.261 25.1375 139.203 26.1802L136.543 28.8402H141.189C142.371 28.8402 142.962 29.4161 142.963 30.5677C142.963 31.7349 142.371 32.3184 141.189 32.3184H133.064Z" fill="#667085"/>
<path d="M153.643 32.5774C151.761 32.5774 150.162 32.2272 148.846 31.5269C147.53 30.8266 146.53 29.8458 145.846 28.5845C145.161 27.324 144.819 25.8533 144.819 24.1726C144.819 22.43 145.181 20.9166 145.905 19.6325C146.629 18.3484 147.668 17.3562 149.021 16.6559C150.375 15.9556 152.009 15.6055 153.923 15.6055C154.722 15.6077 155.519 15.682 156.304 15.8275C157.136 15.9828 157.94 16.2624 158.688 16.657C159.092 16.8438 159.369 17.1045 159.517 17.4393C159.665 17.7724 159.713 18.1411 159.657 18.5012C159.608 18.8615 159.467 19.2032 159.248 19.4935C159.036 19.7786 158.737 19.9879 158.397 20.0907C158.046 20.1993 157.646 20.1526 157.194 19.9506C156.229 19.4997 155.147 19.274 153.949 19.2737C152.377 19.2737 151.206 19.6939 150.436 20.5342C149.667 21.3746 149.281 22.5885 149.281 24.1759C149.281 25.7632 149.67 26.9615 150.448 27.7708C151.226 28.58 152.378 28.9846 153.903 28.9846C154.618 28.9846 155.42 28.8761 156.307 28.6589V26.0645H154.671C153.566 26.0645 153.013 25.5587 153.014 24.5472C153.014 23.5515 153.566 23.0535 154.671 23.0532H158.126C159.248 23.0532 159.809 23.6142 159.809 24.7361V29.8934C159.809 30.3603 159.711 30.7571 159.517 31.0839C159.322 31.4108 159.014 31.6442 158.594 31.7843C156.996 32.3072 155.326 32.5751 153.645 32.5779L153.643 32.5774Z" fill="#667085"/>
<path d="M168.674 32.575C167.397 32.575 166.284 32.3338 165.335 31.8514C164.409 31.3914 163.638 30.6701 163.118 29.7765C162.589 28.8717 162.325 27.8041 162.325 26.5735C162.325 25.3289 162.59 24.2591 163.119 23.3641C163.642 22.4749 164.413 21.757 165.337 21.2979C166.286 20.8158 167.399 20.5746 168.675 20.5742C169.95 20.5739 171.063 20.8151 172.013 21.2979C172.935 21.7551 173.702 22.4737 174.219 23.3641C174.74 24.2587 175.001 25.3285 175.001 26.5735C175.001 27.8041 174.74 28.8701 174.219 29.7716C173.705 30.6671 172.938 31.3902 172.013 31.8492C171.063 32.3327 169.95 32.5747 168.674 32.575ZM168.674 29.517C168.967 29.5236 169.257 29.464 169.524 29.3428C169.791 29.2215 170.027 29.0417 170.214 28.8167C170.619 28.3498 170.821 27.6028 170.821 26.5757C170.821 25.5334 170.619 24.7826 170.214 24.3233C169.81 23.864 169.296 23.6344 168.674 23.6344C168.036 23.6344 167.515 23.864 167.11 24.3233C166.705 24.7826 166.503 25.5327 166.505 26.5735C166.505 27.6007 166.708 28.3477 167.112 28.8145C167.517 29.2814 168.037 29.5156 168.674 29.517Z" fill="#667085"/>
<path opacity="0.9" d="M23.0723 42.1447C33.0534 42.1447 41.1447 34.0534 41.1447 24.0723C41.1447 14.0913 33.0534 6 23.0723 6C13.0913 6 5 14.0913 5 24.0723C5 34.0534 13.0913 42.1447 23.0723 42.1447Z" fill="url(#paint0_radial_945_17152)"/>
<path d="M32.2377 25.5789C31.5526 24.6701 30.579 24.023 29.317 23.6376C30.3648 23.2098 31.1832 22.5573 31.7724 21.68C32.3616 20.8027 32.6557 19.7756 32.6546 18.5986C32.6546 16.8252 31.9862 15.4078 30.6492 14.3463C29.3123 13.2848 27.424 12.7553 24.9843 12.7578H17.1533C15.0998 12.7578 14.0729 13.7743 14.0725 15.8072V32.335C14.0725 34.3675 15.0995 35.3838 17.1533 35.3838H25.3035C27.7646 35.3838 29.7063 34.8114 31.1286 33.6667C32.5509 32.5219 33.2625 30.9547 33.2632 28.9648C33.2643 27.6171 32.9224 26.4884 32.2377 25.5789Z" fill="url(#paint1_linear_945_17152)"/>
<mask id="mask0_945_17152" style="mask-type:luminance" maskUnits="userSpaceOnUse" x="14" y="12" width="20" height="24">
<path d="M32.2377 25.5789C31.5526 24.6701 30.579 24.023 29.317 23.6376C30.3648 23.2098 31.1832 22.5573 31.7724 21.68C32.3616 20.8027 32.6557 19.7756 32.6546 18.5986C32.6546 16.8252 31.9862 15.4078 30.6492 14.3463C29.3123 13.2848 27.424 12.7553 24.9843 12.7578H17.1533C15.0998 12.7578 14.0729 13.7743 14.0725 15.8072V32.335C14.0725 34.3675 15.0995 35.3838 17.1533 35.3838H25.3035C27.7646 35.3838 29.7063 34.8114 31.1286 33.6667C32.5509 32.5219 33.2625 30.9547 33.2632 28.9648C33.2643 27.6171 32.9224 26.4884 32.2377 25.5789Z" fill="white"/>
</mask>
<g mask="url(#mask0_945_17152)">
<path d="M35.4276 17.5128C23.2373 16.2039 22.0837 24.1191 13.6458 25.2515C13.1029 25.3242 12.0796 25.3356 11.4531 25.2689V31.2069C12.0796 31.2731 13.1024 31.2611 13.6458 31.1889C22.0837 30.0565 23.2373 22.1397 35.4276 23.4502V17.5128Z" fill="#667085"/>
<path d="M37.0682 4.63432C24.878 3.32327 23.7243 11.2406 15.2864 12.373C14.7436 12.4458 13.7202 12.4572 13.0938 12.3904V19.3539C13.7202 19.4201 14.743 19.4081 15.2864 19.3359C23.7243 18.204 24.878 10.2878 37.0682 11.5978V4.63432Z" fill="#667085"/>
<path d="M34.9972 29.0287C22.8064 27.7182 21.6533 35.635 13.2154 36.7674C12.6725 36.8402 11.6492 36.8521 11.0227 36.7854V43.7488C11.6492 43.8156 12.672 43.8031 13.2154 43.7309C21.6533 42.599 22.8064 34.6817 34.9972 35.9928V29.0287Z" fill="#667085"/>
</g>
<path d="M19.549 15.3937C18.9301 15.3937 18.4518 15.2248 18.1142 14.8872C17.7765 14.5495 17.6077 14.0573 17.6077 13.4105V12.1907C17.6077 11.5436 17.7765 11.0512 18.1142 10.7135C18.4518 10.3759 18.9301 10.207 19.549 10.207C20.1679 10.207 20.6461 10.3757 20.9838 10.713C21.3215 11.0503 21.4903 11.5429 21.4903 12.1907V13.4116C21.4903 14.0587 21.3249 14.5509 20.9941 14.8883C20.6633 15.2256 20.1816 15.394 19.549 15.3937Z" fill="#667085"/>
<path d="M25.5066 33.5703C26.1259 33.5703 26.6042 33.7391 26.9415 34.0768C27.2788 34.4145 27.4476 34.9069 27.448 35.554V35.9546C27.448 36.6017 27.2791 37.0941 26.9415 37.4318C26.6038 37.7695 26.1255 37.9383 25.5066 37.9383C24.8878 37.9383 24.4095 37.7695 24.0718 37.4318C23.7342 37.0941 23.5657 36.6017 23.5664 35.9546V35.554C23.5664 34.9069 23.7318 34.4145 24.0626 34.0768C24.3934 33.7391 24.8747 33.5703 25.5066 33.5703Z" fill="#667085"/>
<path d="M18.0686 37.4308C18.4063 37.7685 18.8846 37.9373 19.5035 37.9373C20.1223 37.9373 20.6435 37.7685 20.9839 37.4308C21.3243 37.0931 21.4904 36.6007 21.4904 35.9536V33.7191C21.4942 33.4467 21.4567 33.1752 21.3791 32.9141C20.1647 33.7908 18.9258 34.6654 17.5621 35.3711V35.9547C17.5621 36.6018 17.731 37.0938 18.0686 37.4308Z" fill="#667085"/>
<path d="M26.9415 10.713C26.6038 10.3757 26.1255 10.207 25.5066 10.207C24.8878 10.207 24.4095 10.3757 24.0718 10.713C23.7349 11.0507 23.5664 11.5432 23.5664 12.1907V13.4116C23.5664 14.0587 23.7352 14.5509 24.0729 14.8883C24.1033 14.9187 24.1353 14.9469 24.1679 14.9746C25.1853 14.2547 26.2428 13.556 27.4491 12.9735V12.1907C27.4487 11.5443 27.2795 11.0517 26.9415 10.713Z" fill="#667085"/>
</g>
<defs>
<radialGradient id="paint0_radial_945_17152" cx="0" cy="0" r="1" gradientUnits="userSpaceOnUse" gradientTransform="translate(23.0723 24.0723) scale(18.0723)">
<stop stop-color="#98A2B3" stop-opacity="0.1"/>
<stop offset="0.2" stop-color="#2E2E2E" stop-opacity="0.13"/>
<stop offset="0.2001" stop-color="#98A2B3" stop-opacity="0.138437"/>
<stop offset="0.3999" stop-color="#98A2B3" stop-opacity="0.211925"/>
<stop offset="0.4" stop-color="#98A2B3" stop-opacity="0.22"/>
<stop offset="0.697917" stop-color="#98A2B3" stop-opacity="0.36"/>
<stop offset="0.81" stop-color="#98A2B3" stop-opacity="0.57"/>
<stop offset="1" stop-color="#98A2B3" stop-opacity="0.8"/>
</radialGradient>
<linearGradient id="paint1_linear_945_17152" x1="14.0725" y1="24.0708" x2="33.2632" y2="24.0708" gradientUnits="userSpaceOnUse">
<stop stop-color="#98A2B3" stop-opacity="0.1"/>
<stop offset="0.17" stop-color="#98A2B3" stop-opacity="0.13"/>
<stop offset="0.35" stop-color="#98A2B3" stop-opacity="0.22"/>
<stop offset="0.53" stop-color="#98A2B3" stop-opacity="0.36"/>
<stop offset="0.71" stop-color="#98A2B3" stop-opacity="0.57"/>
<stop offset="0.9" stop-color="#98A2B3" stop-opacity="0.83"/>
<stop offset="1" stop-color="#98A2B3"/>
</linearGradient>
<clipPath id="clip0_945_17152">
<rect width="170" height="36.1447" fill="white" transform="translate(5 6)"/>
</clipPath>
</defs>
</svg>
