<svg width="180" height="48" viewBox="0 0 180 48" fill="none" xmlns="http://www.w3.org/2000/svg">
<g clip-path="url(#clip0_821_6982)">
<path d="M49.9318 23.0882H46.6655V34.1683H43.9295V23.0882H41.717V20.5884H43.9295V18.7948C43.9101 18.2536 44.0015 17.7142 44.198 17.2096C44.3945 16.705 44.6921 16.2459 45.0725 15.8604C45.8374 15.097 46.8252 14.7152 48.0358 14.7152C48.6438 14.6932 49.2471 14.8291 49.787 15.1096C50.1647 15.3057 50.5067 15.5641 50.7986 15.8738L49.8784 17.9526C49.6756 17.7578 49.4451 17.5941 49.1944 17.4669C48.9364 17.3241 48.647 17.2475 48.3522 17.2441C47.7194 17.2441 47.2805 17.3926 47.0354 17.6897C46.7816 18.0042 46.6503 18.3999 46.6655 18.8037V20.5861H49.9318V23.0882ZM54.2231 17.7409C53.6081 17.7409 53.1514 17.5827 52.8528 17.2663C52.5469 16.9282 52.3868 16.483 52.4072 16.0275C52.4062 15.592 52.5647 15.1711 52.8528 14.8445C53.1499 14.4924 53.6066 14.3164 54.2231 14.3164C54.8395 14.3164 55.2955 14.4746 55.5911 14.791C55.8966 15.1284 56.0567 15.5728 56.0367 16.0275C56.0383 16.4639 55.8797 16.8856 55.5911 17.2129C55.2925 17.5679 54.8365 17.7454 54.2231 17.7454V17.7409ZM55.6178 34.1683H52.9063V20.3544H55.6178V34.1683Z" fill="#667085"/>
<path d="M66.963 20.0626C68.2108 20.0626 69.1762 20.3174 69.8595 20.8269C70.5461 21.3397 71.0492 22.06 71.2944 22.8811C71.5764 23.8112 71.7139 24.779 71.7021 25.7509V34.1706H68.9906V25.9269C68.9992 25.3225 68.9104 24.7206 68.7277 24.1444C68.5727 23.6458 68.2599 23.211 67.8364 22.9056C67.4153 22.6093 66.8271 22.4845 66.0741 22.538C65.4231 22.5247 64.7796 22.6781 64.2047 22.9836C63.6804 23.2619 63.2363 23.67 62.9147 24.1689C62.5986 24.6546 62.4327 25.2227 62.4379 25.8021V34.1706H59.7241V20.3568H62.4379V22.5425C62.9175 21.8389 63.5467 21.25 64.2805 20.818C65.0851 20.3173 66.0154 20.0553 66.963 20.0626Z" fill="#667085"/>
<path d="M88.2606 20.3578V34.1716H85.5223V32.0439C85.0104 32.7031 84.3756 33.257 83.653 33.6748C82.7878 34.1954 81.7928 34.4603 80.7833 34.439C79.6589 34.4485 78.5565 34.1278 77.6128 33.5166C76.6385 32.885 75.8521 32.0031 75.3357 30.9633C74.7562 29.8036 74.4665 28.5207 74.4913 27.2246C74.4655 25.9298 74.7643 24.6491 75.3602 23.4993C75.9105 22.4518 76.7404 21.5772 77.7576 20.9727C78.8102 20.357 80.0118 20.0425 81.2311 20.0637C82.1197 20.0445 82.9973 20.263 83.7733 20.6964C84.4453 21.0717 85.0391 21.5724 85.5223 22.1714V20.3578H88.2606ZM81.416 31.9436C82.1983 31.9609 82.9681 31.7461 83.6285 31.3264C84.2639 30.9089 84.7731 30.3257 85.1012 29.6398C85.4625 28.8891 85.6433 28.0643 85.6293 27.2313C85.642 26.4113 85.4611 25.5998 85.1012 24.8629C84.7702 24.1831 84.2613 23.6056 83.6285 23.1918C82.9711 22.789 82.2156 22.5747 81.4447 22.5723C80.6737 22.57 79.9169 22.7797 79.2571 23.1785C78.6228 23.5855 78.1126 24.1589 77.7821 24.8361C77.4219 25.5824 77.2418 26.4028 77.2563 27.2313C77.2428 28.064 77.4228 28.8885 77.7821 29.6398C78.1118 30.3253 78.6216 30.9083 79.2571 31.3264C79.8998 31.7412 80.6512 31.956 81.416 31.9436Z" fill="#667085"/>
<path d="M99.2919 20.0627C100.537 20.0627 101.502 20.3174 102.188 20.8269C102.874 21.3408 103.377 22.0607 103.623 22.8811C103.905 23.8112 104.043 24.7791 104.031 25.7509V34.1707H101.319V25.9269C101.327 25.3225 101.238 24.7209 101.057 24.1444C100.902 23.6458 100.589 23.2111 100.165 22.9057C99.7442 22.6093 99.156 22.4846 98.4007 22.538C97.7498 22.5249 97.1063 22.6783 96.5313 22.9836C96.0079 23.2632 95.564 23.671 95.2413 24.169C94.928 24.6548 94.7638 25.2218 94.769 25.7999V34.1707H92.053V20.3568H94.7645V22.5425C95.2436 21.8384 95.8729 21.2495 96.6071 20.818C97.4124 20.3169 98.3435 20.0549 99.2919 20.0627Z" fill="#667085"/>
<path d="M117.377 31.8299V34.1694H107.128V31.9101L114.035 22.6949H107.128V20.3555H117.21V22.5679L110.297 31.8299H117.377Z" fill="#667085"/>
<path d="M127.96 23.0889H124.696V34.169H121.958V23.0889H119.748V20.589H121.958V18.7955C121.938 18.2541 122.03 17.7145 122.227 17.2098C122.424 16.7051 122.722 16.2462 123.103 15.8611C123.868 15.0977 124.855 14.7159 126.064 14.7159C126.672 14.6939 127.275 14.8298 127.815 15.1103C128.196 15.3059 128.54 15.5651 128.834 15.8767L127.911 17.9555C127.709 17.7602 127.478 17.5965 127.227 17.4698C126.969 17.3227 126.679 17.2423 126.383 17.2358C125.751 17.2358 125.312 17.3844 125.066 17.6814C124.814 17.9966 124.683 18.392 124.698 18.7955V20.5779H127.962L127.96 23.0889ZM130.803 34.169V14.6914H133.512V34.169H130.803Z" fill="#667085"/>
<path d="M146.678 28.6705V20.3555H149.39V34.1694H146.678V31.9614C146.221 32.6629 145.612 33.2523 144.896 33.6859C144.054 34.2036 143.079 34.4646 142.091 34.4367C140.651 34.4367 139.484 33.9451 138.59 32.9618C137.696 31.9784 137.25 30.6186 137.253 28.8822V20.3555H139.974V28.1536C139.967 28.8172 140.079 29.4767 140.304 30.1009C140.504 30.673 140.87 31.1725 141.355 31.5358C141.898 31.9139 142.55 32.1033 143.211 32.075C144.111 32.095 144.985 31.777 145.662 31.1838C146.341 30.5792 146.68 29.7415 146.678 28.6705Z" fill="#667085"/>
<path d="M161.158 23.9845C160.668 23.4942 160.103 23.085 159.485 22.7725C158.955 22.4826 158.365 22.3208 157.762 22.3001C157.394 22.2992 157.026 22.3434 156.668 22.4316C156.328 22.5089 156.015 22.6767 155.762 22.9173C155.631 23.0558 155.531 23.2198 155.468 23.3989C155.404 23.5779 155.378 23.7682 155.392 23.9578C155.385 24.2404 155.464 24.5184 155.616 24.7565C155.768 24.9946 155.988 25.1819 156.247 25.2946C156.912 25.5965 157.605 25.8345 158.315 26.0054C159.032 26.1982 159.736 26.4401 160.42 26.7295C161.083 27.0028 161.666 27.4371 162.118 27.9928C162.564 28.5454 162.787 29.3222 162.787 30.3233C162.807 31.1215 162.551 31.9023 162.062 32.5336C161.571 33.1562 160.927 33.6413 160.193 33.9417C159.436 34.2672 158.622 34.4355 157.798 34.4363C156.787 34.4342 155.784 34.2508 154.837 33.8949C153.848 33.5252 152.985 32.8824 152.348 32.0412L154.193 30.4615C154.639 30.9864 155.182 31.42 155.793 31.7382C156.489 32.0645 157.252 32.2217 158.021 32.1971C158.361 32.1961 158.699 32.1389 159.021 32.0278C159.348 31.9173 159.642 31.7275 159.877 31.4752C160.125 31.1871 160.252 30.8143 160.231 30.4347C160.241 30.2526 160.213 30.0703 160.147 29.9001C160.081 29.7299 159.98 29.5757 159.85 29.4477C159.556 29.1868 159.21 28.9896 158.836 28.8684C158.379 28.7086 157.913 28.5725 157.441 28.4607C156.683 28.2487 155.939 27.989 155.213 27.6831C154.515 27.3952 153.895 26.9454 153.404 26.3708C152.917 25.7974 152.673 25.0198 152.673 24.038C152.655 23.27 152.904 22.5193 153.378 21.9147C153.864 21.3132 154.492 20.8429 155.207 20.5467C155.972 20.2193 156.796 20.0532 157.629 20.0587C158.548 20.0767 159.458 20.2554 160.316 20.5868C161.253 20.9179 162.082 21.5006 162.711 22.2712L161.158 23.9845Z" fill="#667085"/>
<path d="M173.766 23.9862C173.278 23.4953 172.714 23.086 172.095 22.7742C171.565 22.4845 170.975 22.3227 170.371 22.3018C170.003 22.301 169.636 22.3452 169.279 22.4333C168.938 22.51 168.624 22.6778 168.37 22.919C168.241 23.0579 168.141 23.222 168.078 23.401C168.015 23.58 167.989 23.7701 168.002 23.9595C167.996 24.2422 168.073 24.5205 168.226 24.7587C168.378 24.9969 168.598 25.1841 168.858 25.2963C169.522 25.5979 170.214 25.8358 170.923 26.0071C171.642 26.2002 172.346 26.4421 173.031 26.7312C173.695 27.0061 174.279 27.4427 174.731 28.0012C175.177 28.5537 175.4 29.3306 175.4 30.3317C175.42 31.1299 175.164 31.9106 174.675 32.5419C174.184 33.1641 173.54 33.649 172.806 33.9501C172.045 34.2748 171.225 34.4408 170.398 34.438C169.386 34.4358 168.383 34.2525 167.436 33.8966C166.448 33.5277 165.584 32.8846 164.948 32.0428L166.79 30.4632C167.243 30.9895 167.793 31.4231 168.41 31.7398C169.106 32.0665 169.87 32.2238 170.638 32.1988C170.979 32.1982 171.317 32.141 171.639 32.0295C171.966 31.9201 172.26 31.7301 172.494 31.4769C172.744 31.1896 172.872 30.8164 172.851 30.4364C172.861 30.2541 172.832 30.0716 172.766 29.9013C172.7 29.731 172.598 29.5769 172.467 29.4494C172.174 29.1885 171.829 28.9913 171.456 28.8701C170.995 28.7097 170.527 28.5736 170.052 28.4624C169.294 28.2501 168.55 27.9904 167.824 27.6848C167.125 27.3975 166.505 26.9476 166.015 26.3725C165.532 25.8021 165.291 25.026 165.291 24.0442C165.269 23.2754 165.516 22.5231 165.988 21.9164C166.476 21.3138 167.107 20.8441 167.824 20.5506C168.589 20.2232 169.414 20.0571 170.246 20.0626C171.161 20.082 172.066 20.2606 172.92 20.5907C173.858 20.9212 174.687 21.504 175.315 22.2751L173.766 23.9862Z" fill="#667085"/>
<path d="M28.9213 20.8573C27.9655 19.8258 27.6179 17.5933 27.6179 17.5933L27.3394 16.3054C27.3394 16.3054 27.0052 15.0978 26.7579 14.7458C26.6448 14.4389 26.6197 14.1064 26.6854 13.786C26.7512 13.4655 26.9052 13.1698 27.13 12.9322C27.13 12.9322 27.7984 12.0677 26.8247 11.3725C26.8247 11.3725 25.7575 10.4813 24.9866 11.504C24.9866 11.504 24.2669 12.8208 23.2354 12.618C22.9546 12.5423 22.7897 12.5111 22.7897 12.5111C22.7897 12.5111 20.4681 12.0655 18.9709 12.0655C17.4736 12.0655 15.152 12.5111 15.152 12.5111C15.152 12.5111 14.976 12.5423 14.7064 12.618C13.6726 12.8163 12.9529 11.504 12.9529 11.504C12.1842 10.4791 11.1148 11.3725 11.1148 11.3725C10.1344 12.0744 10.8118 12.9322 10.8118 12.9322C11.0366 13.1698 11.1905 13.4655 11.2563 13.786C11.322 14.1064 11.2969 14.4389 11.1838 14.7458C10.9343 15.1045 10.6001 16.3054 10.6001 16.3054L10.3015 17.5933C10.3015 17.5933 9.95173 19.8213 8.9959 20.8573C8.9959 20.8573 2.55239 26.6503 6.91713 32.5746C6.91713 32.5746 9.7824 35.9813 14.5125 33.3455C14.5125 33.3455 16.7161 32.1246 18.9686 32.1179C21.2212 32.1112 23.4247 33.3455 23.4247 33.3455C28.1549 35.9813 31.0201 32.5746 31.0201 32.5746C35.3671 26.648 28.9213 20.8573 28.9213 20.8573ZM14.7019 25.759C14.2563 26.3628 13.1423 26.2982 12.2177 25.612C11.293 24.9258 10.9098 23.8808 11.3599 23.2748C11.8099 22.6687 12.9195 22.7356 13.8441 23.4218C14.7688 24.1081 15.152 25.1597 14.7019 25.7657V25.759ZM15.4595 19.2754C14.6418 19.2754 13.9823 18.5157 13.98 17.9497H15.2032C15.3436 17.9497 15.3859 17.7091 15.299 17.5999L14.5348 16.5817C14.7939 16.3573 15.1215 16.2277 15.4639 16.2141C15.8607 16.2292 16.2361 16.3975 16.5114 16.6835C16.7868 16.9695 16.9406 17.3511 16.9406 17.7481C16.9406 18.1451 16.7868 18.5267 16.5114 18.8127C16.2361 19.0988 15.8607 19.267 15.4639 19.2821L15.4595 19.2754ZM20.9806 17.9497H22.2038C22.3464 17.9497 22.3887 17.7091 22.2996 17.5999L21.5309 16.575C21.7899 16.3507 22.1176 16.221 22.46 16.2074C22.6529 16.2048 22.8445 16.2404 23.0236 16.3123C23.2027 16.3841 23.3657 16.4908 23.5033 16.6261C23.6409 16.7614 23.7503 16.9227 23.8252 17.1005C23.9 17.2784 23.9388 17.4694 23.9394 17.6623C23.9394 18.4822 23.271 19.2866 22.46 19.2866C21.649 19.2866 20.9828 18.5223 20.9806 17.9564V17.9497ZM25.704 25.4538C24.7838 26.149 23.6698 26.2113 23.2242 25.6075C22.7786 25.0037 23.1596 23.9543 24.082 23.2703C25.0044 22.5863 26.1207 22.5195 26.5663 23.1233C27.0119 23.7271 26.6287 24.7765 25.704 25.4605V25.4538Z" fill="#667085"/>
<path d="M18.9662 33.7227C16.0073 33.7227 14.695 35.358 14.695 35.358C14.695 35.358 13.3582 36.7974 18.9662 36.7974C24.5742 36.7974 23.2351 35.358 23.2351 35.358C23.2351 35.358 21.9228 33.7227 18.9662 33.7227Z" fill="#667085"/>
</g>
<defs>
<clipPath id="clip0_821_6982">
<rect width="170" height="25.7963" fill="white" transform="translate(5.3999 11)"/>
</clipPath>
</defs>
</svg>
