<svg width="626" height="636" viewBox="0 0 626 636" fill="none" xmlns="http://www.w3.org/2000/svg">
<rect width="626" height="636" rx="8" fill="#F9FAFB"/>
<g clip-path="url(#clip0_821_7055)">
<path d="M103.459 506.865C110.142 503.002 111.378 497.177 107.165 492.599L237.651 417.195C250.972 424.174 266.52 428.922 282.913 431.492L216.747 469.732L261.634 495.844L226.336 516.244C218.469 513.8 208.431 514.495 201.744 518.36C193.576 523.08 193.533 530.737 201.648 535.458C209.763 540.179 222.969 540.179 231.137 535.458C237.824 531.594 239.057 525.776 234.865 521.207L278.734 495.853L233.832 469.732L297.141 433.143C307.12 433.922 317.145 433.916 327.123 433.125L390.051 469.732L344.855 495.853L321.554 509.32C313.672 506.866 303.632 507.562 296.962 511.417C288.793 516.138 288.75 523.795 296.866 528.516C304.996 533.246 318.187 533.237 326.355 528.516C333.026 524.661 334.275 518.851 330.068 514.273L353.369 500.806L388.439 521.207C384.195 525.777 385.363 531.595 392.006 535.46C400.121 540.18 413.327 540.18 421.496 535.459C429.664 530.738 429.707 523.081 421.592 518.361C414.949 514.496 404.918 513.8 397.024 516.245L361.954 495.844L407.135 469.732L341.4 431.492C357.806 428.913 373.408 424.165 386.822 417.196L516.462 492.6C512.195 497.177 513.364 503.004 520.005 506.867C528.12 511.587 541.326 511.588 549.494 506.867C557.663 502.146 557.706 494.489 549.591 489.768C542.963 485.912 532.943 485.21 525.042 487.652L395.393 412.243C407.441 404.479 415.711 395.448 420.166 385.934L485.932 424.192L531.114 398.08L566.184 418.482C561.925 423.06 563.108 428.869 569.751 432.733C577.867 437.454 591.057 437.463 599.24 432.734C607.409 428.013 607.452 420.356 599.337 415.635C592.694 411.77 582.663 411.075 574.769 413.52L539.699 393.118L562.984 379.661C570.867 382.115 580.906 381.402 587.577 377.546C595.746 372.825 595.804 365.177 587.673 360.447C579.557 355.726 566.352 355.726 558.184 360.447C551.497 364.311 550.264 370.13 554.47 374.708L531.185 388.166L485.988 414.287L423.06 377.68C424.461 371.98 424.495 366.028 423.158 360.313L486.498 323.706L531.401 349.827L575.27 324.474C583.136 326.919 593.175 326.223 599.846 322.368C608.014 317.647 608.057 309.99 599.942 305.269C591.826 300.548 578.621 300.548 570.452 305.269C563.782 309.124 562.549 314.943 566.725 319.521L531.441 339.913L486.553 313.8L420.356 352.058C415.977 342.545 407.84 333.513 395.863 325.758L526.37 250.344C534.247 252.793 544.287 252.093 550.964 248.234C559.133 243.513 559.176 235.856 551.06 231.135C542.945 226.414 529.739 226.414 521.571 231.135C514.897 234.992 513.654 240.807 517.845 245.381L387.349 320.805C373.997 313.844 358.448 309.078 342.056 306.526L408.268 268.26L363.395 242.156L398.695 221.755C406.562 224.2 416.601 223.505 423.271 219.65C431.44 214.929 431.483 207.272 423.352 202.542C415.237 197.821 402.031 197.821 393.863 202.542C387.192 206.397 385.944 212.224 390.15 216.802L346.296 242.147L391.185 268.26L327.829 304.875C317.871 304.085 307.866 304.085 297.908 304.875L234.964 268.259L275.884 244.628L303.462 228.689C311.328 231.134 321.368 230.438 328.054 226.574C336.222 221.853 336.265 214.196 328.149 209.475C320.034 204.754 306.829 204.754 298.66 209.475C291.989 213.33 290.74 219.158 294.932 223.727L271.646 237.185L236.577 216.784C240.82 212.215 239.652 206.396 233.025 202.541C224.91 197.82 211.703 197.82 203.535 202.54C195.351 207.27 195.324 214.919 203.44 219.639C210.066 223.494 220.097 224.209 228.007 221.755L263.061 242.146L217.88 268.258L283.662 306.526C267.24 309.078 251.638 313.844 238.209 320.804L108.548 245.397C112.815 240.821 111.637 234.997 104.994 231.133C96.8792 226.412 83.6736 226.412 75.5046 231.133C67.3362 235.854 67.293 243.511 75.4084 248.232C82.0393 252.089 92.0664 252.791 99.9693 250.345L229.639 325.757C217.574 333.512 209.336 342.544 204.834 352.048L139.083 313.798L93.9013 339.91L58.8475 319.518C63.0901 314.949 61.9067 309.122 55.2799 305.267C47.1648 300.546 33.9583 300.545 25.7901 305.266C17.6217 309.987 17.5786 317.645 25.6939 322.365C32.3206 326.22 42.3519 326.917 50.2466 324.471L85.316 344.872L62.0149 358.339C54.1485 355.893 44.1091 356.59 37.4384 360.445C29.2703 365.166 29.227 372.823 37.3425 377.544C45.4577 382.264 58.6638 382.265 66.8323 377.544C73.5029 373.689 74.7363 367.87 70.5452 363.301L98.1233 347.344L139.027 323.705L201.971 360.321C200.566 366.019 200.523 371.969 201.843 377.687L138.518 414.285L93.63 388.172L49.7609 413.526C41.8793 411.072 31.8409 411.768 25.1545 415.632C16.9862 420.353 16.9431 428.01 25.0584 432.731C33.1892 437.461 46.3949 437.461 54.5632 432.74C61.2495 428.876 62.4824 423.057 58.2904 418.488L93.5891 398.087L138.462 424.191L204.644 385.942C208.991 395.455 217.176 404.478 229.137 412.242L98.6528 487.654C90.7765 485.206 80.7404 485.908 74.0654 489.766C65.897 494.487 65.8537 502.143 73.9691 506.865C82.0847 511.586 95.2903 511.585 103.459 506.865ZM241.839 327.886C281.126 305.18 344.622 305.172 383.654 327.878C422.701 350.592 422.479 387.409 383.192 410.115C343.905 432.821 280.408 432.829 241.361 410.114C202.329 387.408 202.551 350.591 241.839 327.886Z" fill="#E9F0F7"/>
</g>
<path d="M100.116 78.245L90.4536 72.5391C90.308 72.4532 90.1426 72.4069 89.9737 72.405C89.8049 72.403 89.6387 72.4453 89.4917 72.5278L75.6943 80.253C75.5466 80.3358 75.4234 80.4559 75.3372 80.6015L65.4635 97.3036C65.3775 97.4489 65.3313 97.6144 65.3298 97.7835L65.1956 113.625C65.1943 113.794 65.2375 113.96 65.3208 114.107C65.4042 114.254 65.5248 114.377 65.6706 114.463L79.9437 122.901C80.0894 122.987 80.255 123.034 80.4241 123.036C80.5931 123.038 80.7596 122.995 80.9067 122.912L94.7259 115.161C94.7484 115.149 94.7655 115.13 94.7867 115.116C94.8116 115.099 94.8342 115.082 94.8577 115.063C94.9469 114.994 95.0231 114.909 95.0828 114.813L104.956 98.1113C105.012 98.0124 105.049 97.9044 105.067 97.7923C105.072 97.7636 105.077 97.7364 105.079 97.7076C105.081 97.6814 105.09 97.6566 105.09 97.6301L105.205 81.8099C105.206 81.6413 105.163 81.4752 105.08 81.3282C104.996 81.1812 104.876 81.0586 104.73 80.9725L100.117 78.2455L100.117 78.2453L100.116 78.245Z" fill="#231F20"/>
<path d="M104.126 97.6199L104.241 81.7999L99.6284 79.0733L95.4902 95.0939L104.126 97.6199Z" fill="#F9C166"/>
<path d="M94.2523 114.323L80.4326 122.073L75.8203 119.347L88.2028 108.491L94.2523 114.323Z" fill="#F9C166"/>
<path d="M94.2523 114.323L104.126 97.6206L99.5069 94.8897L91.9666 101.055L89.6329 111.592L94.2523 114.323Z" fill="#FDB45C"/>
<path d="M75.8202 119.347L89.6329 111.592L99.5068 94.8893L99.6284 79.0733L89.9655 73.3671L76.1675 81.0919L66.2936 97.7944L66.1601 113.636L75.8202 119.347Z" fill="#FBD9A2"/>
<path d="M67.7327 111.973L68.8672 112.644L68.9948 98.3036L77.9119 83.2197L90.4101 76.2023L89.2756 75.5316L76.8105 82.5686L67.8951 97.6534L67.7327 111.973Z" fill="#FDB45C"/>
<path d="M68.867 112.643L76.5047 117.158L89.0104 110.135L97.9274 95.0515L98.0401 80.7124L90.4099 76.2017L77.9116 83.2189L68.9946 98.3027L68.867 112.643Z" fill="#F9C166"/>
<path d="M87.4331 94.2854C87.3161 94.0839 87.1526 93.9133 86.9561 93.788C86.7597 93.6626 86.536 93.5861 86.304 93.5648C87.0396 92.4757 87.4448 91.1972 87.4711 89.8829C87.4852 88.7152 87.1813 87.9259 86.5593 87.5151C85.9374 87.1053 85.1699 87.1681 84.257 87.7035L83.7544 87.9986L83.7831 85.6494L82.6697 86.3027L82.641 88.6519L82.1432 88.9439L82.1717 86.5951L81.0583 87.2485L81.0301 89.5973L80.2031 90.0826L79.8319 90.3006L77.6875 91.5588L77.6601 93.8386L79.8043 92.5802L79.68 102.796L77.5355 104.055L77.5079 106.335L79.6523 105.076L80.0233 104.858L80.8502 104.373L80.8235 106.569L81.9367 105.915L81.9634 103.72L82.4611 103.428L82.4347 105.623L83.548 104.969L83.5748 102.774L84.4277 102.273C85.4424 101.639 86.2668 100.742 86.8142 99.6784C87.4463 98.5862 87.7929 97.3522 87.822 96.0903C87.8653 95.4641 87.7305 94.8384 87.4331 94.2854ZM85.2413 89.9445C85.3917 90.0905 85.506 90.2695 85.575 90.4674C85.644 90.6652 85.6658 90.8764 85.6388 91.0841C85.6268 91.6526 85.4791 92.2098 85.2079 92.7094C84.9818 93.1842 84.6262 93.5854 84.182 93.867L81.5874 95.3899L81.6348 91.506L84.2294 89.9831C84.6327 89.7464 84.97 89.7336 85.2413 89.9445ZM85.5371 98.7619C85.3006 99.2667 84.9255 99.6939 84.4554 99.9938L81.5105 101.722L81.5609 97.5849L84.5058 95.8568C84.656 95.7359 84.8416 95.6676 85.0343 95.6623C85.2271 95.6571 85.4163 95.7151 85.5729 95.8276C85.731 95.9837 85.8511 96.174 85.9239 96.3839C85.9967 96.5937 86.0203 96.8174 85.9928 97.0377C85.979 97.6404 85.8229 98.2312 85.5371 98.7619Z" fill="#1A1E42"/>
<g opacity="0.2" filter="url(#filter0_f_821_7055)">
<path d="M398.721 529.868L148 380.563L227.831 332.269L478.551 481.565L398.721 529.868Z" fill="#010101"/>
</g>
<path d="M475.506 268.781C475.504 268.749 475.5 268.72 475.495 268.688C475.472 268.541 475.424 268.399 475.353 268.268C475.349 268.26 475.35 268.252 475.346 268.245L461.56 244.289C461.559 244.287 461.557 244.285 461.556 244.283C461.499 244.185 461.43 244.095 461.35 244.015C461.296 243.965 461.237 243.92 461.175 243.88C461.142 243.857 461.115 243.827 461.081 243.807L222.755 105.687C222.556 105.571 222.33 105.511 222.1 105.511H189.318C189.077 105.511 188.841 105.577 188.635 105.703C188.429 105.83 188.262 106.01 188.152 106.225C188.042 106.441 187.993 106.682 188.011 106.924C188.029 107.165 188.113 107.397 188.253 107.593L199.273 123.018L188.752 129.113C188.553 129.229 188.387 129.395 188.272 129.595C188.157 129.795 188.096 130.022 188.096 130.253V148.395C188.097 148.626 188.157 148.853 188.272 149.053C188.387 149.253 188.553 149.419 188.752 149.534C188.951 149.65 189.177 149.711 189.407 149.711C189.637 149.711 189.863 149.65 190.062 149.535L200.926 143.239V161.752C200.926 161.925 200.959 162.096 201.025 162.256C201.091 162.415 201.188 162.56 201.309 162.683C201.431 162.805 201.576 162.902 201.735 162.968C201.894 163.034 202.064 163.068 202.236 163.068H207.865V358.537C207.865 358.768 207.925 358.995 208.04 359.195C208.155 359.395 208.321 359.561 208.52 359.677L437.72 492.502C437.919 492.617 438.144 492.678 438.374 492.678C438.604 492.678 438.83 492.617 439.029 492.502L452.801 484.532C452.802 484.531 452.804 484.531 452.805 484.53L474.866 471.742C475.065 471.627 475.23 471.461 475.345 471.261C475.461 471.061 475.521 470.834 475.521 470.603V268.903C475.521 268.861 475.51 268.822 475.506 268.781Z" fill="#231F20"/>
<path d="M204.423 139.693L189.407 148.395V130.252L204.419 121.556L204.423 139.693Z" fill="#151517"/>
<path d="M474.21 470.604L452.149 483.391L445.456 278.591L474.21 268.903V470.604Z" fill="#0B0D1B"/>
<path d="M474.21 268.903L452.149 281.69L420.746 257.732L460.425 244.947L474.21 268.903Z" fill="#1A1E42"/>
<path d="M202.236 124.908H209.175L438.374 257.732L460.425 244.947L222.1 106.826H189.318L202.236 124.908Z" fill="#DED9D9"/>
<path d="M202.236 163.068C202.064 163.068 201.894 163.034 201.734 162.968C201.575 162.902 201.431 162.805 201.309 162.682C201.188 162.56 201.091 162.415 201.025 162.256C200.959 162.096 200.925 161.925 200.926 161.752L202.123 125.015C201.002 124.342 201.512 123.593 202.236 123.593H209.175C209.511 123.593 209.834 123.722 210.078 123.954C210.321 124.186 210.467 124.504 210.484 124.84L212.369 161.684C212.378 161.862 212.351 162.041 212.289 162.208C212.228 162.375 212.133 162.528 212.01 162.658C211.888 162.787 211.74 162.89 211.577 162.961C211.414 163.031 211.238 163.068 211.06 163.068H202.236Z" fill="#020202"/>
<path d="M211.06 161.753L200.926 161.752L202.095 124.908H209.175L211.06 161.753Z" fill="#1A2328"/>
<path d="M438.375 492.678C438.145 492.678 437.919 492.617 437.72 492.502L208.52 359.677C208.321 359.561 208.155 359.395 208.04 359.195C207.925 358.995 207.865 358.768 207.865 358.537V124.908C207.865 124.677 207.926 124.451 208.041 124.251C208.156 124.051 208.321 123.885 208.52 123.769C208.72 123.654 208.945 123.593 209.176 123.593C209.406 123.593 209.632 123.653 209.831 123.769L439.03 256.592C439.23 256.708 439.395 256.874 439.51 257.074L453.285 281.033C453.4 281.232 453.461 281.459 453.46 281.69V483.391C453.46 483.622 453.4 483.849 453.284 484.049C453.169 484.249 453.003 484.415 452.804 484.53L439.029 492.502C438.83 492.617 438.604 492.677 438.375 492.678Z" fill="#020202"/>
<path d="M207.865 124.909V358.538L438.375 491.363L452.149 483.391V281.691L438.375 257.733L207.865 124.909Z" fill="#D8D3D1"/>
<path d="M336.267 218.123L339.814 216.07L339.82 260.89L367.14 308.371L405.788 330.771L402.241 332.823L363.688 310.362L336.379 262.893L336.267 218.123Z" fill="#FBC788"/>
<path d="M436.967 291.126C436.964 291.087 436.959 291.051 436.952 291.012C436.929 290.862 436.88 290.717 436.807 290.583L436.807 290.582L423.035 266.624C423.034 266.622 423.032 266.621 423.031 266.619C422.974 266.52 422.904 266.43 422.823 266.349C422.734 266.28 422.644 266.211 422.555 266.142L194.013 133.705V131.196L202.095 124.909C202.567 124.635 188.866 105.569 188.663 105.687L160.85 121.807C160.651 121.923 160.485 122.089 160.37 122.289C160.255 122.489 160.195 122.716 160.195 122.947V375.584C160.195 375.815 160.255 376.042 160.37 376.242C160.485 376.442 160.651 376.608 160.85 376.724L399.186 514.84C399.385 514.956 399.611 515.016 399.841 515.016C400.071 515.016 400.297 514.956 400.497 514.84L414.272 506.856L436.327 494.072C436.526 493.956 436.692 493.79 436.807 493.59C436.922 493.39 436.982 493.163 436.982 492.932V291.24C436.982 291.201 436.971 291.165 436.967 291.126Z" fill="#231F20"/>
<path d="M399.841 280.063L314.468 220.388L161.505 141.942V375.584L399.841 513.7L413.616 505.717V304.014L399.841 280.063Z" fill="#1A1E42"/>
<path d="M412.962 304.189C412.732 304.19 412.505 304.129 412.306 304.014C412.106 303.898 411.941 303.732 411.826 303.532L399.361 281.86C399.188 281.558 399.141 281.199 399.231 280.862C399.321 280.525 399.54 280.237 399.841 280.063L421.899 267.281C422.2 267.107 422.558 267.06 422.894 267.15C423.23 267.241 423.516 267.461 423.69 267.763L436.152 289.442C436.325 289.745 436.372 290.104 436.282 290.441C436.192 290.778 435.973 291.065 435.672 291.24L413.616 304.013C413.417 304.129 413.192 304.19 412.962 304.189Z" fill="#020202"/>
<path d="M413.616 507.032C413.444 507.032 413.274 506.998 413.115 506.932C412.956 506.866 412.811 506.769 412.689 506.647C412.568 506.524 412.471 506.379 412.405 506.22C412.339 506.06 412.306 505.889 412.306 505.716V304.013C412.306 303.782 412.366 303.555 412.481 303.355C412.596 303.155 412.762 302.989 412.961 302.874L435.016 290.1C435.216 289.985 435.442 289.924 435.672 289.924C435.902 289.924 436.128 289.985 436.327 290.1C436.526 290.216 436.692 290.382 436.807 290.582C436.922 290.782 436.982 291.009 436.982 291.24V492.932C436.982 493.163 436.922 493.39 436.807 493.59C436.692 493.79 436.526 493.956 436.327 494.072L414.272 506.856C414.072 506.971 413.846 507.032 413.616 507.032Z" fill="#020202"/>
<path d="M435.671 492.932L413.616 505.717V304.014L435.671 291.24V492.932Z" fill="#0B0D1B"/>
<path d="M399.841 281.379C399.611 281.378 399.385 281.318 399.186 281.203L160.85 143.082C160.651 142.967 160.485 142.801 160.37 142.6C160.255 142.4 160.195 142.174 160.195 141.943V122.947C160.195 122.716 160.255 122.489 160.37 122.289C160.485 122.089 160.651 121.923 160.85 121.807L188.663 105.687C188.866 105.569 202.567 124.635 202.095 124.909L194.013 131.196V133.705L422.555 266.142C422.754 266.258 422.919 266.424 423.034 266.624C423.149 266.824 423.21 267.051 423.21 267.282C423.21 267.512 423.149 267.739 423.034 267.939C422.919 268.139 422.754 268.306 422.555 268.421L400.497 281.203C400.297 281.318 400.071 281.378 399.841 281.379Z" fill="#020202"/>
<path d="M189.318 106.826L161.505 122.947V141.942L399.841 280.063L421.9 267.282L192.702 134.463V130.436L202.023 123.593L200.681 115.303L189.318 106.826Z" fill="#DED9D9"/>
<path d="M435.672 291.24L413.616 304.014L399.841 280.063L421.899 267.281L435.672 291.24Z" fill="#1A1E42"/>
<path d="M486.328 329.911L474.868 323.27C474.669 323.155 474.443 323.094 474.213 323.094C473.983 323.094 473.757 323.155 473.557 323.27C473.358 323.386 473.193 323.552 473.078 323.752C472.963 323.952 472.902 324.179 472.902 324.41L472.9 336.937L413.616 371.293L370.228 346.149C370.029 346.034 369.803 345.973 369.573 345.973C369.343 345.973 369.117 346.034 368.918 346.149L357.446 352.803C357.444 352.804 357.443 352.805 357.442 352.806L348.951 357.717C348.751 357.832 348.585 357.998 348.47 358.198C348.355 358.398 348.294 358.625 348.294 358.856V394.921C348.294 395.152 348.355 395.379 348.47 395.579L356.966 410.355C357.082 410.555 357.247 410.721 357.446 410.836L401.495 436.362C401.529 436.382 401.568 436.391 401.604 436.407C401.641 436.425 401.677 436.44 401.716 436.454C401.855 436.506 402.002 436.535 402.15 436.538H425.081C425.226 436.535 425.37 436.508 425.507 436.457C425.546 436.443 425.582 436.427 425.62 436.41C425.658 436.393 425.699 436.383 425.736 436.362L486.328 401.24C486.527 401.124 486.693 400.958 486.808 400.758C486.923 400.558 486.983 400.331 486.983 400.1V331.05C486.983 330.819 486.923 330.592 486.808 330.392C486.693 330.192 486.527 330.026 486.328 329.911Z" fill="#231F20"/>
<path d="M485.673 331.051L474.213 324.409L474.21 337.696L413.616 372.812L369.572 347.289L358.102 353.942L360.985 360.535L400.88 383.138L425.844 382.773L481.245 350.186L485.673 344.337V331.051Z" fill="#DED9D9"/>
<path d="M402.15 436.537C401.816 436.538 401.495 436.41 401.252 436.18C401.009 435.95 400.862 435.636 400.842 435.302L398.724 399.998C398.72 399.926 398.721 399.854 398.728 399.782L400.846 379.313C400.88 378.989 401.032 378.69 401.272 378.472C401.513 378.254 401.826 378.134 402.15 378.134H425.081C425.379 378.134 425.668 378.236 425.9 378.422C426.132 378.609 426.295 378.87 426.36 379.162L430.011 395.538C430.042 395.672 430.051 395.81 430.038 395.947L426.387 435.344C426.356 435.67 426.205 435.974 425.964 436.194C425.723 436.415 425.408 436.537 425.081 436.537H402.15Z" fill="#231F20"/>
<path d="M425.081 379.45H402.151L400.032 399.919L402.151 435.222H425.081L428.732 395.826L425.081 379.45Z" fill="#1A1E42"/>
<path d="M402.15 436.538C401.92 436.538 401.694 436.478 401.495 436.362L357.446 410.837C357.247 410.721 357.082 410.555 356.966 410.355L348.47 395.58C348.355 395.379 348.294 395.153 348.294 394.922V358.856C348.294 358.625 348.355 358.398 348.47 358.198C348.585 357.998 348.751 357.832 348.951 357.717L357.448 352.803C357.647 352.688 357.872 352.627 358.102 352.627C358.332 352.627 358.557 352.688 358.756 352.803L402.805 378.311C403.005 378.426 403.17 378.592 403.285 378.792C403.4 378.992 403.461 379.219 403.46 379.45V435.223C403.461 435.396 403.427 435.567 403.361 435.726C403.295 435.886 403.199 436.031 403.077 436.153C402.955 436.275 402.811 436.372 402.652 436.438C402.493 436.504 402.322 436.538 402.15 436.538Z" fill="#231F20"/>
<path d="M402.151 379.451L358.102 353.942L349.605 358.856V394.921L358.102 409.697L402.151 435.222V379.451Z" fill="#D8D3D1"/>
<path d="M425.081 436.537C424.909 436.538 424.738 436.504 424.579 436.437C424.42 436.371 424.276 436.274 424.154 436.152C424.032 436.03 423.936 435.885 423.87 435.725C423.804 435.566 423.77 435.395 423.771 435.222V379.449C423.77 379.218 423.831 378.991 423.946 378.791C424.061 378.591 424.226 378.425 424.426 378.31L485.017 343.198C485.217 343.082 485.443 343.021 485.673 343.021C485.903 343.021 486.129 343.082 486.328 343.198C486.527 343.313 486.693 343.479 486.808 343.679C486.923 343.879 486.983 344.106 486.983 344.337V400.1C486.983 400.331 486.923 400.557 486.808 400.758C486.693 400.958 486.527 401.124 486.328 401.239L425.736 436.361C425.537 436.477 425.311 436.537 425.081 436.537Z" fill="#231F20"/>
<path d="M425.081 379.45L485.673 344.337V400.1L425.081 435.222V379.45Z" fill="#0B0D1B"/>
<path d="M376.53 374.952C373.583 373.251 370.502 372.352 367.622 372.352C362.552 372.352 358.532 375.094 356.84 379.781L355.568 384.346L355.568 384.346C355.505 384.507 355.451 384.678 355.394 384.845L348.437 388.878C348.434 388.879 348.433 388.882 348.431 388.884C345.869 390.379 344.341 393.513 344.341 397.692C344.32 405.664 349.921 415.394 356.823 419.383C358.883 420.578 360.881 421.184 362.761 421.184C364.213 421.206 365.639 420.791 366.854 419.991L373.443 416.184C373.652 416.224 373.86 416.268 374.066 416.296C374.097 416.302 374.121 416.324 374.152 416.328L382.62 417.373C383.207 417.462 383.8 417.507 384.394 417.509C388.657 417.509 393.745 415.013 393.771 403.116C393.752 391.891 387.146 381.099 376.53 374.952Z" fill="#231F20"/>
<path d="M358.102 380.136L356.83 384.7L359.969 390.099C361.731 397.335 366.002 404.736 371.431 409.832L374.312 415.023L382.811 416.071C389.524 417.069 392.441 411.903 392.46 403.119C392.441 391.853 385.572 381.707 375.878 376.093C368.14 371.629 360.492 373.53 358.102 380.136Z" fill="#C3C6C4"/>
<path d="M382.918 405.399C382.905 396.786 376.879 386.279 369.45 381.991C361.964 377.665 355.937 381.163 355.937 389.789C355.925 398.415 361.964 408.929 369.425 413.229C376.885 417.568 382.9 414.069 382.918 405.399Z" fill="#EEEFEE"/>
<path d="M377.099 412.554L365.807 419.077L349.092 390.017L360.378 383.475C362.523 382.238 365.48 382.408 368.751 384.321C375.262 388.072 380.571 397.298 380.578 404.85C380.578 408.651 379.25 411.297 377.099 412.554Z" fill="#C3C6C4"/>
<path d="M369.305 411.374C369.286 403.828 363.989 394.614 357.484 390.845C350.93 387.062 345.651 390.118 345.651 397.696C345.632 405.248 350.942 414.468 357.478 418.244C364.008 422.032 369.286 418.977 369.305 411.374Z" fill="#EEEFEE"/>
<path d="M351.954 405.88C351.954 404.402 350.929 402.608 349.646 401.876C348.382 401.131 347.356 401.744 347.356 403.227C347.35 404.692 348.382 406.473 349.646 407.206C350.929 407.951 351.954 407.364 351.954 405.88Z" fill="#C3C6C4"/>
<path d="M334.421 383.958C334.403 383.947 334.393 383.928 334.374 383.917L299.285 363.577C299.476 361.985 299.571 360.383 299.568 358.78C299.562 338.409 285.245 313.531 267.656 303.324C266.234 302.494 264.76 301.756 263.245 301.113V260.683C263.247 260.629 263.257 260.576 263.257 260.521C263.251 259.068 262.329 257.71 260.736 256.797C259.141 255.965 257.371 255.531 255.574 255.53C253.777 255.53 252.006 255.963 250.411 256.794C248.834 257.705 247.923 259.049 247.902 260.488C247.901 260.505 247.892 260.519 247.892 260.537V299.579C246.618 299.94 245.392 300.455 244.241 301.113L241.316 302.817C241.277 302.848 241.24 302.881 241.205 302.916C234.992 306.4 231.244 313.944 231.14 324.083L184.727 297.188C184.168 296.856 183.529 296.685 182.88 296.692C181.934 296.718 181.012 296.992 180.204 297.487C177.314 299.16 175.05 303.095 175.05 306.444C175.05 308.348 175.754 309.801 177.027 310.532L233.449 343.227C233.446 343.384 233.435 343.537 233.435 343.697C233.409 352.75 239.765 363.807 247.601 368.342C247.699 368.399 247.794 368.437 247.892 368.492V434.019C247.892 435.479 248.782 436.813 250.416 437.783C252.014 438.6 253.782 439.026 255.575 439.025C257.368 439.024 259.136 438.596 260.733 437.776C262.363 436.822 263.255 435.484 263.245 434.019V380.067C268.281 382.945 273.129 384.411 277.655 384.411H277.657C280.81 384.454 283.914 383.631 286.634 382.031C286.701 382.01 286.766 381.983 286.828 381.951L289.759 380.253C290.953 379.561 292.056 378.723 293.043 377.757L326.71 397.265C326.758 397.288 326.808 397.309 326.858 397.326C327.372 397.596 327.942 397.74 328.522 397.744C329.461 397.721 330.378 397.446 331.175 396.947C334.081 395.295 336.357 391.359 336.357 387.985C336.357 385.918 335.525 384.617 334.421 383.958Z" fill="#231F20"/>
<path opacity="0.3" d="M280.952 384.778C275.95 384.778 270.647 383.174 265.187 380.01C246.975 369.464 232.148 343.688 232.141 322.572C232.148 306.772 240.338 296.556 253.008 296.556C258.009 296.556 263.319 298.166 268.792 301.348C287.022 311.906 301.831 337.676 301.818 358.768C301.824 367.488 299.39 374.56 294.773 379.215C291.149 382.852 286.368 384.778 280.952 384.778Z" fill="#010101"/>
<path d="M289.105 379.114L286.173 380.812L285.934 380.415C280.675 382.006 274.145 381.021 266.986 376.898C249.743 366.914 235.752 342.565 235.733 322.585C235.778 314.294 238.174 308.099 242.188 304.317L241.974 303.957L244.899 302.252C250.542 298.968 258.374 299.436 266.998 304.462C284.235 314.464 298.251 338.795 298.258 358.781C298.27 368.783 294.76 375.843 289.105 379.114Z" fill="#D2D5D2"/>
<path d="M294.936 360.687C294.948 340.708 280.952 316.377 263.696 306.381C246.428 296.353 232.443 304.449 232.437 324.498C232.443 344.496 246.434 368.82 263.683 378.811C280.964 388.813 294.955 380.711 294.936 360.687Z" fill="#E0E2E0"/>
<path d="M239.004 346.241C238.774 346.241 238.548 346.18 238.349 346.065L177.027 310.532C175.754 309.801 175.05 308.348 175.05 306.444C175.05 303.095 177.314 299.16 180.204 297.487C181.012 296.992 181.934 296.717 182.88 296.692C183.529 296.684 184.168 296.856 184.727 297.188L246.026 332.709C246.327 332.884 246.547 333.171 246.637 333.508C246.727 333.845 246.68 334.204 246.506 334.507L240.139 345.583C240.053 345.733 239.939 345.864 239.802 345.969C239.666 346.074 239.51 346.152 239.343 346.196C239.233 346.226 239.119 346.241 239.004 346.241Z" fill="#231F20"/>
<path d="M184.055 298.317L245.371 333.85L239.004 344.926L177.682 309.393C176.858 308.92 176.361 307.897 176.361 306.444C176.361 303.584 178.374 300.066 180.859 298.627C182.117 297.906 183.243 297.831 184.055 298.317Z" fill="#D2D5D2"/>
<path d="M242.188 334.165C239.709 335.611 237.684 339.116 237.684 341.989C237.689 344.888 239.697 346.05 242.188 344.603C244.679 343.183 246.698 339.659 246.692 336.78C246.698 333.887 244.692 332.725 242.188 334.165Z" fill="#EEEFEE"/>
<path d="M255.57 439.025C253.775 439.056 252.001 438.629 250.416 437.782C248.781 436.813 247.892 435.479 247.892 434.018V362.935C247.892 362.762 247.926 362.591 247.991 362.431C248.057 362.272 248.154 362.127 248.276 362.004C248.397 361.882 248.542 361.785 248.701 361.719C248.86 361.653 249.03 361.619 249.202 361.619H261.934C262.106 361.619 262.277 361.653 262.436 361.719C262.595 361.785 262.739 361.882 262.861 362.004C262.983 362.127 263.079 362.272 263.145 362.431C263.211 362.591 263.245 362.762 263.245 362.935V434.018C263.255 435.484 262.362 436.822 260.733 437.776C259.146 438.627 257.369 439.057 255.57 439.025Z" fill="#231F20"/>
<path d="M261.934 434.019V362.936H249.202V434.019C249.202 434.967 249.831 435.908 251.064 436.64C253.561 438.067 257.581 438.067 260.073 436.64C261.324 435.908 261.941 434.967 261.934 434.019Z" fill="#D2D5D2"/>
<path d="M260.073 365.562C257.581 366.995 253.561 366.995 251.064 365.562C248.592 364.109 248.592 361.78 251.064 360.346C253.561 358.894 257.581 358.894 260.079 360.346C262.57 361.78 262.57 364.109 260.073 365.562Z" fill="#EEEFEE"/>
<path d="M257.808 369.473C257.693 369.473 257.579 369.458 257.469 369.428C257.133 369.338 256.846 369.118 256.672 368.815L237.555 335.581C237.381 335.279 237.334 334.92 237.424 334.583C237.514 334.246 237.733 333.959 238.034 333.784L253.453 324.836C254.729 324.112 256.173 323.74 257.639 323.758C259.757 323.758 262.014 324.442 264.349 325.788C272.15 330.295 278.506 341.338 278.519 350.406C278.526 355.102 276.877 358.635 273.875 360.353L258.463 369.297C258.264 369.412 258.038 369.473 257.808 369.473Z" fill="#231F20"/>
<path d="M273.226 359.209L257.808 368.157L238.69 334.923L254.109 325.975C256.575 324.554 259.953 324.769 263.696 326.929C271.151 331.235 277.196 341.774 277.209 350.407C277.215 354.764 275.699 357.795 273.226 359.209Z" fill="#C3C6C4"/>
<path d="M254.303 370.385C252.184 370.385 249.929 369.698 247.601 368.342C239.765 363.807 233.409 352.75 233.435 343.697C233.432 340.433 234.246 337.679 235.789 335.737C237.367 333.749 239.59 332.698 242.22 332.698C244.34 332.698 246.6 333.382 248.936 334.729C256.725 339.254 263.068 350.3 263.081 359.353C263.072 366.057 259.626 370.385 254.303 370.385H254.303Z" fill="#231F20"/>
<path d="M261.771 359.355C261.759 350.716 255.707 340.183 248.284 335.87C240.773 331.539 234.739 335.05 234.746 343.701C234.721 352.358 240.785 362.879 248.259 367.204C255.72 371.548 261.759 368.05 261.771 359.355Z" fill="#EEEFEE"/>
<path d="M327.365 397.44C327.135 397.44 326.909 397.379 326.71 397.264L265.375 361.726C264.125 361.012 263.4 359.529 263.392 357.662C263.392 354.312 265.655 350.377 268.543 348.7C269.356 348.199 270.285 347.921 271.238 347.895C271.876 347.887 272.505 348.053 273.057 348.374L334.374 383.916C334.675 384.091 334.894 384.378 334.985 384.715C335.075 385.051 335.028 385.41 334.855 385.712L328.501 396.781C328.415 396.931 328.301 397.063 328.164 397.168C328.027 397.274 327.871 397.351 327.705 397.395C327.594 397.425 327.48 397.44 327.365 397.44Z" fill="#231F20"/>
<path d="M272.396 349.51L333.719 385.056L327.365 396.125L266.03 360.586C265.212 360.119 264.709 359.096 264.702 357.656C264.702 354.789 266.722 351.278 269.2 349.839C270.471 349.106 271.591 349.037 272.396 349.51Z" fill="#D2D5D2"/>
<path d="M328.522 397.744C326.638 397.744 324.734 396.335 324.727 393.184C324.727 389.848 326.987 385.917 329.871 384.234C330.68 383.737 331.606 383.462 332.555 383.438C334.447 383.437 336.357 384.843 336.357 387.985C336.357 391.359 334.081 395.295 331.175 396.947C330.377 397.446 329.461 397.721 328.522 397.744Z" fill="#231F20"/>
<path d="M330.53 385.371C328.051 386.817 326.038 390.316 326.038 393.182C326.044 396.081 328.051 397.262 330.53 395.803C333.027 394.383 335.046 390.871 335.046 387.986C335.046 385.087 333.033 383.932 330.53 385.371Z" fill="#EEEFEE"/>
<path d="M255.57 336.625C253.772 336.656 251.996 336.224 250.411 335.37C248.785 334.42 247.892 333.088 247.892 331.614V260.537C247.892 260.364 247.926 260.193 247.991 260.034C248.057 259.874 248.154 259.729 248.276 259.607C248.397 259.485 248.542 259.388 248.701 259.322C248.86 259.256 249.03 259.222 249.202 259.222H261.934C262.106 259.222 262.277 259.256 262.436 259.322C262.595 259.388 262.739 259.485 262.861 259.607C262.983 259.729 263.079 259.874 263.145 260.034C263.211 260.193 263.245 260.364 263.245 260.537V331.614C263.254 333.093 262.359 334.43 260.724 335.371C259.142 336.225 257.367 336.657 255.57 336.625Z" fill="#231F20"/>
<path d="M261.934 331.614V260.536H249.202V331.614C249.202 332.574 249.831 333.509 251.064 334.228C253.561 335.668 257.581 335.668 260.073 334.228C261.324 333.509 261.941 332.574 261.934 331.614Z" fill="#D2D5D2"/>
<path d="M255.57 265.55C253.775 265.581 252.001 265.153 250.416 264.307C248.803 263.355 247.892 261.979 247.899 260.521C247.906 259.07 248.822 257.712 250.411 256.794C252.006 255.963 253.776 255.53 255.574 255.53C257.371 255.531 259.141 255.965 260.736 256.797C262.329 257.71 263.251 259.068 263.257 260.521C263.263 261.982 262.343 263.359 260.733 264.301C259.146 265.151 257.369 265.581 255.57 265.55Z" fill="#231F20"/>
<path d="M260.073 263.164C257.581 264.591 253.561 264.591 251.064 263.164C248.592 261.705 248.592 259.362 251.064 257.935C253.561 256.483 257.581 256.483 260.079 257.935C262.57 259.362 262.57 261.705 260.073 263.164Z" fill="#EEEFEE"/>
<g opacity="0.3" filter="url(#filter1_f_821_7055)">
<path d="M135.686 498.202V508.947L150.147 517.656H170.566L185.017 508.936V498.202L170.566 489.497H150.147L135.686 498.202Z" fill="#010101"/>
</g>
<g opacity="0.3" filter="url(#filter2_f_821_7055)">
<path d="M516 434.801V443.196L527.433 450H543.575L555 443.187V434.801L543.575 428H527.433L516 434.801Z" fill="#010101"/>
</g>
<path d="M184.686 502.532L184.68 491.31C184.68 491.141 184.635 490.975 184.551 490.829C184.467 490.682 184.346 490.561 184.2 490.476L170.529 482.53C170.382 482.445 170.216 482.401 170.047 482.4H150.645C150.476 482.4 150.31 482.445 150.164 482.529L136.459 490.475C136.313 490.56 136.191 490.682 136.107 490.829C136.023 490.975 135.978 491.142 135.979 491.311V507.892C135.978 508.061 136.023 508.227 136.107 508.374C136.191 508.52 136.313 508.642 136.459 508.727L150.164 516.678C150.186 516.691 150.21 516.696 150.233 516.707C150.26 516.72 150.287 516.731 150.315 516.741C150.42 516.783 150.532 516.806 150.645 516.808H170.047C170.16 516.806 170.273 516.783 170.378 516.741C170.405 516.731 170.431 516.721 170.457 516.708C170.481 516.697 170.506 516.692 170.529 516.678L184.206 508.727C184.352 508.642 184.473 508.52 184.557 508.373C184.641 508.227 184.686 508.061 184.686 507.892V502.533L184.686 502.533L184.686 502.532Z" fill="#231F20"/>
<path d="M170.047 515.843L183.724 507.891V502.533L167.827 507.124L170.047 515.843Z" fill="#F9C166"/>
<path d="M150.645 515.843L136.94 507.891V502.533L152.586 507.668L150.645 515.843Z" fill="#F9C166"/>
<path d="M150.645 515.844H170.047V510.478L160.903 507.124L150.645 510.478V515.844Z" fill="#FDB45C"/>
<path d="M136.94 502.534L150.645 510.478H170.047L183.724 502.534L183.719 491.312L170.047 483.365H150.645L136.94 491.312V502.534Z" fill="#FBD9A2"/>
<path d="M139.172 491.819V493.137L151.581 485.949H169.104L181.505 493.137V491.819L169.104 484.67L151.581 484.672L139.172 491.819Z" fill="#FDB45C"/>
<path d="M139.171 493.137V502.01L151.581 509.201H169.103L181.504 502.001V493.137L169.103 485.949H151.581L139.171 493.137Z" fill="#F9C166"/>
<path d="M164.423 499.777C164.537 499.574 164.601 499.346 164.609 499.113C164.617 498.88 164.569 498.649 164.469 498.438C165.781 498.517 167.088 498.215 168.232 497.569C169.245 496.987 169.77 496.324 169.807 495.579C169.843 494.835 169.398 494.207 168.473 493.693L167.963 493.411L170 492.24L168.871 491.614L166.834 492.785L166.329 492.505L168.366 491.334L167.237 490.708L165.201 491.879L164.362 491.414L163.985 491.206L161.811 490L159.834 491.137L162.009 492.342L153.151 497.434L150.977 496.228L149 497.365L151.175 498.57L151.551 498.779L152.39 499.244L150.486 500.338L151.615 500.964L153.519 499.869L154.023 500.149L152.12 501.243L153.249 501.869L155.153 500.775L156.018 501.255C157.08 501.805 158.271 502.059 159.466 501.989C160.728 501.977 161.966 501.647 163.068 501.03C163.629 500.749 164.099 500.314 164.423 499.777ZM167.045 495.681C166.996 495.885 166.9 496.074 166.764 496.234C166.629 496.394 166.459 496.521 166.266 496.603C165.771 496.882 165.216 497.039 164.648 497.059C164.124 497.106 163.598 497.004 163.129 496.765L160.498 495.307L163.865 493.371L166.497 494.83C166.906 495.056 167.088 495.34 167.045 495.681ZM159.605 500.423C159.05 500.476 158.491 500.371 157.994 500.119L155.008 498.463L158.595 496.401L161.581 498.057C161.761 498.124 161.915 498.249 162.017 498.413C162.12 498.576 162.166 498.768 162.149 498.96C162.095 499.176 161.992 499.376 161.849 499.546C161.705 499.715 161.525 499.849 161.321 499.938C160.795 500.232 160.207 500.399 159.605 500.423Z" fill="#1A1E42"/>
<path d="M555 437.905L554.995 428.919C554.995 428.784 554.96 428.651 554.892 428.534C554.825 428.417 554.728 428.319 554.611 428.252L543.665 421.889C543.547 421.821 543.414 421.785 543.279 421.785H527.743C527.608 421.785 527.475 421.821 527.358 421.888L516.385 428.251C516.268 428.319 516.171 428.416 516.103 428.534C516.036 428.651 516 428.784 516 428.92V442.196C516 442.332 516.036 442.465 516.103 442.582C516.171 442.699 516.268 442.797 516.385 442.865L527.358 449.231C527.376 449.242 527.396 449.246 527.414 449.255C527.436 449.265 527.457 449.274 527.479 449.282C527.564 449.315 527.653 449.333 527.743 449.336H543.279C543.37 449.334 543.459 449.315 543.544 449.282C543.566 449.274 543.586 449.266 543.607 449.256C543.626 449.247 543.647 449.242 543.665 449.231L554.616 442.865C554.733 442.797 554.83 442.699 554.897 442.582C554.965 442.465 555 442.332 555 442.196V437.905L555 437.905L555 437.905Z" fill="#231F20"/>
<path d="M543.279 448.563L554.23 442.195V437.905L541.501 441.581L543.279 448.563Z" fill="#F9C166"/>
<path d="M527.743 448.563L516.77 442.195V437.905L529.298 442.017L527.743 448.563Z" fill="#F9C166"/>
<path d="M527.743 448.563H543.279V444.266L535.957 441.581L527.743 444.266V448.563Z" fill="#FDB45C"/>
<path d="M516.77 437.906L527.743 444.267H543.279L554.23 437.906L554.226 428.921L543.279 422.558H527.743L516.77 428.921V437.906Z" fill="#FBD9A2"/>
<path d="M518.556 430.382V437.487L528.493 443.245H542.523L552.453 437.48V430.382L542.523 424.627H528.493L518.556 430.382Z" fill="#F9C166"/>
<path d="M518.557 429.327V430.382L528.493 424.627H542.523L552.453 430.382V429.327L542.523 423.603L528.493 423.604L518.557 429.327Z" fill="#FDB45C"/>
<g clip-path="url(#clip1_821_7055)">
<path d="M534.755 433.567L542.756 428.947L540.854 435.125L534.755 433.567Z" fill="#1A1E42"/>
<path d="M533.953 434.029L529.446 436.631L540.058 435.584L533.953 434.029Z" fill="#1A1E42"/>
<path d="M534.755 433.566L542.756 428.947L532.055 430.045L534.755 433.566Z" fill="#272C59"/>
<path d="M533.953 434.029L529.446 436.631L531.26 430.505L533.953 434.029Z" fill="#272C59"/>
</g>
<path d="M554.887 65.3233L541.194 55.1166C540.987 54.9629 540.744 54.866 540.489 54.8356C540.234 54.8051 539.976 54.8421 539.74 54.943L517.605 64.387C517.368 64.4882 517.162 64.65 517.008 64.8561L499.348 88.5227C499.195 88.7286 499.098 88.9715 499.068 89.227L496.287 113.176C496.257 113.431 496.296 113.69 496.398 113.926C496.5 114.163 496.662 114.368 496.869 114.522L517.094 129.613C517.3 129.767 517.543 129.864 517.799 129.895C518.054 129.925 518.313 129.888 518.549 129.787L540.721 120.307C540.757 120.292 540.786 120.267 540.821 120.249C540.861 120.228 540.898 120.205 540.937 120.18C541.083 120.09 541.212 119.974 541.318 119.839L558.977 96.1723C559.077 96.0317 559.152 95.8744 559.197 95.7077C559.209 95.6652 559.22 95.6246 559.228 95.5814C559.236 95.5422 559.253 95.5061 559.257 95.466L562.006 71.5458C562.036 71.2908 561.997 71.0325 561.895 70.7966C561.793 70.5606 561.631 70.3554 561.424 70.2015L554.888 65.3241L554.887 65.3239L554.887 65.3233Z" fill="#231F20"/>
<path d="M557.8 95.2934L560.548 71.3737L554.013 66.4972L545.144 90.0658L557.8 95.2934Z" fill="#F9C166"/>
<path d="M540.141 118.961L517.968 128.44L511.432 123.563L531.936 109.152L540.141 118.961Z" fill="#F9C166"/>
<path d="M540.141 118.961L557.8 95.2942L551.255 90.4104L538.842 98.5122L533.596 114.077L540.141 118.961Z" fill="#FDB45C"/>
<path d="M511.433 123.563L533.596 114.077L551.255 90.4101L554.013 66.4973L540.32 56.2901L518.184 65.7336L500.525 89.4005L497.744 113.35L511.433 123.563Z" fill="#FBD9A2"/>
<path d="M502.002 112.29L512.825 120.365L532.891 111.774L548.839 90.4004L551.343 68.7208L540.531 60.6534L520.477 69.2378L504.529 90.6112L502.002 112.29Z" fill="#F9C166"/>
<path d="M500.394 111.09L502.002 112.289L504.529 90.6104L520.477 69.2369L540.531 60.6528L538.924 59.4532L518.917 68.0726L502.971 89.4476L500.394 111.09Z" fill="#FDB45C"/>
<g clip-path="url(#clip2_821_7055)">
<path d="M525.265 91.2328L527.323 73.793L534.571 83.7136L525.265 91.2328Z" fill="#1A1E42"/>
<path d="M525.059 92.9808L523.899 102.804L534.367 85.448L525.059 92.9808Z" fill="#1A1E42"/>
<path d="M525.265 91.2324L527.323 73.7926L516.833 91.3428L525.265 91.2324Z" fill="#272C59"/>
<path d="M525.059 92.9804L523.899 102.803L516.628 93.0771L525.059 92.9804Z" fill="#272C59"/>
</g>
<defs>
<filter id="filter0_f_821_7055" x="128" y="312.269" width="370.551" height="237.6" filterUnits="userSpaceOnUse" color-interpolation-filters="sRGB">
<feFlood flood-opacity="0" result="BackgroundImageFix"/>
<feBlend mode="normal" in="SourceGraphic" in2="BackgroundImageFix" result="shape"/>
<feGaussianBlur stdDeviation="10" result="effect1_foregroundBlur_821_7055"/>
</filter>
<filter id="filter1_f_821_7055" x="131.686" y="485.497" width="57.3313" height="36.1592" filterUnits="userSpaceOnUse" color-interpolation-filters="sRGB">
<feFlood flood-opacity="0" result="BackgroundImageFix"/>
<feBlend mode="normal" in="SourceGraphic" in2="BackgroundImageFix" result="shape"/>
<feGaussianBlur stdDeviation="2" result="effect1_foregroundBlur_821_7055"/>
</filter>
<filter id="filter2_f_821_7055" x="512" y="424" width="47" height="30" filterUnits="userSpaceOnUse" color-interpolation-filters="sRGB">
<feFlood flood-opacity="0" result="BackgroundImageFix"/>
<feBlend mode="normal" in="SourceGraphic" in2="BackgroundImageFix" result="shape"/>
<feGaussianBlur stdDeviation="2" result="effect1_foregroundBlur_821_7055"/>
</filter>
<clipPath id="clip0_821_7055">
<rect width="587" height="340" fill="white" transform="translate(19 199)"/>
</clipPath>
<clipPath id="clip1_821_7055">
<rect width="10.1592" height="15.369" fill="white" transform="matrix(0.866044 0.499967 -0.866044 0.499967 538.357 426.407)"/>
</clipPath>
<clipPath id="clip2_821_7055">
<rect width="19.3097" height="29.2122" fill="white" transform="matrix(0.918631 -0.395116 -0.11721 0.993107 518.454 77.6074)"/>
</clipPath>
</defs>
</svg>
