<svg width="24" height="25" viewBox="0 0 24 25" fill="none" xmlns="http://www.w3.org/2000/svg">
<g clip-path="url(#clip0_3524_294)">
<path d="M22.2234 0.480469H1.77187C0.792187 0.480469 0 1.25391 0 2.21016V22.7461C0 23.7023 0.792187 24.4805 1.77187 24.4805H22.2234C23.2031 24.4805 24 23.7023 24 22.7508V2.21016C24 1.25391 23.2031 0.480469 22.2234 0.480469Z" fill="#98A2B3"/>
<path d="M12.0047 5.92194C14.1434 5.92194 14.3967 5.93132 15.2378 5.96884C16.0195 6.00324 16.4417 6.13456 16.7231 6.244C17.0952 6.38784 17.3641 6.56294 17.6424 6.84123C17.9238 7.12264 18.0958 7.38842 18.2396 7.76052C18.349 8.04193 18.4804 8.46718 18.5148 9.24576C18.5523 10.09 18.5617 10.3433 18.5617 12.4789C18.5617 14.6177 18.5523 14.8709 18.5148 15.7121C18.4804 16.4938 18.349 16.9159 18.2396 17.1973C18.0958 17.5694 17.9207 17.8383 17.6424 18.1166C17.361 18.398 17.0952 18.57 16.7231 18.7138C16.4417 18.8232 16.0164 18.9546 15.2378 18.989C14.3936 19.0265 14.1403 19.0359 12.0047 19.0359C9.86594 19.0359 9.61266 19.0265 8.77155 18.989C7.98984 18.9546 7.56772 18.8232 7.2863 18.7138C6.91421 18.57 6.6453 18.3949 6.36701 18.1166C6.0856 17.8352 5.91362 17.5694 5.76979 17.1973C5.66035 16.9159 5.52902 16.4906 5.49463 15.7121C5.4571 14.8678 5.44772 14.6145 5.44772 12.4789C5.44772 10.3402 5.4571 10.0869 5.49463 9.24576C5.52902 8.46405 5.66035 8.04193 5.76979 7.76052C5.91362 7.38842 6.08872 7.11951 6.36701 6.84123C6.64843 6.55981 6.91421 6.38784 7.2863 6.244C7.56772 6.13456 7.99296 6.00324 8.77155 5.96884C9.61266 5.93132 9.86594 5.92194 12.0047 5.92194ZM12.0047 4.48047C9.83154 4.48047 9.55951 4.48985 8.70588 4.52737C7.85538 4.56489 7.27067 4.70247 6.76412 4.89946C6.23568 5.10584 5.78855 5.37787 5.34454 5.82501C4.8974 6.26902 4.62537 6.71615 4.419 7.24146C4.22201 7.75114 4.08442 8.33273 4.0469 9.18322C4.00938 10.04 4 10.312 4 12.4852C4 14.6583 4.00938 14.9303 4.0469 15.784C4.08442 16.6345 4.22201 17.2192 4.419 17.7257C4.62537 18.2542 4.8974 18.7013 5.34454 19.1453C5.78855 19.5893 6.23568 19.8645 6.76099 20.0677C7.27067 20.2647 7.85226 20.4023 8.70275 20.4398C9.55638 20.4773 9.82841 20.4867 12.0016 20.4867C14.1747 20.4867 14.4467 20.4773 15.3004 20.4398C16.1509 20.4023 16.7356 20.2647 17.2421 20.0677C17.7674 19.8645 18.2146 19.5893 18.6586 19.1453C19.1026 18.7013 19.3778 18.2542 19.581 17.7289C19.778 17.2192 19.9156 16.6376 19.9531 15.7871C19.9906 14.9335 20 14.6614 20 12.4883C20 10.3151 19.9906 10.0431 19.9531 9.18948C19.9156 8.33898 19.778 7.75426 19.581 7.24772C19.384 6.71615 19.112 6.26902 18.6648 5.82501C18.2208 5.381 17.7737 5.10584 17.2484 4.90259C16.7387 4.7056 16.1571 4.56802 15.3066 4.5305C14.4499 4.48985 14.1778 4.48047 12.0047 4.48047Z" fill="white"/>
<path d="M12.0046 8.37305C9.73453 8.37305 7.89282 10.2148 7.89282 12.4848C7.89282 14.7549 9.73453 16.5966 12.0046 16.5966C14.2747 16.5966 16.1164 14.7549 16.1164 12.4848C16.1164 10.2148 14.2747 8.37305 12.0046 8.37305ZM12.0046 15.152C10.5319 15.152 9.33742 13.9576 9.33742 12.4848C9.33742 11.0121 10.5319 9.81764 12.0046 9.81764C13.4773 9.81764 14.6718 11.0121 14.6718 12.4848C14.6718 13.9576 13.4773 15.152 12.0046 15.152Z" fill="white"/>
<path d="M17.239 8.20994C17.239 8.7415 16.8075 9.16988 16.279 9.16988C15.7475 9.16988 15.3191 8.73837 15.3191 8.20994C15.3191 7.67838 15.7506 7.25 16.279 7.25C16.8075 7.25 17.239 7.6815 17.239 8.20994Z" fill="white"/>
</g>
<defs>
<clipPath id="clip0_3524_294">
<rect width="24" height="24" fill="white" transform="translate(0 0.480469)"/>
</clipPath>
</defs>
</svg>
