<svg width="24" height="25" viewBox="0 0 24 25" fill="none" xmlns="http://www.w3.org/2000/svg">
<g clip-path="url(#clip0_3524_291)">
<path d="M22.2234 0.480469H1.77187C0.792187 0.480469 0 1.25391 0 2.21016V22.7461C0 23.7023 0.792187 24.4805 1.77187 24.4805H22.2234C23.2031 24.4805 24 23.7023 24 22.7508V2.21016C24 1.25391 23.2031 0.480469 22.2234 0.480469ZM7.12031 20.932H3.55781V9.47578H7.12031V20.932ZM5.33906 7.91484C4.19531 7.91484 3.27188 6.99141 3.27188 5.85234C3.27188 4.71328 4.19531 3.78984 5.33906 3.78984C6.47813 3.78984 7.40156 4.71328 7.40156 5.85234C7.40156 6.98672 6.47813 7.91484 5.33906 7.91484ZM20.4516 20.932H16.8937V15.3633C16.8937 14.0367 16.8703 12.3258 15.0422 12.3258C13.1906 12.3258 12.9094 13.7742 12.9094 15.2695V20.932H9.35625V9.47578H12.7687V11.0414H12.8156C13.2891 10.1414 14.4516 9.18984 16.1813 9.18984C19.7859 9.18984 20.4516 11.5617 20.4516 14.6461V20.932Z" fill="#98A2B3"/>
</g>
<defs>
<clipPath id="clip0_3524_291">
<rect width="24" height="24" fill="white" transform="translate(0 0.480469)"/>
</clipPath>
</defs>
</svg>
