<svg width="120" height="30" viewBox="0 0 120 30" fill="none" xmlns="http://www.w3.org/2000/svg">
<g clip-path="url(#clip0_3524_263)">
<path d="M31.536 10.7109H43.6864V12.9779H38.9089V25.7215H36.2817V12.9779H31.5254V10.7109H31.536ZM43.1673 14.8529H45.4131V16.9503H45.4555C45.5296 16.6537 45.6673 16.3677 45.8686 16.0923C46.0699 15.8169 46.3135 15.552 46.5995 15.3296C46.8856 15.0965 47.2034 14.9164 47.5529 14.7681C47.9025 14.6304 48.2627 14.5563 48.6228 14.5563C48.8983 14.5563 49.0995 14.5669 49.2055 14.5775C49.3114 14.5881 49.4173 14.6092 49.5339 14.6198V16.9292C49.3644 16.8974 49.1949 16.8762 49.0148 16.855C48.8347 16.8338 48.6652 16.8232 48.4957 16.8232C48.0932 16.8232 47.7118 16.908 47.3517 17.0669C46.9915 17.2258 46.6843 17.4694 46.4195 17.7766C46.1546 18.0944 45.9428 18.4758 45.7839 18.9419C45.625 19.408 45.5508 19.9376 45.5508 20.5414V25.7109H43.1567V14.8529H43.1673ZM60.5402 25.7215H58.1885V24.2067H58.1462C57.8495 24.7575 57.4152 25.1919 56.8326 25.5203C56.25 25.8486 55.6567 26.0181 55.0529 26.0181C53.6228 26.0181 52.5847 25.6686 51.9491 24.9588C51.3135 24.2491 50.9957 23.1792 50.9957 21.7491V14.8529H53.3898V21.516C53.3898 22.4694 53.5699 23.1474 53.9406 23.5393C54.3008 23.9313 54.8199 24.1325 55.4767 24.1325C55.9851 24.1325 56.3983 24.0584 56.7372 23.8995C57.0762 23.7406 57.3517 23.5393 57.5529 23.2745C57.7648 23.0203 57.9131 22.7025 58.0084 22.3423C58.1038 21.9821 58.1462 21.5902 58.1462 21.1664V14.8635H60.5402V25.7215ZM64.6186 22.2364C64.6928 22.9355 64.9576 23.4228 65.4131 23.7088C65.8792 23.9842 66.43 24.1325 67.0762 24.1325C67.2987 24.1325 67.5529 24.1114 67.8389 24.0796C68.125 24.0478 68.4004 23.9736 68.644 23.8783C68.8983 23.783 69.0995 23.6347 69.269 23.444C69.4279 23.2533 69.5021 23.0097 69.4915 22.7025C69.4809 22.3953 69.3644 22.141 69.1525 21.9503C68.9406 21.7491 68.6758 21.6008 68.3474 21.4736C68.019 21.3571 67.6483 21.2512 67.2245 21.1664C66.8008 21.0817 66.3771 20.9864 65.9428 20.891C65.4978 20.7957 65.0635 20.6686 64.6504 20.5309C64.2372 20.3931 63.8665 20.2025 63.5381 19.9588C63.2097 19.7258 62.9449 19.4186 62.7542 19.0478C62.5529 18.677 62.4576 18.2215 62.4576 17.6707C62.4576 17.0775 62.6059 16.5902 62.8919 16.1876C63.1779 15.7851 63.5487 15.4673 63.983 15.2236C64.4279 14.98 64.9152 14.8105 65.4555 14.7046C65.9957 14.6092 66.5148 14.5563 67.0021 14.5563C67.5635 14.5563 68.1038 14.6198 68.6123 14.7364C69.1207 14.8529 69.5868 15.0436 70 15.319C70.4131 15.5838 70.7521 15.9334 71.0275 16.3571C71.3029 16.7809 71.4724 17.2999 71.5466 17.9037H69.0466C68.93 17.3317 68.6758 16.9398 68.2627 16.7491C67.8495 16.5478 67.3728 16.4525 66.8432 16.4525C66.6737 16.4525 66.4724 16.4631 66.2394 16.4948C66.0063 16.5266 65.7945 16.5796 65.5826 16.6537C65.3813 16.7279 65.2118 16.8444 65.0635 16.9927C64.9258 17.141 64.8517 17.3317 64.8517 17.5753C64.8517 17.872 64.9576 18.105 65.1589 18.2851C65.3601 18.4652 65.625 18.6135 65.9534 18.7406C66.2817 18.8571 66.6525 18.9631 67.0762 19.0478C67.5 19.1325 67.9343 19.2279 68.3792 19.3232C68.8135 19.4186 69.2372 19.5457 69.661 19.6834C70.0847 19.8211 70.4555 20.0118 70.7839 20.2554C71.1123 20.4991 71.3771 20.7957 71.5784 21.1559C71.7796 21.516 71.8856 21.9715 71.8856 22.5012C71.8856 23.1474 71.7373 23.6876 71.4406 24.1431C71.144 24.5881 70.7627 24.9588 70.2966 25.2342C69.8305 25.5097 69.3008 25.7215 68.7288 25.8486C68.1567 25.9758 67.5847 26.0393 67.0233 26.0393C66.3347 26.0393 65.6991 25.9652 65.1165 25.8063C64.5339 25.6474 64.0254 25.4143 63.6017 25.1071C63.1779 24.7893 62.8389 24.3974 62.5953 23.9313C62.3517 23.4652 62.2245 22.9037 62.2034 22.2575H64.6186V22.2364ZM72.5211 14.8529H74.3326V11.5902H76.7267V14.8529H78.8877V16.6431H76.7267V22.4482C76.7267 22.7025 76.7372 22.9143 76.7584 23.105C76.7796 23.2851 76.8326 23.444 76.9067 23.5711C76.9809 23.6982 77.0974 23.7936 77.2563 23.8571C77.4152 23.9207 77.6165 23.9525 77.8919 23.9525C78.0614 23.9525 78.2309 23.9525 78.4004 23.9419C78.5699 23.9313 78.7394 23.9101 78.9089 23.8677V25.7215C78.644 25.7533 78.3792 25.7745 78.1356 25.8063C77.8813 25.8381 77.6271 25.8486 77.3622 25.8486C76.7267 25.8486 76.2182 25.7851 75.8368 25.6686C75.4555 25.552 75.1483 25.372 74.9364 25.1389C74.7139 24.9059 74.5762 24.6198 74.4915 24.2703C74.4173 23.9207 74.3644 23.5181 74.3538 23.0732V16.6643H72.5423V14.8529H72.5211ZM80.5826 14.8529H82.8495V16.3253H82.8919C83.2309 15.6898 83.697 15.2448 84.3008 14.9694C84.9046 14.694 85.5508 14.5563 86.2605 14.5563C87.1186 14.5563 87.8601 14.7046 88.4957 15.0118C89.1313 15.3084 89.661 15.7215 90.0847 16.2512C90.5084 16.7809 90.8156 17.3953 91.0275 18.0944C91.2394 18.7936 91.3453 19.5457 91.3453 20.3402C91.3453 21.0711 91.25 21.7809 91.0593 22.4588C90.8686 23.1474 90.5826 23.7512 90.2012 24.2809C89.8199 24.8105 89.3326 25.2236 88.7394 25.5414C88.1461 25.8592 87.4576 26.0181 86.6525 26.0181C86.3029 26.0181 85.9533 25.9864 85.6038 25.9228C85.2542 25.8592 84.9152 25.7533 84.5974 25.6156C84.2796 25.4779 83.9724 25.2978 83.7076 25.0753C83.4322 24.8529 83.2097 24.5986 83.019 24.3126H82.9767V29.7364H80.5826V14.8529ZM88.9512 20.2978C88.9512 19.8105 88.8877 19.3338 88.7606 18.8677C88.6334 18.4016 88.4428 17.9991 88.1885 17.6389C87.9343 17.2787 87.6165 16.9927 87.2457 16.7809C86.8644 16.569 86.43 16.4525 85.9428 16.4525C84.9364 16.4525 84.1737 16.802 83.6652 17.5012C83.1567 18.2003 82.9025 19.1325 82.9025 20.2978C82.9025 20.8486 82.9661 21.3571 83.1038 21.8232C83.2415 22.2893 83.4322 22.6919 83.7076 23.0309C83.9724 23.3698 84.2902 23.6347 84.661 23.8253C85.0317 24.0266 85.4661 24.122 85.9534 24.122C86.5042 24.122 86.9597 24.0054 87.3411 23.783C87.7224 23.5605 88.0296 23.2639 88.2733 22.9143C88.5169 22.5542 88.697 22.1516 88.8029 21.6961C88.8983 21.2406 88.9512 20.7745 88.9512 20.2978ZM93.1779 10.7109H95.572V12.9779H93.1779V10.7109ZM93.1779 14.8529H95.572V25.7215H93.1779V14.8529ZM97.7118 10.7109H100.106V25.7215H97.7118V10.7109ZM107.447 26.0181C106.578 26.0181 105.805 25.8698 105.127 25.5838C104.449 25.2978 103.877 24.8953 103.4 24.3974C102.934 23.8889 102.574 23.2851 102.33 22.5859C102.087 21.8868 101.96 21.1135 101.96 20.2766C101.96 19.4503 102.087 18.6876 102.33 17.9885C102.574 17.2893 102.934 16.6855 103.4 16.177C103.866 15.6686 104.449 15.2766 105.127 14.9906C105.805 14.7046 106.578 14.5563 107.447 14.5563C108.316 14.5563 109.089 14.7046 109.767 14.9906C110.445 15.2766 111.017 15.6792 111.494 16.177C111.96 16.6855 112.32 17.2893 112.564 17.9885C112.807 18.6876 112.934 19.4503 112.934 20.2766C112.934 21.1135 112.807 21.8868 112.564 22.5859C112.32 23.2851 111.96 23.8889 111.494 24.3974C111.028 24.9059 110.445 25.2978 109.767 25.5838C109.089 25.8698 108.316 26.0181 107.447 26.0181ZM107.447 24.122C107.977 24.122 108.443 24.0054 108.835 23.783C109.227 23.5605 109.544 23.2639 109.799 22.9037C110.053 22.5436 110.233 22.1304 110.36 21.6749C110.477 21.2194 110.54 20.7533 110.54 20.2766C110.54 19.8105 110.477 19.355 110.36 18.8889C110.244 18.4228 110.053 18.0203 109.799 17.6601C109.544 17.2999 109.227 17.0139 108.835 16.7914C108.443 16.569 107.977 16.4525 107.447 16.4525C106.917 16.4525 106.451 16.569 106.059 16.7914C105.667 17.0139 105.35 17.3105 105.095 17.6601C104.841 18.0203 104.661 18.4228 104.534 18.8889C104.417 19.355 104.354 19.8105 104.354 20.2766C104.354 20.7533 104.417 21.2194 104.534 21.6749C104.65 22.1304 104.841 22.5436 105.095 22.9037C105.35 23.2639 105.667 23.5605 106.059 23.783C106.451 24.016 106.917 24.122 107.447 24.122ZM113.633 14.8529H115.445V11.5902H117.839V14.8529H120V16.6431H117.839V22.4482C117.839 22.7025 117.85 22.9143 117.871 23.105C117.892 23.2851 117.945 23.444 118.019 23.5711C118.093 23.6982 118.21 23.7936 118.369 23.8571C118.528 23.9207 118.729 23.9525 119.004 23.9525C119.174 23.9525 119.343 23.9525 119.513 23.9419C119.682 23.9313 119.852 23.9101 120.021 23.8677V25.7215C119.756 25.7533 119.491 25.7745 119.248 25.8063C118.994 25.8381 118.739 25.8486 118.475 25.8486C117.839 25.8486 117.33 25.7851 116.949 25.6686C116.568 25.552 116.261 25.372 116.049 25.1389C115.826 24.9059 115.689 24.6198 115.604 24.2703C115.53 23.9207 115.477 23.5181 115.466 23.0732V16.6643H113.655V14.8529H113.633Z" fill="#1A1E42"/>
<path d="M28.7394 10.7105H17.7648L14.375 0.265625L10.9746 10.7105L0 10.6999L8.88771 17.1618L5.48729 27.5961L14.375 21.1449L23.2521 27.5961L19.8623 17.1618L28.7394 10.7105Z" fill="#00B67A"/>
<path d="M20.625 19.5244L19.8623 17.1621L14.375 21.1452L20.625 19.5244Z" fill="#005128"/>
</g>
<defs>
<clipPath id="clip0_3524_263">
<rect width="120" height="29.4703" fill="white" transform="translate(0 0.265625)"/>
</clipPath>
</defs>
</svg>
