<svg width="24" height="25" viewBox="0 0 24 25" fill="none" xmlns="http://www.w3.org/2000/svg">
<g clip-path="url(#clip0_3524_287)">
<path d="M22.2234 0.480469H1.77187C0.792187 0.480469 0 1.25391 0 2.21016V22.7461C0 23.7023 0.792187 24.4805 1.77187 24.4805H22.2234C23.2031 24.4805 24 23.7023 24 22.7508V2.21016C24 1.25391 23.2031 0.480469 22.2234 0.480469Z" fill="#98A2B3"/>
<path d="M4.03906 4.48047L10.2162 13.3069L4 20.4801H5.39904L10.8416 14.1988L15.2402 20.4805H20L13.4749 11.1591L19.2611 4.48047H17.862L12.8499 10.2645L8.7998 4.48047H4.03906ZM6.09659 5.58172H8.28378L17.9415 19.3789H15.755L6.09659 5.58172Z" fill="white"/>
</g>
<defs>
<clipPath id="clip0_3524_287">
<rect width="24" height="24" fill="white" transform="translate(0 0.480469)"/>
</clipPath>
</defs>
</svg>
