<svg width="40" height="40" viewBox="0 0 40 40" fill="none" xmlns="http://www.w3.org/2000/svg">
<path d="M20.0209 1C14.8387 1 10.6448 5.19389 10.6448 10.3761V13.8902C8.82502 14.2196 7 14.6589 7 15.2289V33.568C7 33.568 7 34.0752 7.56999 34.3158C9.63556 35.1525 17.7619 38.0286 19.6287 38.6874C19.8693 38.7763 19.9372 38.7763 20 38.7763C20.0889 38.7763 20.1307 38.7763 20.3713 38.6874C22.2381 38.0286 30.3854 35.1525 32.4509 34.3158C32.9791 34.0961 33 33.5889 33 33.5889V15.2289C33 14.6589 31.2011 14.1987 29.3761 13.8902V10.3761C29.4023 5.19389 25.1822 1 20.0209 1ZM20.0209 5.4815C23.0748 5.4815 24.9208 7.32743 24.9208 10.3813V13.4352C21.4956 13.1947 18.5724 13.1947 15.1263 13.4352V10.3813C15.1263 7.3222 16.9722 5.4815 20.0209 5.4815ZM20 17.9324C24.2619 17.9324 27.8387 18.2619 27.8387 18.8528V30.2944C27.8387 30.4722 27.8178 30.4932 27.6609 30.5559C27.5093 30.6239 20.3922 33.1915 20.3922 33.1915C20.3922 33.1915 20.1046 33.2804 20.0209 33.2804C19.932 33.2804 19.6496 33.1706 19.6496 33.1706C19.6496 33.1706 12.5326 30.603 12.3809 30.535C12.2293 30.467 12.2031 30.4461 12.2031 30.2735V18.8319C12.1613 18.2409 15.7381 17.9324 20 17.9324Z" fill="#98A2B3"/>
</svg>
