<svg width="40" height="40" viewBox="0 0 40 40" fill="none" xmlns="http://www.w3.org/2000/svg">
<g clip-path="url(#clip0_3498_386)">
<path fill-rule="evenodd" clip-rule="evenodd" d="M15.2933 11.5907C14.3644 12.7821 13.4727 14.0858 12.6425 15.4875C11.7806 16.9428 11.0431 18.4056 10.431 19.8441C11.0434 21.2838 11.7813 22.7478 12.644 24.2043C13.4746 25.6066 14.3668 26.9109 15.2961 28.1028C16.7947 28.2949 18.3709 28.3978 20 28.3978C21.6292 28.3978 23.2055 28.2949 24.7041 28.1028C25.6339 26.9105 26.5265 25.6057 27.3574 24.2028C28.2198 22.7468 28.9575 21.2833 29.5697 19.8441C28.9578 18.4061 28.2205 16.9438 27.3589 15.4889C26.5283 14.0867 25.6362 12.7826 24.707 11.5908C23.2075 11.3984 21.6303 11.2954 20 11.2954C18.3698 11.2954 16.7927 11.3984 15.2933 11.5907ZM12.7789 12.0105C12.2031 12.8304 11.6475 13.6897 11.1177 14.5843C10.5407 15.5584 10.0152 16.539 9.54215 17.5176C9.04328 16.0436 8.68348 14.6156 8.46384 13.2701C9.76426 12.7615 11.2141 12.3352 12.7789 12.0105ZM16.9356 9.64106C17.9356 9.56334 18.9591 9.52314 20 9.52314C21.0409 9.52314 22.0645 9.56334 23.0644 9.64107C22.0587 8.53817 21.0279 7.56661 19.9998 6.74265C18.9718 7.56666 17.9411 8.53822 16.9356 9.64106ZM18.5241 5.65993C17.0956 6.84974 15.6844 8.28775 14.3481 9.93254C12.1334 10.2619 10.0748 10.7809 8.24885 11.4558C7.98644 7.76108 8.93502 5.21631 10.7126 4.16348C12.5054 3.10163 15.2238 3.50867 18.3718 5.55965C18.4225 5.59269 18.4733 5.62611 18.5241 5.65993ZM21.4754 5.65976C22.9041 6.84955 24.3156 8.28762 25.6521 9.93258C27.8672 10.262 29.9262 10.7812 31.7524 11.4563C32.0153 7.76049 31.0667 5.21501 29.2888 4.162C27.496 3.10015 24.7776 3.50719 21.6296 5.55817C21.5782 5.59163 21.5268 5.6255 21.4754 5.65976ZM33.4699 12.169C33.4862 12.0063 33.5004 11.8447 33.5127 11.6844C33.8135 7.73795 32.8836 4.23136 30.192 2.63713C27.5003 1.04291 23.9783 1.91271 20.6621 4.07326C20.4415 4.217 20.2206 4.36713 19.9996 4.5235C19.7794 4.36767 19.5592 4.21803 19.3392 4.07473C16.0231 1.91419 12.5011 1.04439 9.80943 2.63861C7.11777 4.23284 6.18784 7.73943 6.48874 11.6859C6.50091 11.8455 6.51511 12.0064 6.53132 12.1685C6.38286 12.2375 6.23645 12.3076 6.09215 12.3788C2.54323 14.1311 0 16.7182 0 19.8466C0 22.975 2.54323 25.5621 6.09215 27.3143C6.23595 27.3853 6.38185 27.4552 6.52978 27.5239C6.51359 27.6858 6.49942 27.8464 6.48726 28.0059C6.18637 31.9523 7.11629 35.4589 9.80795 37.0532C12.4996 38.6474 16.0216 37.7776 19.3378 35.617C19.5582 35.4734 19.7789 35.3234 19.9996 35.1672C20.2211 35.324 20.4425 35.4744 20.6636 35.6185C23.9798 37.7791 27.5018 38.6489 30.1934 37.0546C32.8851 35.4604 33.815 31.9538 33.5141 28.0074C33.5019 27.8473 33.4877 27.6859 33.4714 27.5234C33.6189 27.4548 33.7644 27.3851 33.9079 27.3143C37.4568 25.5621 40 22.975 40 19.8466C40 16.7182 37.4568 14.1311 33.9079 12.3788C33.7639 12.3078 33.6179 12.2378 33.4699 12.169ZM31.5372 13.2705C30.2367 12.7618 28.7866 12.3354 27.2215 12.0106C27.7977 12.8309 28.3535 13.6906 28.8837 14.5858C29.4604 15.5595 29.9857 16.5397 30.4586 17.5178C30.9576 16.044 31.3175 14.616 31.5372 13.2705ZM31.4872 19.844C32.2921 17.8363 32.8688 15.8664 33.2078 14.01C36.5212 15.6672 38.2277 17.7804 38.2277 19.8466C38.2277 21.9124 36.5218 24.0253 33.2094 25.6824C32.8702 23.8246 32.293 21.8532 31.4872 19.844ZM30.4589 22.1703C29.9856 23.1497 29.4597 24.1311 28.8823 25.106C28.3516 26.0018 27.7953 26.8622 27.2187 27.6832C28.7854 27.3581 30.237 26.9313 31.5388 26.422C31.3189 25.0753 30.9586 23.6457 30.4589 22.1703ZM31.7539 28.2363C29.9266 28.912 27.866 29.4315 25.6492 29.761C24.3134 31.4047 22.9029 32.8418 21.4752 34.0309C21.5272 34.0655 21.5792 34.0998 21.6311 34.1336C24.7791 36.1846 27.4975 36.5916 29.2903 35.5298C31.068 34.4768 32.0166 31.9317 31.7539 28.2363ZM19.9998 32.9479C21.0269 32.1246 22.0567 31.154 23.0615 30.0523C22.0624 30.1299 21.0399 30.17 20 30.17C18.9601 30.17 17.9376 30.1299 16.9386 30.0523C17.9431 31.154 18.9728 32.1246 19.9998 32.9479ZM12.7817 27.6833C12.2055 26.8627 11.6494 26.0028 11.1191 25.1074C10.5415 24.1322 10.0154 23.1504 9.54189 22.1706C9.04229 23.6461 8.68204 25.0756 8.46224 26.4224C9.76386 26.9316 11.2153 27.3583 12.7817 27.6833ZM8.24732 28.2368C10.0744 28.9123 12.1346 29.4316 14.3511 29.761C15.6865 31.4046 17.0967 32.8416 18.5242 34.0307C18.4729 34.0649 18.4216 34.0987 18.3703 34.1321C15.2223 36.1831 12.5039 36.5901 10.7111 35.5283C8.93367 34.4755 7.98511 31.9311 8.24732 28.2368ZM6.79162 25.6829C7.13073 23.825 7.70781 21.8534 8.51361 19.844C7.70867 17.8361 7.13212 15.866 6.7932 14.0095C3.47913 15.6667 1.77226 17.7802 1.77226 19.8466C1.77226 21.9126 3.47858 24.0258 6.79162 25.6829Z" fill="#98A2B3"/>
<path d="M22.428 22.7262H20.6202V23.9934H19.8582V22.744C19.6632 22.744 19.4594 22.744 19.2467 22.7351V23.9846H18.4847V22.7174C18.3074 22.7174 18.1214 22.7174 17.9441 22.7085H16.9517L17.1023 21.7958C17.1023 21.7958 17.6694 21.8047 17.6517 21.7958C17.8644 21.7958 17.9264 21.6363 17.9353 21.5477V18.1184C17.9087 17.9677 17.8023 17.7816 17.5011 17.7816C17.5099 17.7728 16.9517 17.7816 16.9517 17.7816V16.9664H18.0062C18.1657 16.9664 18.3252 16.9664 18.4935 16.9575V15.7081H19.2556V16.9309C19.4594 16.9309 19.6632 16.9221 19.867 16.9221V15.6992H20.6291V16.9487H22.4457C22.4457 16.9487 22.4457 17.8082 22.4457 17.7639H19.2822V19.3412H21.852V20.1122H19.2822V21.7604H22.295L22.428 22.7262Z" fill="#667085"/>
</g>
<defs>
<clipPath id="clip0_3498_386">
<rect width="40" height="40" fill="white"/>
</clipPath>
</defs>
</svg>
