<svg width="541" height="619" viewBox="0 0 541 619" fill="none" xmlns="http://www.w3.org/2000/svg">
<g opacity="0.2" filter="url(#filter0_f_821_6824)">
<path d="M329.422 558.645L53 394.088L141.015 340.86L417.435 505.408L329.422 558.645Z" fill="#010101"/>
</g>
<path d="M414.078 270.888C414.074 270.853 414.071 270.82 414.065 270.786C414.04 270.623 413.987 270.467 413.909 270.322C413.904 270.314 413.905 270.305 413.9 270.297L398.702 243.894C398.701 243.891 398.698 243.89 398.697 243.887C398.634 243.779 398.558 243.68 398.47 243.592C398.41 243.537 398.345 243.487 398.277 243.443C398.241 243.418 398.211 243.385 398.173 243.363L135.418 91.1334C135.198 91.0062 134.949 90.9393 134.696 90.9395H98.5533C98.2875 90.9394 98.0269 91.0129 97.8 91.1519C97.5732 91.2909 97.3889 91.4899 97.2676 91.7272C97.1462 91.9645 97.0924 92.2307 97.1121 92.4967C97.1318 92.7627 97.2243 93.018 97.3793 93.2347L109.528 110.235L97.9289 116.953C97.7092 117.08 97.5267 117.263 97.3999 117.484C97.2731 117.704 97.2064 117.954 97.2065 118.209V138.205C97.2065 138.459 97.2733 138.709 97.4001 138.93C97.527 139.15 97.7093 139.333 97.929 139.46C98.1486 139.587 98.3977 139.654 98.6513 139.655C98.905 139.655 99.1541 139.588 99.3738 139.461L111.351 132.521V152.926C111.351 153.116 111.388 153.305 111.461 153.481C111.533 153.657 111.64 153.817 111.774 153.951C111.908 154.086 112.067 154.193 112.243 154.266C112.418 154.339 112.606 154.376 112.796 154.376H119.001V369.813C119.001 370.067 119.068 370.317 119.195 370.538C119.322 370.758 119.504 370.941 119.724 371.069L372.417 517.462C372.637 517.589 372.886 517.656 373.139 517.656C373.392 517.656 373.641 517.589 373.861 517.462L389.044 508.678C389.046 508.677 389.048 508.677 389.049 508.676L413.371 494.582C413.591 494.454 413.773 494.271 413.9 494.051C414.027 493.83 414.094 493.58 414.094 493.326V271.022C414.094 270.976 414.082 270.933 414.078 270.888Z" fill="#231F20"/>
<path d="M115.206 128.613L98.6519 138.204V118.208L115.202 108.623L115.206 128.613Z" fill="#151517"/>
<path d="M412.649 493.327L388.326 507.42L380.947 281.699L412.649 271.022V493.327Z" fill="#0B0D1B"/>
<path d="M412.649 271.022L388.327 285.115L353.705 258.71L397.45 244.619L412.649 271.022Z" fill="#1A1E42"/>
<path d="M112.796 112.319H120.446L373.139 258.71L397.45 244.62L134.696 92.3896H98.5537L112.796 112.319Z" fill="#DED9D9"/>
<path d="M112.796 154.376C112.606 154.376 112.418 154.339 112.243 154.266C112.067 154.193 111.908 154.087 111.774 153.952C111.64 153.817 111.533 153.657 111.461 153.481C111.388 153.306 111.351 153.117 111.351 152.927L112.671 112.436C111.435 111.695 111.998 110.869 112.796 110.869H120.446C120.817 110.869 121.173 111.012 121.441 111.268C121.71 111.523 121.87 111.873 121.889 112.244L123.967 152.851C123.977 153.048 123.947 153.244 123.879 153.429C123.811 153.613 123.707 153.782 123.572 153.925C123.437 154.067 123.274 154.181 123.094 154.259C122.914 154.336 122.72 154.376 122.524 154.376H112.796Z" fill="#020202"/>
<path d="M122.524 152.926L111.351 152.926L112.64 112.318H120.446L122.524 152.926Z" fill="#1A2328"/>
<path d="M373.14 517.656C372.886 517.656 372.637 517.589 372.417 517.462L119.724 371.069C119.504 370.942 119.322 370.759 119.195 370.538C119.068 370.318 119.001 370.068 119.001 369.813V112.319C119.002 112.065 119.068 111.815 119.195 111.594C119.322 111.374 119.504 111.191 119.724 111.064C119.944 110.936 120.193 110.869 120.446 110.869C120.7 110.869 120.949 110.936 121.169 111.063L373.862 257.455C374.082 257.582 374.265 257.765 374.391 257.986L389.578 284.391C389.705 284.612 389.772 284.862 389.772 285.116V507.42C389.772 507.675 389.705 507.925 389.578 508.146C389.451 508.366 389.268 508.549 389.048 508.676L373.861 517.462C373.642 517.589 373.393 517.656 373.14 517.656Z" fill="#020202"/>
<path d="M119.001 112.318V369.812L373.14 516.206L388.326 507.419V285.115L373.14 258.71L119.001 112.318Z" fill="#D8D3D1"/>
<path d="M258.928 142.785C258.894 142.58 258.841 142.379 258.769 142.184C258.761 142.168 258.762 142.15 258.753 142.135L225.421 84.198C225.411 84.1808 225.396 84.1689 225.386 84.1523C225.37 84.1282 225.351 84.1095 225.335 84.0862C225.22 83.9205 225.072 83.7808 224.9 83.6759C224.896 83.6736 224.895 83.6692 224.891 83.667L177.764 56.4118C177.544 56.2847 177.295 56.2178 177.042 56.2178C176.789 56.2178 176.54 56.2847 176.32 56.4118L160.427 65.6086L160.425 65.6096L127.149 84.8989C126.929 85.0261 126.746 85.2092 126.62 85.4297C126.493 85.6501 126.426 85.9002 126.426 86.1548L126.404 140.722C126.404 140.976 126.47 141.226 126.597 141.447L159.929 199.387C160.056 199.608 160.239 199.791 160.46 199.918L207.514 227.101C207.733 227.228 207.982 227.295 208.235 227.295C208.489 227.295 208.737 227.228 208.957 227.101L242.251 207.832L242.254 207.831L258.148 198.626C258.368 198.499 258.55 198.316 258.677 198.096C258.804 197.876 258.87 197.626 258.871 197.372L258.946 142.861C258.946 142.835 258.93 142.812 258.928 142.785Z" fill="#231F20"/>
<path d="M257.501 142.86L257.426 197.371L241.531 206.575L227.824 151.215L257.501 142.86Z" fill="#F9C166"/>
<path d="M224.169 84.9233L177.042 57.668L161.148 66.866L203.254 104.768L224.169 84.9233Z" fill="#F9C166"/>
<path d="M224.169 84.9238L257.501 142.861L241.582 152.086L215.949 130.551L208.247 94.1432L224.169 84.9238Z" fill="#FDB45C"/>
<path d="M127.871 86.1543L127.848 140.723L161.181 198.662L208.235 225.845L241.531 206.575L241.582 152.086L208.247 94.143L161.148 66.8662L127.871 86.1543Z" fill="#FBD9A2"/>
<path d="M137.125 139.078L167.231 191.403L209.853 216.088L236.14 200.861L236.186 151.466L206.069 99.1261L163.437 74.4316L137.117 89.6739L137.125 139.078Z" fill="#F9C166"/>
<path d="M133.201 91.9477L137.117 89.6738L137.124 139.078L167.231 191.403L209.853 216.088L205.936 218.362L163.437 193.61L133.335 141.285L133.201 91.9477Z" fill="#FDB45C"/>
<path d="M386.297 269.899C386.286 269.756 386.253 269.616 386.2 269.482C386.184 269.419 386.163 269.357 386.138 269.296C386.129 269.281 386.13 269.263 386.121 269.247L352.783 211.313C352.775 211.299 352.76 211.291 352.751 211.277C352.714 211.228 352.673 211.182 352.63 211.139C352.54 211.023 352.433 210.922 352.313 210.84C352.289 210.824 352.277 210.796 352.252 210.782L305.124 183.527C304.904 183.4 304.655 183.333 304.402 183.333C304.149 183.333 303.9 183.4 303.68 183.527L287.788 192.735L254.504 212.01C254.284 212.137 254.102 212.32 253.975 212.541C253.848 212.761 253.781 213.011 253.781 213.266L253.766 267.834C253.766 268.089 253.833 268.339 253.96 268.559L287.295 326.512C287.422 326.733 287.605 326.917 287.826 327.044L334.871 354.209C335.091 354.335 335.339 354.402 335.592 354.402C335.845 354.401 336.094 354.334 336.313 354.208L369.62 334.949L369.625 334.947L385.509 325.736C385.728 325.609 385.91 325.426 386.037 325.206C386.164 324.986 386.231 324.737 386.231 324.483L386.315 269.975C386.315 269.948 386.298 269.926 386.297 269.899Z" fill="#231F20"/>
<path d="M384.87 269.973L384.786 324.481L368.903 333.691L355.193 278.327L384.87 269.973Z" fill="#F9C166"/>
<path d="M351.532 212.04L304.402 184.784L288.51 193.991L330.62 231.893L351.532 212.04Z" fill="#F9C166"/>
<path d="M351.532 212.039L384.87 269.973L368.948 279.198L343.312 257.663L335.616 221.264L351.532 212.039Z" fill="#FDB45C"/>
<path d="M255.226 213.266L255.211 267.835L288.546 325.786L335.592 352.951L368.903 333.691L368.948 279.198L335.616 221.264L288.51 193.99L255.226 213.266Z" fill="#FBD9A2"/>
<path d="M264.483 266.19L294.603 318.521L337.213 343.209L363.504 327.973L363.537 278.578L333.428 226.247L290.797 201.544L264.477 216.792L264.483 266.19Z" fill="#F9C166"/>
<path d="M260.566 215.054L264.477 212.792L264.483 262.19L294.603 314.521L337.213 339.209L333.302 341.471L290.797 316.716L260.689 264.397L260.566 215.054Z" fill="#FBC788"/>
<path d="M376.391 86.564C376.358 86.3607 376.305 86.1611 376.233 85.9682C376.225 85.9529 376.226 85.9351 376.217 85.9201L342.876 27.9802C342.866 27.9631 342.851 27.9513 342.841 27.9348C342.826 27.9107 342.807 27.892 342.79 27.8687C342.674 27.7002 342.524 27.5585 342.349 27.4529C342.348 27.452 342.347 27.4501 342.345 27.4492L342.341 27.4468L342.331 27.4409L295.219 0.193982C294.999 0.0668943 294.75 0 294.497 0C294.243 0 293.994 0.0668943 293.775 0.193982L277.88 9.39753L244.605 28.6825C244.386 28.8098 244.203 28.9928 244.076 29.2133C243.949 29.4338 243.883 29.6839 243.883 29.9384L243.862 84.5127C243.862 84.7671 243.929 85.0172 244.056 85.2376L277.388 143.178C277.515 143.399 277.698 143.582 277.919 143.71L324.976 170.875C325.195 171.001 325.444 171.067 325.697 171.067C325.95 171.067 326.198 171 326.418 170.873L359.713 151.611L359.718 151.609L375.601 142.411C375.82 142.284 376.002 142.102 376.128 141.882C376.255 141.662 376.322 141.412 376.323 141.158L376.411 86.6479C376.411 86.6184 376.393 86.5933 376.391 86.564Z" fill="#231F20"/>
<path d="M374.966 86.6445L374.878 141.156L358.996 150.354L345.285 95.002L374.966 86.6445Z" fill="#F9C166"/>
<path d="M341.625 28.7046L294.497 1.44922L278.603 10.653L320.713 48.5523L341.625 28.7046Z" fill="#F9C166"/>
<path d="M341.625 28.7051L374.966 86.6447L359.035 95.8669L333.395 74.3324L325.703 37.9303L341.625 28.7051Z" fill="#FDB45C"/>
<path d="M245.328 29.9386L245.307 84.5128L278.639 142.453L325.697 169.618L358.996 150.354L359.035 95.8668L325.702 37.93L278.603 10.6533L245.328 29.9386Z" fill="#FBD9A2"/>
<path d="M254.581 82.8613L284.689 135.186L327.312 159.88L353.593 144.644L353.647 95.2404L323.518 42.9126L280.89 18.2119L254.569 33.4576L254.581 82.8613Z" fill="#F9C166"/>
<path d="M250.661 35.7258L254.569 33.458L254.581 82.8618L284.689 135.187L327.311 159.881L323.4 162.14L280.89 137.391L250.788 85.0602L250.661 35.7258Z" fill="#FDB45C"/>
<path d="M371.588 295.515C371.584 295.472 371.579 295.432 371.571 295.39C371.546 295.224 371.492 295.064 371.412 294.917L371.411 294.916L356.227 268.51C356.226 268.508 356.224 268.506 356.223 268.504C356.16 268.396 356.083 268.296 355.994 268.207C355.896 268.131 355.797 268.055 355.698 267.979L103.729 122.013V119.248L112.64 112.318C113.16 112.017 98.0553 91.0031 97.8309 91.1334L67.167 108.901C66.9473 109.028 66.7649 109.211 66.6381 109.431C66.5113 109.652 66.4445 109.902 66.4446 110.156V388.601C66.4445 388.855 66.5113 389.105 66.6381 389.326C66.7649 389.546 66.9473 389.729 67.167 389.857L329.934 542.082C330.154 542.209 330.403 542.276 330.656 542.276C330.91 542.276 331.159 542.209 331.379 542.082L346.566 533.282L370.882 519.192C371.102 519.065 371.284 518.882 371.411 518.661C371.538 518.441 371.605 518.191 371.605 517.936V295.641C371.605 295.598 371.592 295.558 371.588 295.515Z" fill="#231F20"/>
<path d="M330.656 283.323L236.532 217.552L67.8894 131.093V388.601L330.656 540.826L345.843 532.027V309.72L330.656 283.323Z" fill="#1A1E42"/>
<g clip-path="url(#clip0_821_6824)">
<path d="M178.462 159.901L181.341 114.506L197.683 156.254L178.462 159.901Z" fill="#1A1E42"/>
<path d="M178.173 164.451L176.553 190.02L197.397 160.767L178.173 164.451Z" fill="#1A1E42"/>
<path d="M178.462 159.902L181.341 114.506L160.464 144.264L178.462 159.902Z" fill="#272C59"/>
<path d="M178.173 164.451L176.553 190.02L160.178 148.777L178.173 164.451Z" fill="#272C59"/>
</g>
<path d="M345.122 309.913C344.868 309.914 344.619 309.847 344.399 309.72C344.179 309.592 343.996 309.409 343.869 309.188L330.127 285.303C329.936 284.97 329.884 284.574 329.983 284.203C330.083 283.831 330.325 283.514 330.656 283.322L354.976 269.235C355.308 269.043 355.702 268.991 356.072 269.09C356.442 269.19 356.758 269.433 356.95 269.766L370.689 293.66C370.88 293.993 370.932 294.389 370.833 294.76C370.734 295.131 370.492 295.448 370.16 295.641L345.843 309.719C345.624 309.846 345.376 309.913 345.122 309.913Z" fill="#020202"/>
<path d="M345.843 533.476C345.654 533.476 345.466 533.439 345.29 533.366C345.115 533.293 344.956 533.186 344.821 533.051C344.687 532.917 344.581 532.757 344.508 532.581C344.436 532.405 344.398 532.216 344.398 532.026V309.719C344.398 309.465 344.465 309.215 344.592 308.994C344.719 308.774 344.901 308.591 345.121 308.463L369.437 294.385C369.657 294.257 369.906 294.19 370.16 294.19C370.413 294.19 370.663 294.257 370.882 294.385C371.102 294.512 371.284 294.695 371.411 294.916C371.538 295.136 371.605 295.386 371.605 295.641V517.936C371.605 518.191 371.538 518.441 371.411 518.661C371.284 518.882 371.102 519.065 370.882 519.192L346.566 533.282C346.346 533.409 346.097 533.476 345.843 533.476Z" fill="#020202"/>
<path d="M370.16 517.937L345.843 532.027V309.72L370.16 295.642V517.937Z" fill="#0B0D1B"/>
<path d="M330.656 284.772C330.403 284.772 330.154 284.705 329.934 284.578L67.167 132.348C66.9473 132.221 66.7649 132.038 66.6381 131.818C66.5113 131.597 66.4445 131.347 66.4446 131.092V110.156C66.4445 109.902 66.5113 109.652 66.6381 109.431C66.7649 109.211 66.9473 109.028 67.167 108.901L97.8309 91.1334C98.0553 91.0031 113.16 112.017 112.64 112.318L103.729 119.248V122.013L355.698 267.979C355.918 268.106 356.1 268.289 356.227 268.51C356.354 268.73 356.42 268.98 356.42 269.235C356.42 269.489 356.354 269.739 356.227 269.96C356.1 270.18 355.918 270.363 355.698 270.491L331.379 284.578C331.159 284.705 330.91 284.772 330.656 284.772Z" fill="#020202"/>
<path d="M98.5537 92.3896L67.8894 110.157V131.093L330.656 283.323L354.976 269.236L102.284 122.85V118.411L112.561 110.869L111.081 101.733L98.5537 92.3896Z" fill="#DED9D9"/>
<path d="M370.16 295.641L345.843 309.72L330.656 283.323L354.975 269.235L370.16 295.641Z" fill="#1A1E42"/>
<path d="M426.008 338.261L413.374 330.942C413.154 330.815 412.905 330.748 412.652 330.748C412.398 330.748 412.149 330.815 411.929 330.942C411.709 331.07 411.527 331.253 411.4 331.473C411.273 331.694 411.207 331.944 411.207 332.198L411.204 346.005L345.843 383.871L298.008 356.159C297.788 356.032 297.539 355.965 297.286 355.965C297.032 355.965 296.783 356.032 296.563 356.159L283.915 363.492C283.914 363.493 283.913 363.494 283.911 363.495L274.55 368.908C274.33 369.035 274.147 369.218 274.02 369.438C273.893 369.659 273.826 369.909 273.826 370.164V409.913C273.826 410.167 273.893 410.417 274.019 410.638L283.387 426.923C283.514 427.143 283.696 427.326 283.916 427.454L332.48 455.587C332.518 455.609 332.561 455.618 332.6 455.637C332.641 455.656 332.681 455.672 332.723 455.688C332.877 455.746 333.038 455.777 333.202 455.781H358.483C358.644 455.777 358.802 455.747 358.953 455.691C358.996 455.676 359.036 455.659 359.078 455.64C359.12 455.62 359.165 455.61 359.206 455.587L426.008 416.877C426.228 416.749 426.411 416.566 426.537 416.346C426.664 416.125 426.731 415.875 426.731 415.621V339.517C426.731 339.263 426.664 339.013 426.537 338.792C426.411 338.572 426.228 338.388 426.008 338.261Z" fill="#231F20"/>
<path d="M425.286 339.519L412.652 332.198L412.649 346.842L345.843 385.545L297.285 357.416L284.638 364.748L287.817 372.014L331.801 396.926L359.324 396.524L420.405 360.608L425.286 354.162V339.519Z" fill="#DED9D9"/>
<path d="M333.202 455.781C332.834 455.781 332.479 455.64 332.211 455.387C331.943 455.134 331.782 454.787 331.76 454.419L329.425 415.509C329.42 415.43 329.421 415.35 329.429 415.271L331.764 392.711C331.801 392.354 331.969 392.024 332.234 391.784C332.5 391.544 332.844 391.411 333.202 391.411H358.483C358.812 391.411 359.13 391.523 359.386 391.729C359.642 391.935 359.821 392.222 359.893 392.544L363.919 410.593C363.952 410.741 363.962 410.893 363.948 411.044L359.923 454.465C359.889 454.825 359.723 455.159 359.457 455.403C359.191 455.646 358.843 455.781 358.483 455.781H333.202Z" fill="#231F20"/>
<path d="M358.483 392.862H333.203L330.867 415.422L333.203 454.331H358.483L362.509 410.91L358.483 392.862Z" fill="#1A1E42"/>
<path d="M333.202 455.781C332.948 455.781 332.699 455.714 332.48 455.587L283.916 427.454C283.696 427.326 283.514 427.143 283.387 426.923L274.019 410.638C273.893 410.418 273.826 410.168 273.826 409.913V370.164C273.826 369.909 273.893 369.659 274.02 369.438C274.147 369.218 274.33 369.035 274.55 368.908L283.917 363.492C284.137 363.365 284.386 363.298 284.639 363.298C284.892 363.298 285.141 363.365 285.36 363.492L333.924 391.605C334.144 391.732 334.327 391.915 334.453 392.136C334.58 392.356 334.647 392.606 334.647 392.861V454.331C334.647 454.521 334.61 454.71 334.537 454.886C334.465 455.062 334.358 455.222 334.224 455.356C334.09 455.491 333.93 455.598 333.755 455.671C333.58 455.743 333.392 455.781 333.202 455.781Z" fill="#231F20"/>
<path d="M333.202 392.862L284.638 364.748L275.27 370.163V409.913L284.638 426.198L333.202 454.331V392.862Z" fill="#D8D3D1"/>
<g clip-path="url(#clip1_821_6824)">
<path d="M306.307 409.182C306.268 408.903 306.219 408.622 306.167 408.34C306.131 408.146 306.099 407.953 306.057 407.758C306.018 407.579 305.973 407.399 305.929 407.22C305.868 406.967 305.805 406.714 305.734 406.461C305.693 406.316 305.649 406.171 305.605 406.026C305.519 405.741 305.427 405.457 305.329 405.173C305.289 405.059 305.251 404.944 305.21 404.829C305.068 404.439 304.918 404.049 304.756 403.663C304.738 403.62 304.717 403.577 304.699 403.534C304.55 403.187 304.393 402.843 304.229 402.502C304.178 402.397 304.127 402.293 304.075 402.189C303.915 401.866 303.747 401.546 303.574 401.229C303.541 401.17 303.51 401.109 303.477 401.049C303.271 400.682 303.055 400.321 302.832 399.964C302.767 399.861 302.699 399.759 302.633 399.657C302.468 399.401 302.299 399.15 302.126 398.902C302.033 398.767 301.938 398.634 301.842 398.502C301.691 398.295 301.536 398.092 301.379 397.891C301.248 397.722 301.117 397.555 300.983 397.391C300.855 397.235 300.723 397.084 300.591 396.932C300.369 396.675 300.142 396.425 299.911 396.182C299.798 396.063 299.685 395.945 299.57 395.83C299.112 395.368 298.632 394.932 298.131 394.521C298.044 394.45 297.955 394.384 297.867 394.315C297.358 393.909 296.825 393.536 296.272 393.199C295.855 392.952 295.425 392.731 294.984 392.536C294.849 392.476 294.716 392.423 294.583 392.37C294.339 392.272 294.098 392.186 293.86 392.112C293.708 392.065 293.555 392.018 293.406 391.98C293.264 391.945 293.125 391.914 292.986 391.888C292.803 391.852 292.622 391.822 292.444 391.801C292.341 391.789 292.238 391.777 292.137 391.769C291.919 391.753 291.7 391.749 291.481 391.756C291.431 391.757 291.379 391.754 291.33 391.757C291.076 391.772 290.823 391.805 290.573 391.855C290.512 391.868 290.454 391.884 290.394 391.898C290.203 391.943 290.015 391.999 289.83 392.066C289.773 392.087 289.714 392.107 289.657 392.13C289.426 392.222 289.201 392.332 288.986 392.46L291.893 390.711C291.912 390.7 291.93 390.689 291.949 390.678C292.115 390.581 292.287 390.495 292.463 390.418C292.496 390.404 292.531 390.395 292.564 390.381C292.621 390.358 292.679 390.339 292.737 390.318C292.826 390.286 292.912 390.249 293.003 390.221C293.1 390.192 293.201 390.174 293.3 390.15C293.36 390.136 293.419 390.119 293.481 390.107C293.513 390.101 293.545 390.09 293.578 390.084C293.782 390.048 293.989 390.023 294.196 390.009C294.209 390.008 294.224 390.01 294.237 390.009C294.286 390.006 294.336 390.009 294.386 390.008C294.547 390.002 294.707 389.996 294.873 390.004C294.929 390.006 294.988 390.017 295.044 390.021C295.145 390.029 295.247 390.041 295.35 390.053C295.446 390.064 295.539 390.067 295.637 390.083C295.721 390.096 295.809 390.123 295.894 390.14C296.032 390.167 296.171 390.197 296.312 390.232C296.388 390.251 296.461 390.26 296.538 390.282C296.612 390.303 296.691 390.34 296.767 390.364C297.005 390.437 297.246 390.524 297.49 390.622C297.575 390.656 297.657 390.675 297.744 390.712C297.792 390.733 297.842 390.766 297.89 390.788C298.332 390.983 298.762 391.204 299.179 391.451C299.732 391.788 300.265 392.161 300.773 392.567C300.862 392.636 300.95 392.701 301.038 392.773C301.539 393.184 302.02 393.621 302.478 394.083C302.517 394.122 302.56 394.153 302.598 394.192C302.673 394.268 302.742 394.354 302.815 394.432C303.048 394.676 303.276 394.928 303.5 395.186C303.571 395.268 303.647 395.342 303.717 395.426C303.776 395.495 303.83 395.571 303.888 395.642C304.024 395.806 304.156 395.975 304.287 396.144C304.373 396.255 304.464 396.36 304.548 396.473C304.617 396.565 304.681 396.661 304.748 396.753C304.844 396.886 304.94 397.02 305.034 397.154C305.098 397.247 305.166 397.336 305.23 397.429C305.336 397.586 305.436 397.748 305.539 397.907C305.606 398.01 305.674 398.112 305.739 398.216C305.766 398.26 305.795 398.302 305.822 398.345C306.005 398.64 306.181 398.939 306.352 399.242C306.363 399.261 306.373 399.282 306.384 399.302C306.417 399.361 306.447 399.42 306.479 399.479C306.599 399.696 306.719 399.913 306.832 400.134C306.884 400.235 306.931 400.338 306.982 400.44C307.034 400.545 307.086 400.65 307.136 400.755C307.181 400.849 307.23 400.941 307.273 401.035C307.388 401.281 307.496 401.53 307.602 401.779C307.622 401.825 307.644 401.87 307.663 401.916C307.669 401.929 307.675 401.942 307.68 401.955C307.812 402.27 307.938 402.587 308.056 402.905C308.077 402.963 308.095 403.021 308.116 403.079C308.158 403.195 308.197 403.311 308.237 403.428C308.292 403.587 308.351 403.746 308.403 403.905C308.442 404.029 308.475 404.154 308.512 404.278C308.556 404.423 308.6 404.567 308.641 404.712C308.666 404.803 308.697 404.894 308.721 404.985C308.765 405.148 308.797 405.31 308.837 405.473C308.88 405.652 308.925 405.831 308.964 406.009C308.977 406.073 308.996 406.137 309.009 406.2C309.036 406.332 309.05 406.461 309.074 406.592C309.126 406.874 309.175 407.154 309.214 407.434C309.224 407.512 309.243 407.591 309.253 407.669C309.262 407.742 309.258 407.812 309.266 407.885C309.341 408.502 309.38 409.122 309.383 409.743C309.374 413.081 308.234 415.431 306.396 416.536L303.489 418.284C305.327 417.179 306.467 414.829 306.477 411.491C306.473 410.87 306.434 410.25 306.359 409.633C306.342 409.483 306.328 409.333 306.307 409.182Z" fill="#667085"/>
<path d="M303.49 418.287C307.482 415.886 307.471 408.159 303.466 401.027C299.461 393.896 292.979 390.06 288.987 392.461C284.995 394.862 285.006 402.589 289.011 409.721C293.016 416.852 299.498 420.688 303.49 418.287Z" fill="#1A1E42"/>
</g>
<path d="M358.483 455.781C358.294 455.781 358.106 455.743 357.93 455.67C357.755 455.598 357.596 455.491 357.462 455.356C357.327 455.221 357.221 455.062 357.148 454.886C357.076 454.71 357.038 454.521 357.039 454.331V392.861C357.039 392.606 357.105 392.356 357.232 392.136C357.359 391.915 357.541 391.732 357.761 391.605L424.564 352.906C424.783 352.779 425.032 352.712 425.286 352.712C425.54 352.712 425.789 352.779 426.009 352.906C426.228 353.034 426.411 353.217 426.537 353.437C426.664 353.658 426.731 353.908 426.731 354.162V415.621C426.731 415.875 426.664 416.125 426.537 416.346C426.411 416.566 426.228 416.749 426.008 416.877L359.206 455.587C358.986 455.714 358.737 455.781 358.483 455.781Z" fill="#231F20"/>
<path d="M358.483 392.862L425.287 354.162V415.621L358.483 454.331V392.862Z" fill="#0B0D1B"/>
<path d="M227.253 578.151V591.486L245.904 602.294H272.238L290.875 591.473V578.151L272.238 567.349H245.904L227.253 578.151Z" fill="#FCE0BF"/>
<g opacity="0.3" filter="url(#filter1_f_821_6824)">
<path d="M135.686 498.202V508.947L150.147 517.656H170.566L185.017 508.936V498.202L170.566 489.497H150.147L135.686 498.202Z" fill="#010101"/>
</g>
<g opacity="0.3" filter="url(#filter2_f_821_6824)">
<path d="M449.604 476.264V484.047L460.079 490.356H474.869L485.337 484.04V476.264L474.869 469.959H460.079L449.604 476.264Z" fill="#010101"/>
</g>
<path d="M452.129 472.596V479.023L461.117 484.232H473.81L482.792 479.016V472.596L473.81 467.39H461.117L452.129 472.596Z" fill="#FCE0BF"/>
<g opacity="0.3" filter="url(#filter3_f_821_6824)">
<path d="M481.845 548.546V560.56L498.013 570.297H520.843L537 560.548V548.546L520.843 538.813H498.013L481.845 548.546Z" fill="#010101"/>
</g>
<path d="M536.629 553.388L536.623 540.842C536.623 540.653 536.573 540.467 536.479 540.303C536.385 540.14 536.25 540.004 536.087 539.909L520.801 531.025C520.637 530.93 520.452 530.88 520.263 530.88H498.57C498.381 530.88 498.195 530.93 498.032 531.024L482.709 539.908C482.546 540.003 482.41 540.139 482.316 540.303C482.221 540.467 482.172 540.653 482.172 540.843V559.381C482.172 559.57 482.221 559.756 482.316 559.92C482.41 560.083 482.546 560.219 482.709 560.314L498.032 569.204C498.056 569.219 498.084 569.225 498.11 569.237C498.14 569.252 498.169 569.263 498.201 569.275C498.319 569.322 498.443 569.347 498.57 569.35H520.263C520.389 569.347 520.515 569.322 520.633 569.275C520.663 569.264 520.692 569.252 520.721 569.238C520.747 569.225 520.776 569.219 520.802 569.204L536.093 560.314C536.256 560.219 536.392 560.083 536.486 559.919C536.58 559.756 536.629 559.57 536.629 559.381V553.389L536.629 553.389L536.629 553.388Z" fill="#231F20"/>
<path d="M520.263 568.271L535.554 559.38V553.39L517.78 558.522L520.263 568.271Z" fill="#F9C166"/>
<path d="M498.569 568.271L483.247 559.38V553.39L500.74 559.131L498.569 568.271Z" fill="#F9C166"/>
<path d="M498.569 568.271H520.263V562.272L510.039 558.522L498.569 562.272V568.271Z" fill="#FDB45C"/>
<path d="M483.247 553.39L498.569 562.271H520.263L535.554 553.39L535.548 540.843L520.263 531.958H498.569L483.247 540.843V553.39Z" fill="#FBD9A2"/>
<path d="M485.742 542.884V552.804L499.617 560.845H519.208L533.073 552.794V542.884L519.208 534.848H499.617L485.742 542.884Z" fill="#F9C166"/>
<path d="M485.742 541.41V542.884L499.617 534.847H519.208L533.073 542.884V541.41L519.208 533.417L499.617 533.419L485.742 541.41Z" fill="#FDB45C"/>
<g clip-path="url(#clip2_821_6824)">
<path d="M187.098 295.842C199.493 302.985 209.499 320.293 209.459 334.502C209.428 345.21 203.698 351.101 195.576 350.301L195.42 385.995C195.404 391.458 191.536 393.667 186.773 390.922C182.011 388.178 178.168 381.524 178.183 376.062L178.34 340.367C170.24 331.819 164.562 319.353 164.592 308.645C164.632 294.436 174.711 288.703 187.098 295.842Z" fill="#475467"/>
<path d="M187.098 295.842C174.711 288.703 164.632 294.436 164.592 308.645C164.561 319.353 170.24 331.819 178.34 340.367L207.714 323.438C204.33 312.253 196.385 301.194 187.098 295.842Z" fill="#667085"/>
<mask id="mask0_821_6824" style="mask-type:luminance" maskUnits="userSpaceOnUse" x="2" y="297" width="208" height="140">
<path d="M189.347 297.267L164.704 311.369L160.7 313.66C155.823 311.271 151.471 311.356 148.361 313.497L139.312 318.678C136.122 320.493 134.065 324.286 133.813 329.663L129.028 332.335C120.966 328.397 111.821 325.575 102.201 323.879C76.0382 319.263 46.3869 322.939 25.6061 334.916C24.4726 335.571 23.3781 336.242 22.3328 336.925C9.40314 345.347 2.95775 355.924 3.00188 366.482C3.00229 366.476 3.00139 366.471 2.99927 366.466L3.03038 392.631C3.06411 403.885 10.4717 415.124 25.2715 423.712H25.2767L25.2768 423.713L25.2774 423.714L25.2782 423.715L25.2792 423.715C26.4957 424.419 27.7511 425.084 29.0245 425.732C42.4911 432.572 59.1324 436.209 75.9993 436.637C94.5599 437.103 113.375 433.68 128.499 426.379C130.239 425.537 131.938 424.657 133.575 423.715C148.245 415.259 155.777 404.238 156.158 393.157C156.171 392.848 156.176 392.527 156.176 392.193L156.145 366.013C156.145 366.065 156.142 366.112 156.142 366.161C156.142 365.635 156.129 365.11 156.098 364.587C159.685 365.785 162.896 365.573 165.402 364.139C165.408 364.135 165.414 364.131 165.42 364.128L175.11 358.58C176.387 357.84 177.471 356.809 178.272 355.572C179.629 353.537 180.451 350.81 180.588 347.483L203.338 334.463L209.282 331.061C207.986 318.499 199.722 304.43 189.347 297.267ZM12.609 387.852C12.4975 387.735 12.3911 387.619 12.2796 387.499C12.4196 387.647 12.5597 387.797 12.6998 387.942C12.6686 387.914 12.6401 387.883 12.609 387.852ZM149.788 383.787C149.757 383.828 149.723 383.87 149.689 383.914C149.736 383.852 149.783 383.792 149.827 383.732L149.788 383.787ZM151.201 381.775C151.188 381.796 151.173 381.817 151.157 381.837C151.183 381.796 151.209 381.757 151.238 381.716C151.227 381.736 151.215 381.756 151.201 381.775Z" fill="white"/>
</mask>
<g mask="url(#mask0_821_6824)">
<path d="M225.226 321.939C230.677 318.818 230.72 308.673 225.322 299.279C219.924 289.885 211.129 284.799 205.678 287.92C200.227 291.041 200.184 301.187 205.582 310.581C210.98 319.975 219.775 325.06 225.226 321.939Z" fill="#C8B482"/>
<mask id="path-70-inside-1_821_6824" fill="white">
<path d="M171.401 352.742C173.944 351.281 175.518 348.146 175.52 343.687C175.519 343.149 175.496 342.61 175.448 342.063C175.433 341.881 175.41 341.694 175.388 341.515C175.349 341.158 175.31 340.801 175.257 340.448C175.145 339.721 174.996 338.996 174.82 338.267C174.763 338.044 174.7 337.822 174.639 337.596C174.529 337.198 174.416 336.793 174.289 336.391C174.203 336.127 174.114 335.867 174.021 335.604C173.906 335.275 173.787 334.944 173.658 334.619C173.554 334.343 173.445 334.066 173.327 333.795C173.199 333.488 173.066 333.191 172.933 332.893C172.806 332.617 172.679 332.34 172.542 332.07C172.397 331.772 172.246 331.476 172.094 331.179C171.952 330.918 171.812 330.653 171.666 330.389C171.487 330.077 171.306 329.77 171.12 329.46C170.972 329.219 170.827 328.974 170.676 328.738C170.439 328.363 170.185 327.995 169.933 327.635C169.801 327.439 169.673 327.246 169.536 327.06C169.087 326.449 168.628 325.856 168.145 325.285C167.983 325.09 167.811 324.901 167.643 324.715C167.398 324.437 167.157 324.16 166.904 323.895C166.718 323.698 166.525 323.515 166.339 323.331C166.087 323.084 165.837 322.833 165.582 322.602C165.432 322.468 165.28 322.338 165.127 322.209C164.988 322.087 164.845 321.962 164.704 321.845C164.421 321.61 164.137 321.387 163.851 321.168C163.689 321.045 163.529 320.917 163.365 320.799C162.797 320.394 162.219 320.007 161.627 319.666C161.362 319.513 161.103 319.393 160.839 319.259C160.585 319.131 160.328 318.995 160.079 318.887C159.86 318.791 159.642 318.713 159.426 318.63C159.184 318.532 158.937 318.432 158.693 318.357C158.548 318.309 158.406 318.275 158.255 318.236C157.865 318.12 157.468 318.029 157.067 317.963C156.899 317.932 156.729 317.906 156.563 317.882C156.282 317.851 156.009 317.837 155.738 317.83C155.569 317.822 155.395 317.812 155.23 317.818C155.005 317.826 154.779 317.846 154.556 317.878C154.383 317.897 154.208 317.91 154.042 317.939C153.841 317.978 153.643 318.027 153.448 318.087C153.278 318.132 153.111 318.173 152.947 318.228C152.75 318.3 152.566 318.391 152.378 318.479C152.201 318.557 152.023 318.627 151.855 318.721L205.688 287.919C205.736 287.887 205.787 287.862 205.839 287.833C205.955 287.768 206.085 287.729 206.209 287.67C206.395 287.586 206.586 287.493 206.781 287.426C206.814 287.409 206.848 287.393 206.878 287.381C207.007 287.335 207.147 287.32 207.277 287.282C207.475 287.229 207.668 287.173 207.87 287.134C207.917 287.126 207.955 287.112 207.995 287.105C208.122 287.082 208.259 287.084 208.387 287.068C208.609 287.047 208.833 287.021 209.059 287.013C209.115 287.01 209.169 286.999 209.222 287C209.336 287 209.456 287.021 209.569 287.021C209.84 287.028 210.115 287.049 210.397 287.08C210.475 287.089 210.554 287.087 210.637 287.099C210.722 287.106 210.815 287.142 210.898 287.154C211.288 287.223 211.685 287.314 212.091 287.429C212.189 287.456 212.279 287.466 212.381 287.495C212.427 287.509 212.479 287.533 212.529 287.55C212.77 287.63 213.017 287.73 213.262 287.824C213.478 287.906 213.692 287.981 213.908 288.082C214.162 288.193 214.418 288.328 214.677 288.46C214.857 288.552 215.036 288.625 215.218 288.724L215.46 288.863C216.059 289.211 216.639 289.589 217.198 289.996C217.363 290.115 217.52 290.236 217.682 290.359C217.968 290.578 218.252 290.801 218.532 291.04C218.676 291.153 218.82 291.277 218.963 291.402C219.058 291.486 219.156 291.555 219.251 291.639C219.306 291.689 219.358 291.743 219.413 291.792C219.67 292.03 219.92 292.281 220.172 292.528C220.363 292.716 220.551 292.896 220.732 293.09C220.986 293.355 221.236 293.637 221.481 293.916C221.622 294.075 221.773 294.227 221.912 294.391C221.938 294.418 221.955 294.451 221.981 294.478C222.46 295.047 222.923 295.642 223.364 296.255C223.399 296.299 223.436 296.338 223.468 296.386C223.571 296.529 223.664 296.678 223.764 296.826C224.018 297.193 224.268 297.558 224.505 297.933C224.563 298.02 224.627 298.105 224.682 298.197C224.775 298.346 224.859 298.501 224.954 298.658C225.137 298.96 225.32 299.275 225.494 299.584C225.559 299.699 225.632 299.813 225.697 299.928C225.778 300.076 225.846 300.228 225.923 300.374C226.081 300.669 226.229 300.963 226.378 301.264C226.439 301.395 226.515 301.522 226.577 301.653C226.642 301.798 226.696 301.943 226.765 302.084C226.902 302.384 227.032 302.686 227.16 302.992C227.217 303.132 227.287 303.269 227.346 303.416C227.399 303.542 227.439 303.679 227.489 303.809C227.62 304.141 227.74 304.473 227.854 304.802C227.908 304.958 227.975 305.11 228.028 305.266C228.061 305.375 228.085 305.478 228.118 305.587C228.245 305.988 228.36 306.389 228.468 306.791C228.516 306.957 228.576 307.122 228.617 307.289C228.632 307.346 228.636 307.402 228.648 307.463C228.829 308.194 228.979 308.919 229.088 309.639C229.095 309.679 229.105 309.714 229.112 309.754C229.16 310.074 229.187 310.388 229.219 310.705C229.238 310.89 229.269 311.074 229.284 311.256C229.325 311.805 229.348 312.344 229.351 312.877C229.352 317.344 227.777 320.479 225.232 321.932L171.401 352.742Z"/>
</mask>
<path d="M171.401 352.742C173.944 351.281 175.518 348.146 175.52 343.687C175.519 343.149 175.496 342.61 175.448 342.063C175.433 341.881 175.41 341.694 175.388 341.515C175.349 341.158 175.31 340.801 175.257 340.448C175.145 339.721 174.996 338.996 174.82 338.267C174.763 338.044 174.7 337.822 174.639 337.596C174.529 337.198 174.416 336.793 174.289 336.391C174.203 336.127 174.114 335.867 174.021 335.604C173.906 335.275 173.787 334.944 173.658 334.619C173.554 334.343 173.445 334.066 173.327 333.795C173.199 333.488 173.066 333.191 172.933 332.893C172.806 332.617 172.679 332.34 172.542 332.07C172.397 331.772 172.246 331.476 172.094 331.179C171.952 330.918 171.812 330.653 171.666 330.389C171.487 330.077 171.306 329.77 171.12 329.46C170.972 329.219 170.827 328.974 170.676 328.738C170.439 328.363 170.185 327.995 169.933 327.635C169.801 327.439 169.673 327.246 169.536 327.06C169.087 326.449 168.628 325.856 168.145 325.285C167.983 325.09 167.811 324.901 167.643 324.715C167.398 324.437 167.157 324.16 166.904 323.895C166.718 323.698 166.525 323.515 166.339 323.331C166.087 323.084 165.837 322.833 165.582 322.602C165.432 322.468 165.28 322.338 165.127 322.209C164.988 322.087 164.845 321.962 164.704 321.845C164.421 321.61 164.137 321.387 163.851 321.168C163.689 321.045 163.529 320.917 163.365 320.799C162.797 320.394 162.219 320.007 161.627 319.666C161.362 319.513 161.103 319.393 160.839 319.259C160.585 319.131 160.328 318.995 160.079 318.887C159.86 318.791 159.642 318.713 159.426 318.63C159.184 318.532 158.937 318.432 158.693 318.357C158.548 318.309 158.406 318.275 158.255 318.236C157.865 318.12 157.468 318.029 157.067 317.963C156.899 317.932 156.729 317.906 156.563 317.882C156.282 317.851 156.009 317.837 155.738 317.83C155.569 317.822 155.395 317.812 155.23 317.818C155.005 317.826 154.779 317.846 154.556 317.878C154.383 317.897 154.208 317.91 154.042 317.939C153.841 317.978 153.643 318.027 153.448 318.087C153.278 318.132 153.111 318.173 152.947 318.228C152.75 318.3 152.566 318.391 152.378 318.479C152.201 318.557 152.023 318.627 151.855 318.721L205.688 287.919C205.736 287.887 205.787 287.862 205.839 287.833C205.955 287.768 206.085 287.729 206.209 287.67C206.395 287.586 206.586 287.493 206.781 287.426C206.814 287.409 206.848 287.393 206.878 287.381C207.007 287.335 207.147 287.32 207.277 287.282C207.475 287.229 207.668 287.173 207.87 287.134C207.917 287.126 207.955 287.112 207.995 287.105C208.122 287.082 208.259 287.084 208.387 287.068C208.609 287.047 208.833 287.021 209.059 287.013C209.115 287.01 209.169 286.999 209.222 287C209.336 287 209.456 287.021 209.569 287.021C209.84 287.028 210.115 287.049 210.397 287.08C210.475 287.089 210.554 287.087 210.637 287.099C210.722 287.106 210.815 287.142 210.898 287.154C211.288 287.223 211.685 287.314 212.091 287.429C212.189 287.456 212.279 287.466 212.381 287.495C212.427 287.509 212.479 287.533 212.529 287.55C212.77 287.63 213.017 287.73 213.262 287.824C213.478 287.906 213.692 287.981 213.908 288.082C214.162 288.193 214.418 288.328 214.677 288.46C214.857 288.552 215.036 288.625 215.218 288.724L215.46 288.863C216.059 289.211 216.639 289.589 217.198 289.996C217.363 290.115 217.52 290.236 217.682 290.359C217.968 290.578 218.252 290.801 218.532 291.04C218.676 291.153 218.82 291.277 218.963 291.402C219.058 291.486 219.156 291.555 219.251 291.639C219.306 291.689 219.358 291.743 219.413 291.792C219.67 292.03 219.92 292.281 220.172 292.528C220.363 292.716 220.551 292.896 220.732 293.09C220.986 293.355 221.236 293.637 221.481 293.916C221.622 294.075 221.773 294.227 221.912 294.391C221.938 294.418 221.955 294.451 221.981 294.478C222.46 295.047 222.923 295.642 223.364 296.255C223.399 296.299 223.436 296.338 223.468 296.386C223.571 296.529 223.664 296.678 223.764 296.826C224.018 297.193 224.268 297.558 224.505 297.933C224.563 298.02 224.627 298.105 224.682 298.197C224.775 298.346 224.859 298.501 224.954 298.658C225.137 298.96 225.32 299.275 225.494 299.584C225.559 299.699 225.632 299.813 225.697 299.928C225.778 300.076 225.846 300.228 225.923 300.374C226.081 300.669 226.229 300.963 226.378 301.264C226.439 301.395 226.515 301.522 226.577 301.653C226.642 301.798 226.696 301.943 226.765 302.084C226.902 302.384 227.032 302.686 227.16 302.992C227.217 303.132 227.287 303.269 227.346 303.416C227.399 303.542 227.439 303.679 227.489 303.809C227.62 304.141 227.74 304.473 227.854 304.802C227.908 304.958 227.975 305.11 228.028 305.266C228.061 305.375 228.085 305.478 228.118 305.587C228.245 305.988 228.36 306.389 228.468 306.791C228.516 306.957 228.576 307.122 228.617 307.289C228.632 307.346 228.636 307.402 228.648 307.463C228.829 308.194 228.979 308.919 229.088 309.639C229.095 309.679 229.105 309.714 229.112 309.754C229.16 310.074 229.187 310.388 229.219 310.705C229.238 310.89 229.269 311.074 229.284 311.256C229.325 311.805 229.348 312.344 229.351 312.877C229.352 317.344 227.777 320.479 225.232 321.932L171.401 352.742Z" fill="#F9C166" stroke="#231F20" stroke-width="2" mask="url(#path-70-inside-1_821_6824)"/>
<path d="M171.402 352.74C176.854 349.619 176.897 339.473 171.499 330.079C166.101 320.685 157.306 315.6 151.855 318.721C146.404 321.842 146.361 331.987 151.758 341.382C157.156 350.776 165.951 355.861 171.402 352.74Z" fill="#C8B482"/>
<path d="M226.471 320.309L226.471 320.309C226.552 320.222 226.631 320.131 226.711 320.036C226.735 320.006 226.756 319.981 226.777 319.956L226.777 319.955C226.867 319.845 226.954 319.73 227.039 319.612C227.039 319.611 227.04 319.611 227.04 319.61L227.049 319.597L227.051 319.595C228.177 318.013 228.851 315.757 228.851 312.878C228.848 312.359 228.826 311.833 228.785 311.295C228.777 311.191 228.766 311.113 228.755 311.025C228.745 310.95 228.733 310.868 228.722 310.757L228.722 310.756C228.716 310.698 228.71 310.642 228.705 310.586C228.679 310.327 228.655 310.084 228.618 309.835C228.617 309.83 228.616 309.825 228.615 309.817C228.614 309.813 228.613 309.808 228.612 309.803C228.608 309.785 228.601 309.756 228.596 309.724L228.594 309.714L228.594 309.714C228.487 309.011 228.341 308.302 228.163 307.583L228.161 307.573L228.158 307.563C228.149 307.516 228.142 307.469 228.139 307.45C228.135 307.424 228.134 307.419 228.134 307.419L228.131 307.408L228.131 307.408C228.109 307.315 228.085 307.241 228.057 307.153C228.036 307.09 228.014 307.02 227.988 306.931L227.985 306.921L227.985 306.921C227.879 306.524 227.766 306.13 227.641 305.737L227.64 305.731L227.64 305.731C227.621 305.668 227.604 305.608 227.59 305.556C227.577 305.505 227.565 305.462 227.552 305.419C227.531 305.356 227.505 305.292 227.476 305.216L227.474 305.211C227.445 305.137 227.412 305.052 227.382 304.965C227.268 304.639 227.151 304.315 227.024 303.992L227.023 303.989C226.998 303.924 226.975 303.858 226.956 303.802C226.953 303.793 226.949 303.784 226.946 303.775C226.923 303.709 226.905 303.656 226.885 303.609L226.881 303.601L226.881 303.601C226.857 303.541 226.83 303.481 226.798 303.41L226.793 303.398C226.763 303.334 226.729 303.259 226.698 303.182C226.572 302.882 226.445 302.588 226.312 302.296C226.271 302.211 226.221 302.093 226.18 301.995C226.157 301.942 226.137 301.895 226.123 301.862C226.098 301.811 226.07 301.758 226.036 301.693L226.034 301.689C226.001 301.629 225.963 301.556 225.927 301.481C225.779 301.183 225.636 300.897 225.483 300.612L225.481 300.608C225.443 300.536 225.407 300.463 225.375 300.397L225.362 300.372C225.326 300.298 225.294 300.233 225.26 300.171C225.232 300.121 225.201 300.07 225.167 300.013L225.165 300.011C225.132 299.955 225.095 299.894 225.059 299.83L225.059 299.83C224.887 299.524 224.707 299.215 224.526 298.917C224.526 298.917 224.526 298.917 224.526 298.917L224.954 298.658C224.91 298.586 224.869 298.515 224.829 298.445C224.781 298.361 224.733 298.278 224.682 298.197L226.471 320.309ZM226.471 320.309C226.443 320.339 226.415 320.368 226.381 320.402C226.373 320.411 226.365 320.419 226.356 320.428M226.471 320.309L226.356 320.428M226.356 320.428C226.279 320.507 226.208 320.578 226.137 320.644L226.137 320.644C226.087 320.691 226.037 320.734 225.972 320.79C225.955 320.805 225.939 320.819 225.924 320.832C225.87 320.879 225.825 320.918 225.777 320.956L225.777 320.957C225.714 321.007 225.648 321.055 225.571 321.111L225.548 321.128M226.356 320.428L225.548 321.128M225.548 321.128C225.514 321.153 225.49 321.171 225.469 321.186C225.442 321.207 225.422 321.222 225.392 321.242L225.392 321.242C225.258 321.334 225.122 321.419 224.984 321.498L224.984 321.498L174.367 350.468C175.31 348.91 175.871 346.908 175.983 344.552L181.145 341.907L181.153 341.903L181.161 341.899C193.475 335.014 194.944 317.602 183.617 309.148C182.998 308.685 182.352 308.259 181.681 307.873L181.68 307.873C179.384 306.558 177.176 305.925 175.193 305.943L205.936 288.353L205.95 288.345L205.963 288.336C205.979 288.326 205.99 288.32 206.013 288.308C206.028 288.299 206.049 288.288 206.082 288.27L206.085 288.269C206.112 288.253 206.147 288.238 206.208 288.213C206.216 288.21 206.224 288.207 206.233 288.203C206.284 288.183 206.353 288.155 206.42 288.123C206.461 288.105 206.5 288.087 206.538 288.069C206.686 288.002 206.813 287.944 206.944 287.899L206.974 287.888L207.002 287.874C207.031 287.86 207.046 287.853 207.055 287.849C207.083 287.84 207.12 287.831 207.18 287.818C207.187 287.816 207.195 287.815 207.203 287.813C207.258 287.802 207.336 287.785 207.412 287.763C207.446 287.754 207.48 287.745 207.513 287.736C207.675 287.692 207.816 287.654 207.964 287.626C208.006 287.618 208.043 287.608 208.062 287.603L208.065 287.602C208.077 287.599 208.083 287.597 208.084 287.597C208.118 287.591 208.16 287.587 208.224 287.583C208.233 287.582 208.243 287.582 208.253 287.581C208.306 287.578 208.374 287.573 208.441 287.565C208.484 287.561 208.525 287.557 208.566 287.553C208.746 287.535 208.91 287.519 209.075 287.513L209.083 287.513L209.091 287.512C209.116 287.511 209.137 287.509 209.154 287.507L209.178 287.504L209.196 287.502C209.209 287.501 209.215 287.5 209.217 287.5L209.223 287.5C209.253 287.5 209.289 287.503 209.351 287.508L209.358 287.509C209.41 287.514 209.485 287.52 209.562 287.521M225.548 321.128L210.637 287.099C210.684 287.103 210.734 287.116 210.783 287.128C210.822 287.138 210.861 287.148 210.898 287.154C211.289 287.223 211.685 287.314 212.091 287.429C212.137 287.442 212.182 287.451 212.227 287.46C212.277 287.47 212.328 287.48 212.382 287.495C212.406 287.503 212.431 287.513 212.458 287.523C212.481 287.533 212.505 287.542 212.529 287.55C212.71 287.61 212.894 287.681 213.078 287.752C213.139 287.776 213.201 287.8 213.262 287.824M209.562 287.521C209.56 287.521 209.558 287.521 209.556 287.521L209.569 287.021L209.57 287.521C209.568 287.521 209.565 287.521 209.562 287.521ZM209.562 287.521C209.814 287.527 210.072 287.547 210.34 287.576M210.34 287.576C210.341 287.577 210.342 287.577 210.342 287.577L210.397 287.08L210.337 287.576C210.338 287.576 210.339 287.576 210.34 287.576ZM210.34 287.576C210.393 287.583 210.444 287.585 210.478 287.587L210.489 287.588C210.528 287.59 210.549 287.591 210.566 287.594L210.58 287.596L210.593 287.597C210.593 287.597 210.604 287.599 210.644 287.609L210.656 287.612C210.673 287.616 210.697 287.622 210.719 287.628C210.746 287.634 210.78 287.641 210.817 287.647C211.189 287.714 211.567 287.801 211.955 287.91L211.955 287.91L211.959 287.911C212.023 287.929 212.084 287.941 212.127 287.949L212.136 287.951C212.179 287.96 212.208 287.966 212.235 287.973C212.237 287.974 212.239 287.975 212.241 287.975L212.269 287.987L212.275 287.989C212.297 287.997 212.333 288.012 212.369 288.024L212.373 288.025C212.54 288.08 212.707 288.145 212.887 288.215C212.951 288.239 213.016 288.265 213.084 288.291L213.262 287.824M213.262 287.824C213.307 287.841 213.351 287.857 213.395 287.874C213.566 287.938 213.736 288.002 213.908 288.082C214.113 288.171 214.319 288.277 214.527 288.383C214.577 288.409 214.627 288.434 214.677 288.46M213.262 287.824L213.084 288.291C213.134 288.31 213.182 288.328 213.228 288.345C213.396 288.409 213.544 288.464 213.697 288.536L213.697 288.536L213.709 288.541C213.897 288.623 214.086 288.719 214.293 288.825C214.344 288.851 214.397 288.878 214.45 288.905M214.677 288.46L214.45 288.905C214.45 288.905 214.45 288.905 214.45 288.905M214.677 288.46C214.754 288.499 214.831 288.535 214.908 288.571C215.011 288.619 215.114 288.667 215.218 288.724L214.45 288.905M214.677 288.46L214.451 288.906C214.451 288.906 214.45 288.905 214.45 288.905M205.688 287.919C205.723 287.896 205.759 287.876 205.796 287.856C205.811 287.849 205.825 287.841 205.839 287.833C205.906 287.795 205.978 287.767 206.051 287.737C206.103 287.716 206.157 287.695 206.209 287.67C206.246 287.653 206.282 287.636 206.319 287.62C206.47 287.55 206.624 287.48 206.781 287.426L205.688 287.919ZM205.688 287.919L174.031 306.032L205.688 287.919ZM209.059 287.013C209.081 287.012 209.102 287.01 209.123 287.007C209.157 287.003 209.19 287 209.222 287L209.059 287.013ZM209.059 287.013C208.875 287.019 208.691 287.038 208.51 287.056C208.469 287.06 208.428 287.064 208.387 287.068L209.059 287.013ZM173.689 351.432L225.232 321.932C225.383 321.846 225.53 321.753 225.674 321.655C225.71 321.63 225.746 321.604 225.782 321.577C225.802 321.562 225.822 321.547 225.842 321.532L225.866 321.515C225.941 321.46 226.017 321.405 226.09 321.347L173.689 351.432ZM220.088 292.445L219.735 292.799C219.808 292.872 219.878 292.94 219.945 293.006C220.093 293.15 220.23 293.284 220.367 293.431L220.367 293.431L220.371 293.435C220.616 293.693 220.861 293.967 221.106 294.246L221.107 294.248C221.184 294.334 221.248 294.402 221.307 294.466C221.383 294.547 221.451 294.62 221.531 294.714L221.538 294.723C221.538 294.723 221.538 294.723 221.538 294.723C221.543 294.729 221.554 294.745 221.566 294.761C221.576 294.775 221.59 294.791 221.606 294.81L220.088 292.445Z" fill="#F7931A" stroke="#231F20"/>
<path d="M143.98 325.211C143.98 319.389 146.015 315.417 149.165 313.575C152.314 311.735 156.752 311.921 161.785 314.803L162.033 314.369L161.785 314.803C166.815 317.683 171.399 322.669 174.725 328.421C178.052 334.172 180.095 340.642 180.095 346.46C180.095 352.277 178.058 356.245 174.906 358.084C171.755 359.922 167.315 359.735 162.282 356.853C157.251 353.973 152.67 348.988 149.345 343.239C146.021 337.49 143.98 331.024 143.98 325.211Z" fill="#C8B482" stroke="#231F20"/>
<mask id="path-74-inside-2_821_6824" fill="white">
<path d="M139.985 318.364C140.236 318.247 140.484 318.126 140.748 318.033C140.963 317.956 141.19 317.904 141.413 317.843C141.674 317.772 141.933 317.696 142.204 317.646C142.428 317.605 142.662 317.587 142.893 317.561C143.189 317.527 143.485 317.493 143.792 317.484C144.224 317.468 144.656 317.477 145.087 317.509C145.159 317.515 145.232 317.525 145.304 317.532C145.761 317.578 146.216 317.648 146.666 317.739C146.754 317.757 146.84 317.769 146.929 317.789C147.417 317.896 147.916 318.039 148.42 318.202C148.742 318.306 149.073 318.44 149.402 318.567C149.69 318.679 149.976 318.782 150.268 318.912C150.604 319.061 150.947 319.241 151.288 319.414C151.638 319.592 151.984 319.752 152.339 319.955C153.138 320.421 153.913 320.927 154.661 321.471C154.88 321.628 155.096 321.794 155.312 321.958C155.891 322.398 156.461 322.863 157.021 323.352C157.221 323.527 157.424 323.694 157.622 323.875C157.964 324.188 158.298 324.52 158.632 324.85C158.884 325.101 159.141 325.345 159.389 325.604C159.727 325.959 160.053 326.331 160.381 326.701C160.605 326.954 160.834 327.2 161.052 327.46C161.694 328.223 162.311 329.017 162.905 329.834C163.087 330.084 163.259 330.343 163.437 330.597C163.775 331.083 164.108 331.573 164.428 332.074C164.631 332.393 164.828 332.717 165.024 333.042C165.271 333.453 165.515 333.866 165.75 334.285C165.945 334.633 166.135 334.984 166.32 335.336C166.528 335.731 166.73 336.127 166.926 336.526C167.104 336.89 167.277 337.256 167.444 337.623C167.626 338.024 167.803 338.427 167.973 338.831C168.126 339.195 168.273 339.56 168.415 339.927C168.586 340.367 168.748 340.81 168.902 341.253C169.024 341.602 169.143 341.951 169.255 342.301C169.426 342.837 169.579 343.374 169.724 343.91C169.806 344.21 169.892 344.51 169.965 344.809C170.203 345.783 170.401 346.754 170.55 347.719C170.623 348.198 170.675 348.673 170.725 349.148C170.751 349.392 170.789 349.638 170.808 349.881C170.867 350.61 170.901 351.333 170.901 352.047C170.901 358.005 168.797 362.194 165.401 364.139L175.111 358.579C178.507 356.635 180.611 352.446 180.611 346.487C180.611 345.774 180.577 345.051 180.518 344.321C180.499 344.079 180.461 343.833 180.435 343.589C180.39 343.162 180.354 342.738 180.29 342.308C180.282 342.259 180.267 342.209 180.26 342.159C180.111 341.195 179.913 340.224 179.675 339.25C179.656 339.171 179.648 339.094 179.628 339.015C179.572 338.794 179.494 338.572 179.434 338.351C179.289 337.814 179.136 337.279 178.965 336.743C178.92 336.6 178.888 336.456 178.84 336.314C178.771 336.105 178.684 335.899 178.611 335.691C178.457 335.249 178.297 334.809 178.126 334.37C178.058 334.193 178.002 334.014 177.931 333.838C177.854 333.647 177.762 333.46 177.682 333.27C177.512 332.866 177.336 332.464 177.154 332.065C177.067 331.874 176.992 331.679 176.902 331.489C176.818 331.313 176.722 331.142 176.636 330.967C176.44 330.567 176.238 330.172 176.03 329.777C175.927 329.581 175.835 329.38 175.729 329.185C175.644 329.029 175.547 328.88 175.46 328.726C175.225 328.306 174.982 327.894 174.734 327.482C174.611 327.279 174.499 327.068 174.373 326.866C174.298 326.746 174.214 326.634 174.138 326.515C173.818 326.015 173.486 325.526 173.149 325.041C173.013 324.845 172.889 324.64 172.75 324.447C172.707 324.387 172.658 324.333 172.614 324.273C172.021 323.456 171.403 322.666 170.762 321.901C170.731 321.864 170.703 321.822 170.672 321.785C170.483 321.563 170.283 321.359 170.091 321.142C169.763 320.771 169.437 320.399 169.099 320.045C168.851 319.785 168.594 319.541 168.341 319.291C168.007 318.96 167.675 318.629 167.332 318.316C167.259 318.248 167.189 318.173 167.115 318.106C166.99 317.994 166.857 317.902 166.731 317.792C166.171 317.303 165.601 316.839 165.022 316.399C164.805 316.234 164.59 316.069 164.371 315.911C163.623 315.367 162.848 314.861 162.049 314.396C161.941 314.334 161.833 314.273 161.725 314.214C161.479 314.078 161.241 313.979 160.998 313.855C160.657 313.682 160.314 313.501 159.978 313.352C159.685 313.222 159.4 313.12 159.112 313.008C158.783 312.881 158.453 312.747 158.13 312.643C158.065 312.622 157.998 312.589 157.933 312.569C157.495 312.433 157.064 312.323 156.638 312.229C156.55 312.21 156.465 312.198 156.377 312.18C156.119 312.128 155.858 312.073 155.605 312.036C155.405 312.007 155.211 311.992 155.015 311.973C154.942 311.966 154.869 311.955 154.797 311.95C154.432 311.92 154.072 311.902 153.72 311.906C153.645 311.906 153.576 311.922 153.502 311.924C153.195 311.933 152.899 311.967 152.602 312.001C152.43 312.021 152.248 312.018 152.079 312.046C152.022 312.055 151.971 312.077 151.914 312.087C151.643 312.137 151.384 312.212 151.122 312.284C150.946 312.332 150.76 312.359 150.588 312.417C150.543 312.432 150.503 312.457 150.458 312.473C150.194 312.567 149.946 312.688 149.694 312.804C149.531 312.88 149.357 312.934 149.199 313.019C149.131 313.055 149.064 313.093 148.998 313.131L139.288 318.69C139.51 318.563 139.752 318.471 139.985 318.364Z"/>
</mask>
<path d="M139.985 318.364C140.236 318.247 140.484 318.126 140.748 318.033C140.963 317.956 141.19 317.904 141.413 317.843C141.674 317.772 141.933 317.696 142.204 317.646C142.428 317.605 142.662 317.587 142.893 317.561C143.189 317.527 143.485 317.493 143.792 317.484C144.224 317.468 144.656 317.477 145.087 317.509C145.159 317.515 145.232 317.525 145.304 317.532C145.761 317.578 146.216 317.648 146.666 317.739C146.754 317.757 146.84 317.769 146.929 317.789C147.417 317.896 147.916 318.039 148.42 318.202C148.742 318.306 149.073 318.44 149.402 318.567C149.69 318.679 149.976 318.782 150.268 318.912C150.604 319.061 150.947 319.241 151.288 319.414C151.638 319.592 151.984 319.752 152.339 319.955C153.138 320.421 153.913 320.927 154.661 321.471C154.88 321.628 155.096 321.794 155.312 321.958C155.891 322.398 156.461 322.863 157.021 323.352C157.221 323.527 157.424 323.694 157.622 323.875C157.964 324.188 158.298 324.52 158.632 324.85C158.884 325.101 159.141 325.345 159.389 325.604C159.727 325.959 160.053 326.331 160.381 326.701C160.605 326.954 160.834 327.2 161.052 327.46C161.694 328.223 162.311 329.017 162.905 329.834C163.087 330.084 163.259 330.343 163.437 330.597C163.775 331.083 164.108 331.573 164.428 332.074C164.631 332.393 164.828 332.717 165.024 333.042C165.271 333.453 165.515 333.866 165.75 334.285C165.945 334.633 166.135 334.984 166.32 335.336C166.528 335.731 166.73 336.127 166.926 336.526C167.104 336.89 167.277 337.256 167.444 337.623C167.626 338.024 167.803 338.427 167.973 338.831C168.126 339.195 168.273 339.56 168.415 339.927C168.586 340.367 168.748 340.81 168.902 341.253C169.024 341.602 169.143 341.951 169.255 342.301C169.426 342.837 169.579 343.374 169.724 343.91C169.806 344.21 169.892 344.51 169.965 344.809C170.203 345.783 170.401 346.754 170.55 347.719C170.623 348.198 170.675 348.673 170.725 349.148C170.751 349.392 170.789 349.638 170.808 349.881C170.867 350.61 170.901 351.333 170.901 352.047C170.901 358.005 168.797 362.194 165.401 364.139L175.111 358.579C178.507 356.635 180.611 352.446 180.611 346.487C180.611 345.774 180.577 345.051 180.518 344.321C180.499 344.079 180.461 343.833 180.435 343.589C180.39 343.162 180.354 342.738 180.29 342.308C180.282 342.259 180.267 342.209 180.26 342.159C180.111 341.195 179.913 340.224 179.675 339.25C179.656 339.171 179.648 339.094 179.628 339.015C179.572 338.794 179.494 338.572 179.434 338.351C179.289 337.814 179.136 337.279 178.965 336.743C178.92 336.6 178.888 336.456 178.84 336.314C178.771 336.105 178.684 335.899 178.611 335.691C178.457 335.249 178.297 334.809 178.126 334.37C178.058 334.193 178.002 334.014 177.931 333.838C177.854 333.647 177.762 333.46 177.682 333.27C177.512 332.866 177.336 332.464 177.154 332.065C177.067 331.874 176.992 331.679 176.902 331.489C176.818 331.313 176.722 331.142 176.636 330.967C176.44 330.567 176.238 330.172 176.03 329.777C175.927 329.581 175.835 329.38 175.729 329.185C175.644 329.029 175.547 328.88 175.46 328.726C175.225 328.306 174.982 327.894 174.734 327.482C174.611 327.279 174.499 327.068 174.373 326.866C174.298 326.746 174.214 326.634 174.138 326.515C173.818 326.015 173.486 325.526 173.149 325.041C173.013 324.845 172.889 324.64 172.75 324.447C172.707 324.387 172.658 324.333 172.614 324.273C172.021 323.456 171.403 322.666 170.762 321.901C170.731 321.864 170.703 321.822 170.672 321.785C170.483 321.563 170.283 321.359 170.091 321.142C169.763 320.771 169.437 320.399 169.099 320.045C168.851 319.785 168.594 319.541 168.341 319.291C168.007 318.96 167.675 318.629 167.332 318.316C167.259 318.248 167.189 318.173 167.115 318.106C166.99 317.994 166.857 317.902 166.731 317.792C166.171 317.303 165.601 316.839 165.022 316.399C164.805 316.234 164.59 316.069 164.371 315.911C163.623 315.367 162.848 314.861 162.049 314.396C161.941 314.334 161.833 314.273 161.725 314.214C161.479 314.078 161.241 313.979 160.998 313.855C160.657 313.682 160.314 313.501 159.978 313.352C159.685 313.222 159.4 313.12 159.112 313.008C158.783 312.881 158.453 312.747 158.13 312.643C158.065 312.622 157.998 312.589 157.933 312.569C157.495 312.433 157.064 312.323 156.638 312.229C156.55 312.21 156.465 312.198 156.377 312.18C156.119 312.128 155.858 312.073 155.605 312.036C155.405 312.007 155.211 311.992 155.015 311.973C154.942 311.966 154.869 311.955 154.797 311.95C154.432 311.92 154.072 311.902 153.72 311.906C153.645 311.906 153.576 311.922 153.502 311.924C153.195 311.933 152.899 311.967 152.602 312.001C152.43 312.021 152.248 312.018 152.079 312.046C152.022 312.055 151.971 312.077 151.914 312.087C151.643 312.137 151.384 312.212 151.122 312.284C150.946 312.332 150.76 312.359 150.588 312.417C150.543 312.432 150.503 312.457 150.458 312.473C150.194 312.567 149.946 312.688 149.694 312.804C149.531 312.88 149.357 312.934 149.199 313.019C149.131 313.055 149.064 313.093 148.998 313.131L139.288 318.69C139.51 318.563 139.752 318.471 139.985 318.364Z" fill="#FBC977" stroke="#231F20" stroke-width="2" mask="url(#path-74-inside-2_821_6824)"/>
<path d="M134.286 330.798C134.286 324.976 136.321 321.003 139.471 319.162C142.619 317.322 147.058 317.508 152.091 320.39C157.121 323.27 161.705 328.256 165.031 334.008C168.358 339.759 170.401 346.229 170.401 352.047C170.401 357.864 168.364 361.832 165.212 363.671C162.061 365.509 157.62 365.321 152.587 362.44C147.557 359.56 142.976 354.575 139.651 348.826C136.327 343.077 134.286 336.611 134.286 330.798Z" fill="#F89D1F" stroke="#231F20"/>
<path d="M162.212 358.74C167.663 355.619 167.706 345.473 162.308 336.079C156.91 326.685 148.115 321.6 142.664 324.721C137.213 327.842 137.17 337.987 142.568 347.382C147.966 356.776 156.761 361.861 162.212 358.74Z" fill="#C8B482"/>
<mask id="path-77-inside-3_821_6824" fill="white">
<path d="M123.111 380.569C125.652 379.113 127.226 375.978 127.23 371.514C127.227 370.981 127.204 370.442 127.156 369.895C127.141 369.713 127.118 369.526 127.096 369.347C127.057 368.99 127.018 368.633 126.965 368.28C126.853 367.553 126.704 366.828 126.528 366.099C126.471 365.876 126.408 365.654 126.347 365.428C126.239 365.025 126.124 364.625 125.997 364.223C125.911 363.959 125.822 363.698 125.729 363.436C125.614 363.107 125.495 362.775 125.369 362.446C125.262 362.175 125.153 361.898 125.035 361.626C124.907 361.32 124.774 361.022 124.641 360.725C124.514 360.448 124.387 360.172 124.252 359.898C124.105 359.604 123.954 359.307 123.802 359.011C123.662 358.746 123.52 358.485 123.374 358.221C123.195 357.909 123.014 357.602 122.828 357.292C122.68 357.051 122.535 356.806 122.384 356.57C122.143 356.192 121.893 355.827 121.643 355.462C121.509 355.271 121.381 355.078 121.244 354.892C120.795 354.281 120.337 353.688 119.853 353.117C119.691 352.922 119.519 352.733 119.347 352.545C119.106 352.268 118.865 351.992 118.612 351.727C118.426 351.53 118.233 351.347 118.042 351.16C117.795 350.915 117.545 350.664 117.29 350.433C117.143 350.295 116.988 350.17 116.835 350.04C116.652 349.881 116.469 349.722 116.284 349.567C116.042 349.374 115.801 349.181 115.559 349C115.397 348.877 115.237 348.749 115.073 348.63C114.505 348.226 113.927 347.839 113.335 347.497C113.07 347.345 112.811 347.225 112.547 347.091C112.293 346.962 112.036 346.827 111.787 346.719C111.568 346.622 111.35 346.545 111.134 346.462C110.892 346.364 110.645 346.264 110.404 346.184C110.256 346.141 110.114 346.107 109.963 346.068C109.573 345.952 109.176 345.86 108.775 345.795C108.607 345.764 108.437 345.738 108.271 345.714C107.99 345.683 107.717 345.669 107.446 345.662C107.277 345.654 107.103 345.644 106.938 345.65C106.713 345.658 106.488 345.677 106.264 345.709C106.091 345.729 105.916 345.742 105.75 345.771C105.549 345.81 105.351 345.859 105.156 345.919C104.986 345.964 104.819 346.005 104.655 346.06C104.458 346.132 104.274 346.223 104.086 346.311C103.909 346.388 103.731 346.459 103.563 346.553L142.675 324.716C142.725 324.692 142.773 324.66 142.824 324.635C142.943 324.573 143.076 324.529 143.198 324.474C143.386 324.386 143.57 324.295 143.767 324.223C143.8 324.212 143.832 324.198 143.863 324.183C143.995 324.14 144.134 324.118 144.265 324.086C144.46 324.025 144.658 323.976 144.859 323.939C144.902 323.928 144.94 323.914 144.982 323.902C145.106 323.884 145.243 323.886 145.376 323.873C145.596 323.844 145.818 323.823 146.05 323.813C146.104 323.814 146.153 323.801 146.214 323.8C146.323 323.797 146.442 323.818 146.558 323.825C146.833 323.83 147.108 323.849 147.381 323.882C147.464 323.893 147.541 323.884 147.624 323.896C147.706 323.908 147.799 323.944 147.882 323.956C148.273 324.025 148.669 324.116 149.075 324.231C149.173 324.258 149.266 324.263 149.366 324.297C149.416 324.314 149.463 324.335 149.513 324.352C149.755 324.432 150.001 324.532 150.247 324.625C150.462 324.708 150.676 324.783 150.899 324.882C151.146 324.994 151.402 325.13 151.661 325.262C151.841 325.354 152.02 325.427 152.202 325.526L152.445 325.665C153.044 326.011 153.624 326.389 154.182 326.798C154.347 326.917 154.509 327.04 154.671 327.163C154.775 327.241 154.877 327.324 154.983 327.409C155.312 327.658 155.634 327.928 155.952 328.206C156.042 328.288 156.14 328.356 156.235 328.441C156.29 328.491 156.342 328.545 156.397 328.594C156.655 328.832 156.907 329.079 157.161 329.333C157.347 329.518 157.536 329.698 157.719 329.887C157.977 330.155 158.22 330.439 158.465 330.718C158.611 330.879 158.758 331.029 158.896 331.193C158.921 331.221 158.944 331.25 158.965 331.28C159.444 331.849 159.907 332.444 160.351 333.052C160.383 333.101 160.42 333.14 160.455 333.184C160.557 333.326 160.648 333.48 160.748 333.627C161.005 333.99 161.252 334.36 161.496 334.733C161.551 334.825 161.611 334.907 161.669 334.994C161.764 335.15 161.847 335.306 161.938 335.46C162.126 335.765 162.307 336.072 162.479 336.386C162.548 336.504 162.62 336.617 162.685 336.732C162.762 336.878 162.83 337.03 162.911 337.179C163.066 337.471 163.217 337.767 163.362 338.065C163.423 338.196 163.499 338.324 163.561 338.455C163.629 338.596 163.688 338.743 163.749 338.886C163.886 339.186 164.016 339.488 164.147 339.79C164.208 339.933 164.276 340.073 164.333 340.213C164.383 340.344 164.426 340.476 164.476 340.607C164.607 340.939 164.726 341.27 164.843 341.606C164.899 341.758 164.959 341.912 165.013 342.068C165.048 342.172 165.069 342.28 165.105 342.384C165.236 342.788 165.349 343.193 165.459 343.592C165.5 343.758 165.56 343.924 165.601 344.091C165.616 344.148 165.624 344.206 165.637 344.267C165.816 344.991 165.963 345.721 166.073 346.441C166.079 346.481 166.089 346.516 166.098 346.551C166.144 346.876 166.171 347.19 166.203 347.507C166.223 347.692 166.253 347.876 166.268 348.058C166.312 348.603 166.339 349.144 166.335 349.679C166.338 354.141 164.762 357.281 162.221 358.737L123.111 380.569Z"/>
</mask>
<path d="M123.111 380.569C125.652 379.113 127.226 375.978 127.23 371.514C127.227 370.981 127.204 370.442 127.156 369.895C127.141 369.713 127.118 369.526 127.096 369.347C127.057 368.99 127.018 368.633 126.965 368.28C126.853 367.553 126.704 366.828 126.528 366.099C126.471 365.876 126.408 365.654 126.347 365.428C126.239 365.025 126.124 364.625 125.997 364.223C125.911 363.959 125.822 363.698 125.729 363.436C125.614 363.107 125.495 362.775 125.369 362.446C125.262 362.175 125.153 361.898 125.035 361.626C124.907 361.32 124.774 361.022 124.641 360.725C124.514 360.448 124.387 360.172 124.252 359.898C124.105 359.604 123.954 359.307 123.802 359.011C123.662 358.746 123.52 358.485 123.374 358.221C123.195 357.909 123.014 357.602 122.828 357.292C122.68 357.051 122.535 356.806 122.384 356.57C122.143 356.192 121.893 355.827 121.643 355.462C121.509 355.271 121.381 355.078 121.244 354.892C120.795 354.281 120.337 353.688 119.853 353.117C119.691 352.922 119.519 352.733 119.347 352.545C119.106 352.268 118.865 351.992 118.612 351.727C118.426 351.53 118.233 351.347 118.042 351.16C117.795 350.915 117.545 350.664 117.29 350.433C117.143 350.295 116.988 350.17 116.835 350.04C116.652 349.881 116.469 349.722 116.284 349.567C116.042 349.374 115.801 349.181 115.559 349C115.397 348.877 115.237 348.749 115.073 348.63C114.505 348.226 113.927 347.839 113.335 347.497C113.07 347.345 112.811 347.225 112.547 347.091C112.293 346.962 112.036 346.827 111.787 346.719C111.568 346.622 111.35 346.545 111.134 346.462C110.892 346.364 110.645 346.264 110.404 346.184C110.256 346.141 110.114 346.107 109.963 346.068C109.573 345.952 109.176 345.86 108.775 345.795C108.607 345.764 108.437 345.738 108.271 345.714C107.99 345.683 107.717 345.669 107.446 345.662C107.277 345.654 107.103 345.644 106.938 345.65C106.713 345.658 106.488 345.677 106.264 345.709C106.091 345.729 105.916 345.742 105.75 345.771C105.549 345.81 105.351 345.859 105.156 345.919C104.986 345.964 104.819 346.005 104.655 346.06C104.458 346.132 104.274 346.223 104.086 346.311C103.909 346.388 103.731 346.459 103.563 346.553L142.675 324.716C142.725 324.692 142.773 324.66 142.824 324.635C142.943 324.573 143.076 324.529 143.198 324.474C143.386 324.386 143.57 324.295 143.767 324.223C143.8 324.212 143.832 324.198 143.863 324.183C143.995 324.14 144.134 324.118 144.265 324.086C144.46 324.025 144.658 323.976 144.859 323.939C144.902 323.928 144.94 323.914 144.982 323.902C145.106 323.884 145.243 323.886 145.376 323.873C145.596 323.844 145.818 323.823 146.05 323.813C146.104 323.814 146.153 323.801 146.214 323.8C146.323 323.797 146.442 323.818 146.558 323.825C146.833 323.83 147.108 323.849 147.381 323.882C147.464 323.893 147.541 323.884 147.624 323.896C147.706 323.908 147.799 323.944 147.882 323.956C148.273 324.025 148.669 324.116 149.075 324.231C149.173 324.258 149.266 324.263 149.366 324.297C149.416 324.314 149.463 324.335 149.513 324.352C149.755 324.432 150.001 324.532 150.247 324.625C150.462 324.708 150.676 324.783 150.899 324.882C151.146 324.994 151.402 325.13 151.661 325.262C151.841 325.354 152.02 325.427 152.202 325.526L152.445 325.665C153.044 326.011 153.624 326.389 154.182 326.798C154.347 326.917 154.509 327.04 154.671 327.163C154.775 327.241 154.877 327.324 154.983 327.409C155.312 327.658 155.634 327.928 155.952 328.206C156.042 328.288 156.14 328.356 156.235 328.441C156.29 328.491 156.342 328.545 156.397 328.594C156.655 328.832 156.907 329.079 157.161 329.333C157.347 329.518 157.536 329.698 157.719 329.887C157.977 330.155 158.22 330.439 158.465 330.718C158.611 330.879 158.758 331.029 158.896 331.193C158.921 331.221 158.944 331.25 158.965 331.28C159.444 331.849 159.907 332.444 160.351 333.052C160.383 333.101 160.42 333.14 160.455 333.184C160.557 333.326 160.648 333.48 160.748 333.627C161.005 333.99 161.252 334.36 161.496 334.733C161.551 334.825 161.611 334.907 161.669 334.994C161.764 335.15 161.847 335.306 161.938 335.46C162.126 335.765 162.307 336.072 162.479 336.386C162.548 336.504 162.62 336.617 162.685 336.732C162.762 336.878 162.83 337.03 162.911 337.179C163.066 337.471 163.217 337.767 163.362 338.065C163.423 338.196 163.499 338.324 163.561 338.455C163.629 338.596 163.688 338.743 163.749 338.886C163.886 339.186 164.016 339.488 164.147 339.79C164.208 339.933 164.276 340.073 164.333 340.213C164.383 340.344 164.426 340.476 164.476 340.607C164.607 340.939 164.726 341.27 164.843 341.606C164.899 341.758 164.959 341.912 165.013 342.068C165.048 342.172 165.069 342.28 165.105 342.384C165.236 342.788 165.349 343.193 165.459 343.592C165.5 343.758 165.56 343.924 165.601 344.091C165.616 344.148 165.624 344.206 165.637 344.267C165.816 344.991 165.963 345.721 166.073 346.441C166.079 346.481 166.089 346.516 166.098 346.551C166.144 346.876 166.171 347.19 166.203 347.507C166.223 347.692 166.253 347.876 166.268 348.058C166.312 348.603 166.339 349.144 166.335 349.679C166.338 354.141 164.762 357.281 162.221 358.737L123.111 380.569Z" fill="#F9C166" stroke="#231F20" stroke-width="2" mask="url(#path-77-inside-3_821_6824)"/>
<path d="M123.111 380.571C128.562 377.45 128.605 367.304 123.207 357.91C117.809 348.516 109.014 343.431 103.563 346.552C98.1117 349.673 98.0685 359.819 103.467 369.213C108.864 378.607 117.659 383.692 123.111 380.571Z" fill="#C8B482"/>
<path d="M162.221 358.736L125.362 379.312C125.61 379.016 125.839 378.696 126.05 378.356M162.221 358.736C164.714 357.308 166.279 354.257 166.334 349.926L165.828 350.209M162.221 358.736L161.977 358.3L161.975 358.301C164.208 357.02 165.711 354.272 165.828 350.209M162.221 358.736L161.972 358.303L126.05 378.356M165.828 350.209C165.833 350.035 165.835 349.858 165.835 349.679L165.835 349.675C165.835 349.66 165.835 349.646 165.835 349.632L127.215 371.191M165.828 350.209L127.73 371.476M127.215 371.191C127.216 371.24 127.219 371.29 127.223 371.34C127.226 371.398 127.23 371.456 127.23 371.514C127.227 374.705 126.422 377.217 125.035 378.922L126.05 378.356M127.215 371.191L127.395 371.513L127.395 371.514L127.459 371.627L127.662 371.514L127.667 371.511L127.73 371.476M127.215 371.191L127.715 371.18C127.716 371.219 127.718 371.259 127.722 371.312L127.722 371.321C127.725 371.366 127.728 371.42 127.73 371.476M126.05 378.356C127.132 376.607 127.728 374.286 127.73 371.514L127.73 371.511C127.73 371.499 127.73 371.488 127.73 371.476" fill="#F28F2C" stroke="#231F20"/>
<path d="M120.948 403.413C125.301 401.802 129.513 399.835 133.542 397.532C155.335 384.973 161.373 366.751 151.633 351.092C147.962 345.19 142.049 339.649 133.888 334.918C124.732 329.605 113.809 325.926 102.201 323.88C76.0382 319.262 46.3876 322.939 25.6061 334.917C24.4728 335.571 23.3815 336.241 22.3322 336.925C-4.36384 354.316 -3.42708 380.895 25.2453 397.53C51.1661 412.564 91.2171 414.526 120.948 403.413Z" fill="#FF8666"/>
<path d="M120.774 402.944L120.773 402.944C91.1636 414.012 51.2712 412.047 25.4962 397.098C11.2487 388.831 3.99625 378.158 3.5251 367.489C3.05418 356.824 9.35045 345.978 22.6051 337.344L22.6052 337.344C23.6467 336.665 24.7303 336 25.8561 335.35C46.5146 323.444 76.0404 319.77 102.114 324.372L102.114 324.372C113.677 326.41 124.541 330.073 133.637 335.35L133.637 335.35C141.745 340.051 147.59 345.538 151.208 351.356L151.633 351.092L151.208 351.356C156.002 359.062 156.903 367.371 153.944 375.3C150.98 383.243 144.121 390.858 133.294 397.098C129.289 399.388 125.102 401.343 120.774 402.944Z" fill="#FBC977" stroke="#231F20"/>
<path d="M3 366.446L3.0314 377.503C3.0634 388.76 10.4739 415.126 25.2767 423.713C55.0837 441.004 103.572 425.878 133.575 408.587C148.67 399.888 156.208 403.595 156.176 392.194L156.144 366.011C156.177 377.412 148.639 388.831 133.543 397.531C103.541 414.821 55.0523 414.821 25.2453 397.53C10.4425 388.943 3.03197 377.704 3 366.446Z" fill="#D69746"/>
<path d="M124.306 340.441C148.816 354.659 148.677 377.791 124.015 392.004C99.3445 406.222 59.3461 406.222 34.8359 392.004C10.3337 377.79 10.4563 354.659 35.1267 340.441C59.7893 326.228 99.8035 326.228 124.306 340.441ZM118.459 388.781C140.038 376.345 140.16 356.105 118.714 343.664C97.2754 331.228 62.261 331.228 40.6822 343.664C19.0956 356.104 18.9893 376.345 40.4278 388.781C61.8741 401.222 96.8728 401.222 118.459 388.781Z" fill="#F7931A"/>
<path d="M133.793 397.964C145.803 391.042 153.13 382.365 155.653 373.278L155.676 392.194L155.676 392.195C155.707 403.354 148.329 414.633 133.325 423.28C131.927 424.086 130.48 424.848 128.999 425.578L128.999 400.493C130.638 399.694 132.243 398.857 133.793 397.964Z" fill="#F7931A" stroke="#231F20" stroke-linecap="round" stroke-linejoin="bevel"/>
<path d="M76.4978 436.147L76.4978 410.964C94.6684 411.348 113.058 408.02 127.999 400.973L127.999 426.064C113.14 433.168 94.7231 436.539 76.4978 436.147Z" fill="#F89D1F" stroke="#231F20"/>
<path d="M29.5237 425.424L29.5237 400.374C42.8106 406.948 59.0437 410.469 75.4978 410.94L75.4978 436.122C58.9802 435.641 42.7264 432.066 29.5237 425.424Z" fill="#F9B142" stroke="#231F20"/>
<path d="M3.53137 392.628L3.5086 373.626C6.02094 382.587 13.2171 391.131 24.9944 397.963C26.1431 398.629 27.3265 399.259 28.5237 399.87L28.5237 424.913C27.504 424.386 26.5015 423.846 25.5276 423.281C10.8162 414.747 3.56265 403.646 3.53137 392.628Z" fill="#F9C166" stroke="#231F20"/>
</g>
</g>
<g clip-path="url(#clip3_821_6824)">
<path d="M321.286 105.985C320.097 103.304 318.48 100.834 316.497 98.6727C319.776 98.0974 321.467 95.718 321.572 91.5348C321.665 87.7201 320.392 83.7757 317.754 79.7017C315.305 75.809 311.936 72.5783 307.944 70.2942L305.794 69.083L305.982 61.4091L301.222 58.727L301.034 66.4005L298.905 65.2011L299.093 57.5277L294.333 54.8451L294.145 62.5191L290.61 60.5268L289.024 59.6333L279.855 54.4668L279.673 61.9148L288.842 67.0808L288.026 100.456L278.857 95.2896L278.675 102.738L287.844 107.904L289.43 108.798L292.966 110.79L292.79 117.963L297.55 120.645L297.726 113.472L299.854 114.672L299.679 121.844L304.439 124.526L304.614 117.354L308.261 119.409C312.254 121.658 315.666 122.253 318.499 121.193C321.331 120.131 322.795 117.624 322.892 113.671C322.929 111.022 322.381 108.398 321.286 105.985ZM312.074 82.0236C313.151 83.6612 313.728 85.5778 313.732 87.5384C313.688 89.3308 313.062 90.5039 311.853 91.0575C310.643 91.6111 309.176 91.4018 307.452 90.4298L296.358 84.1787L296.668 71.4911L307.762 77.7417C309.545 78.7721 311.031 80.2475 312.074 82.0236ZM313.086 112.585C311.806 113.192 310.259 112.985 308.444 111.961L295.852 104.866L296.183 91.3514L308.774 98.4464C310.661 99.5403 312.229 101.11 313.32 102.999C314.456 104.739 315.065 106.769 315.074 108.847C315.028 110.732 314.365 111.978 313.086 112.585Z" fill="#1A1E42"/>
</g>
<path d="M184.686 502.532L184.68 491.31C184.68 491.141 184.635 490.975 184.551 490.829C184.467 490.682 184.346 490.561 184.2 490.476L170.529 482.53C170.382 482.445 170.216 482.401 170.047 482.4H150.645C150.476 482.4 150.31 482.445 150.164 482.529L136.459 490.475C136.313 490.56 136.191 490.682 136.107 490.829C136.023 490.975 135.978 491.142 135.979 491.311V507.892C135.978 508.061 136.023 508.227 136.107 508.374C136.191 508.52 136.313 508.642 136.459 508.727L150.164 516.678C150.186 516.691 150.21 516.696 150.233 516.707C150.26 516.72 150.287 516.731 150.315 516.741C150.42 516.783 150.532 516.806 150.645 516.808H170.047C170.16 516.806 170.273 516.783 170.378 516.741C170.405 516.731 170.431 516.721 170.457 516.708C170.481 516.697 170.506 516.692 170.529 516.678L184.206 508.727C184.352 508.642 184.473 508.52 184.557 508.373C184.641 508.227 184.686 508.061 184.686 507.892V502.533L184.686 502.533L184.686 502.532Z" fill="#231F20"/>
<path d="M170.047 515.843L183.724 507.891V502.533L167.827 507.124L170.047 515.843Z" fill="#F9C166"/>
<path d="M150.645 515.843L136.94 507.891V502.533L152.586 507.668L150.645 515.843Z" fill="#F9C166"/>
<path d="M150.645 515.844H170.047V510.478L160.903 507.124L150.645 510.478V515.844Z" fill="#FDB45C"/>
<path d="M136.94 502.534L150.645 510.478H170.047L183.724 502.534L183.719 491.312L170.047 483.365H150.645L136.94 491.312V502.534Z" fill="#FBD9A2"/>
<path d="M139.172 491.819V493.137L151.581 485.949H169.104L181.505 493.137V491.819L169.104 484.67L151.581 484.672L139.172 491.819Z" fill="#FDB45C"/>
<path d="M139.171 493.137V502.01L151.581 509.201H169.103L181.504 502.001V493.137L169.103 485.949H151.581L139.171 493.137Z" fill="#F9C166"/>
<path d="M164.423 499.777C164.537 499.574 164.601 499.346 164.609 499.113C164.617 498.88 164.569 498.649 164.469 498.438C165.781 498.517 167.088 498.215 168.232 497.569C169.245 496.987 169.77 496.324 169.807 495.579C169.843 494.835 169.398 494.207 168.473 493.693L167.963 493.411L170 492.24L168.871 491.614L166.834 492.785L166.329 492.505L168.366 491.334L167.237 490.708L165.201 491.879L164.362 491.414L163.985 491.206L161.811 490L159.834 491.137L162.009 492.342L153.151 497.434L150.977 496.228L149 497.365L151.175 498.57L151.551 498.779L152.39 499.244L150.486 500.338L151.615 500.964L153.519 499.869L154.023 500.149L152.12 501.243L153.249 501.869L155.153 500.775L156.018 501.255C157.08 501.805 158.271 502.059 159.466 501.989C160.728 501.977 161.966 501.647 163.068 501.03C163.629 500.749 164.099 500.314 164.423 499.777ZM167.045 495.681C166.996 495.885 166.9 496.074 166.764 496.234C166.629 496.394 166.459 496.521 166.266 496.603C165.771 496.882 165.216 497.039 164.648 497.059C164.124 497.106 163.598 497.004 163.129 496.765L160.498 495.307L163.865 493.371L166.497 494.83C166.906 495.056 167.088 495.34 167.045 495.681ZM159.605 500.423C159.05 500.476 158.491 500.371 157.994 500.119L155.008 498.463L158.595 496.401L161.581 498.057C161.761 498.124 161.915 498.249 162.017 498.413C162.12 498.576 162.166 498.768 162.149 498.96C162.095 499.176 161.992 499.376 161.849 499.546C161.705 499.715 161.525 499.849 161.321 499.938C160.795 500.232 160.207 500.399 159.605 500.423Z" fill="#1A1E42"/>
<path d="M514.361 551.406C514.497 551.169 514.572 550.904 514.582 550.632C514.591 550.36 514.534 550.09 514.416 549.845C515.977 549.937 517.533 549.585 518.896 548.831C520.101 548.152 520.726 547.378 520.77 546.509C520.813 545.641 520.284 544.908 519.182 544.309L518.575 543.979L521 542.613L519.656 541.883L517.231 543.249L516.63 542.922L519.055 541.557L517.711 540.826L515.286 542.192L514.288 541.65L513.84 541.407L511.251 540L508.898 541.326L511.487 542.732L500.942 548.673L498.353 547.266L496 548.592L498.589 549.998L499.037 550.242L500.035 550.784L497.769 552.061L499.113 552.791L501.379 551.514L501.98 551.841L499.714 553.117L501.058 553.848L503.325 552.571L504.354 553.131C505.619 553.773 507.037 554.069 508.459 553.987C509.962 553.973 511.436 553.588 512.747 552.868C513.415 552.54 513.975 552.033 514.361 551.406ZM517.482 546.628C517.423 546.866 517.309 547.087 517.148 547.273C516.987 547.46 516.784 547.608 516.555 547.704C515.965 548.029 515.304 548.212 514.628 548.236C514.005 548.291 513.378 548.172 512.82 547.893L509.688 546.191L513.697 543.933L516.829 545.634C517.316 545.899 517.534 546.23 517.482 546.628ZM508.625 552.16C507.964 552.222 507.299 552.099 506.707 551.805L503.152 549.873L507.422 547.468L510.977 549.399C511.192 549.478 511.375 549.624 511.497 549.815C511.619 550.005 511.674 550.23 511.654 550.454C511.59 550.705 511.467 550.939 511.296 551.137C511.125 551.334 510.91 551.491 510.668 551.594C510.042 551.938 509.342 552.132 508.625 552.16Z" fill="#1A1E42"/>
<g opacity="0.3" filter="url(#filter4_f_821_6824)">
<path d="M222.015 585.762V601.911L243.749 615H274.436L296.155 601.895V585.762L274.436 572.68H243.749L222.015 585.762Z" fill="#010101"/>
</g>
<path d="M223.899 592.273L244.496 604.212H273.656L294.211 592.273L294.203 575.408L273.656 563.465H244.496L223.899 575.408V592.273Z" fill="#FCE0BF"/>
<path d="M295.656 592.271L295.648 575.406C295.648 575.152 295.581 574.903 295.455 574.683C295.328 574.463 295.146 574.28 294.927 574.153L274.38 562.211C274.16 562.083 273.91 562.016 273.656 562.016H244.497C244.243 562.015 243.993 562.082 243.773 562.21L223.177 574.152C222.957 574.279 222.775 574.462 222.648 574.683C222.521 574.903 222.455 575.153 222.455 575.407V600.326C222.455 600.581 222.521 600.831 222.648 601.051C222.775 601.271 222.957 601.454 223.177 601.581L243.773 613.531C243.807 613.551 243.844 613.559 243.878 613.575C243.919 613.595 243.959 613.611 244.001 613.627C244.159 613.689 244.327 613.723 244.497 613.727H273.656C273.827 613.723 273.995 613.689 274.154 613.626C274.195 613.611 274.233 613.596 274.272 613.577C274.308 613.56 274.346 613.552 274.381 613.531L294.936 601.581C295.155 601.454 295.337 601.271 295.463 601.05C295.59 600.83 295.656 600.581 295.656 600.326V592.273L295.656 592.272L295.656 592.271Z" fill="#231F20"/>
<path d="M273.657 612.277L294.211 600.326V592.273L270.32 599.173L273.657 612.277Z" fill="#F9C166"/>
<path d="M244.496 612.277L223.899 600.326V592.273L247.415 599.991L244.496 612.277Z" fill="#F9C166"/>
<path d="M244.496 612.278H273.656V604.213L259.914 599.173L244.496 604.213V612.278Z" fill="#FDB45C"/>
<path d="M223.899 592.273L244.496 604.212H273.656L294.211 592.273L294.203 575.408L273.656 563.465H244.496L223.899 575.408V592.273Z" fill="#FBD9A2"/>
<path d="M227.253 578.151V591.486L245.904 602.294H272.238L290.875 591.473V578.151L272.238 567.349H245.904L227.253 578.151Z" fill="#F9C166"/>
<path d="M227.253 576.17V578.151L245.904 567.348H272.238L290.875 578.151V576.17L272.238 565.426L245.904 565.429L227.253 576.17Z" fill="#FDB45C"/>
<g clip-path="url(#clip4_821_6824)">
<path d="M254.849 585.374L272.032 575.454L267.946 588.721L254.849 585.374Z" fill="#1A1E42"/>
<path d="M253.126 586.369L243.448 591.956L266.237 589.708L253.126 586.369Z" fill="#1A1E42"/>
<path d="M254.849 585.374L272.032 575.454L249.051 577.813L254.849 585.374Z" fill="#272C59"/>
<path d="M253.126 586.369L243.447 591.956L247.342 578.8L253.126 586.369Z" fill="#272C59"/>
</g>
<path d="M485.096 479.401L485.092 471.273C485.092 471.151 485.06 471.03 484.999 470.924C484.938 470.818 484.85 470.73 484.745 470.669L474.842 464.914C474.736 464.852 474.616 464.819 474.493 464.819H460.439C460.317 464.819 460.197 464.851 460.091 464.913L450.164 470.668C450.058 470.73 449.97 470.818 449.909 470.924C449.848 471.031 449.816 471.151 449.816 471.274V483.284C449.816 483.406 449.848 483.527 449.909 483.633C449.97 483.739 450.058 483.827 450.164 483.888L460.091 489.648C460.107 489.657 460.125 489.661 460.141 489.669C460.161 489.679 460.18 489.686 460.201 489.694C460.277 489.724 460.357 489.74 460.439 489.742H474.493C474.575 489.74 474.656 489.724 474.733 489.694C474.753 489.686 474.771 489.679 474.79 489.67C474.807 489.662 474.826 489.658 474.842 489.648L484.749 483.888C484.855 483.827 484.942 483.739 485.003 483.633C485.064 483.527 485.096 483.406 485.096 483.284V479.402L485.096 479.402L485.096 479.401Z" fill="#231F20"/>
<path d="M474.493 489.043L484.4 483.283V479.402L472.885 482.727L474.493 489.043Z" fill="#F9C166"/>
<path d="M460.439 489.043L450.512 483.283V479.402L461.846 483.122L460.439 489.043Z" fill="#F9C166"/>
<path d="M460.439 489.043H474.493V485.157L467.87 482.728L460.439 485.157V489.043Z" fill="#FDB45C"/>
<path d="M450.512 479.402L460.439 485.156H474.493L484.4 479.402L484.396 471.274L474.493 465.518H460.439L450.512 471.274V479.402Z" fill="#FBD9A2"/>
<path d="M452.128 472.596V479.023L461.117 484.232H473.809L482.792 479.016V472.596L473.809 467.39H461.117L452.128 472.596Z" fill="#F9C166"/>
<path d="M452.129 471.641V472.596L461.117 467.39H473.81L482.792 472.596V471.641L473.81 466.463L461.117 466.464L452.129 471.641Z" fill="#FDB45C"/>
<g clip-path="url(#clip5_821_6824)">
<path d="M466.782 475.477L474.021 471.298L472.299 476.886L466.782 475.477Z" fill="#1A1E42"/>
<path d="M466.057 475.895L461.98 478.248L471.579 477.301L466.057 475.895Z" fill="#1A1E42"/>
<path d="M466.782 475.476L474.02 471.297L464.34 472.291L466.782 475.476Z" fill="#272C59"/>
<path d="M466.057 475.895L461.98 478.249L463.62 472.707L466.057 475.895Z" fill="#272C59"/>
</g>
<defs>
<filter id="filter0_f_821_6824" x="33" y="320.86" width="404.435" height="257.784" filterUnits="userSpaceOnUse" color-interpolation-filters="sRGB">
<feFlood flood-opacity="0" result="BackgroundImageFix"/>
<feBlend mode="normal" in="SourceGraphic" in2="BackgroundImageFix" result="shape"/>
<feGaussianBlur stdDeviation="10" result="effect1_foregroundBlur_821_6824"/>
</filter>
<filter id="filter1_f_821_6824" x="131.686" y="485.497" width="57.3313" height="36.1592" filterUnits="userSpaceOnUse" color-interpolation-filters="sRGB">
<feFlood flood-opacity="0" result="BackgroundImageFix"/>
<feBlend mode="normal" in="SourceGraphic" in2="BackgroundImageFix" result="shape"/>
<feGaussianBlur stdDeviation="2" result="effect1_foregroundBlur_821_6824"/>
</filter>
<filter id="filter2_f_821_6824" x="445.604" y="465.959" width="43.7324" height="28.3965" filterUnits="userSpaceOnUse" color-interpolation-filters="sRGB">
<feFlood flood-opacity="0" result="BackgroundImageFix"/>
<feBlend mode="normal" in="SourceGraphic" in2="BackgroundImageFix" result="shape"/>
<feGaussianBlur stdDeviation="2" result="effect1_foregroundBlur_821_6824"/>
</filter>
<filter id="filter3_f_821_6824" x="477.845" y="534.813" width="63.1553" height="39.4834" filterUnits="userSpaceOnUse" color-interpolation-filters="sRGB">
<feFlood flood-opacity="0" result="BackgroundImageFix"/>
<feBlend mode="normal" in="SourceGraphic" in2="BackgroundImageFix" result="shape"/>
<feGaussianBlur stdDeviation="2" result="effect1_foregroundBlur_821_6824"/>
</filter>
<filter id="filter4_f_821_6824" x="218.015" y="568.68" width="82.1396" height="50.3203" filterUnits="userSpaceOnUse" color-interpolation-filters="sRGB">
<feFlood flood-opacity="0" result="BackgroundImageFix"/>
<feBlend mode="normal" in="SourceGraphic" in2="BackgroundImageFix" result="shape"/>
<feGaussianBlur stdDeviation="2" result="effect1_foregroundBlur_821_6824"/>
</filter>
<clipPath id="clip0_821_6824">
<rect width="35.048" height="72.756" fill="white" transform="translate(154 120.474) rotate(-12.3129)"/>
</clipPath>
<clipPath id="clip1_821_6824">
<rect width="23.3834" height="29" fill="white" transform="translate(286 390)"/>
</clipPath>
<clipPath id="clip2_821_6824">
<rect width="226.351" height="149.677" fill="white" transform="translate(3 287)"/>
</clipPath>
<clipPath id="clip3_821_6824">
<rect width="44.4712" height="69.438" fill="white" transform="translate(279 55)"/>
</clipPath>
<clipPath id="clip4_821_6824">
<rect width="21.8176" height="33.0061" fill="white" transform="matrix(0.866044 0.499967 -0.866044 0.499967 262.585 570)"/>
</clipPath>
<clipPath id="clip5_821_6824">
<rect width="9.19027" height="13.9032" fill="white" transform="matrix(0.866044 0.499967 -0.866044 0.499967 470.041 469)"/>
</clipPath>
</defs>
</svg>
