<svg width="44" height="44" viewBox="0 0 44 44" fill="none" xmlns="http://www.w3.org/2000/svg">
<path d="M8.25004 30.2498C5.50004 32.5598 4.58337 39.4165 4.58337 39.4165C4.58337 39.4165 11.44 38.4998 13.75 35.7498C15.0517 34.2098 15.0334 31.8448 13.585 30.4148C12.8724 29.7347 11.9337 29.3416 10.9491 29.3112C9.9645 29.2807 9.00331 29.615 8.25004 30.2498Z" fill="#F7931A" fill-opacity="0.1"/>
<path d="M22 27.4998L16.5 21.9998C17.4756 19.4688 18.7041 17.0426 20.1667 14.7581C22.3029 11.3426 25.2773 8.53039 28.8072 6.58897C32.3371 4.64755 36.3049 3.64148 40.3334 3.66647C40.3334 8.65314 38.9034 17.4165 29.3334 23.8331C27.0177 25.2975 24.5609 26.5258 22 27.4998Z" fill="#F7931A" fill-opacity="0.1"/>
<path d="M16.5 21.9998H7.33337C7.33337 21.9998 8.34171 16.4448 11 14.6665C13.97 12.6865 20.1667 14.6665 20.1667 14.6665" fill="#F7931A" fill-opacity="0.1"/>
<path d="M22 27.4998V36.6665C22 36.6665 27.555 35.6581 29.3334 32.9998C31.3134 30.0298 29.3334 23.8331 29.3334 23.8331" fill="#F7931A" fill-opacity="0.1"/>
<path d="M22 27.4998L16.5 21.9998M22 27.4998C24.5609 26.5258 27.0177 25.2975 29.3334 23.8331M22 27.4998V36.6665C22 36.6665 27.555 35.6581 29.3334 32.9998C31.3134 30.0298 29.3334 23.8331 29.3334 23.8331M16.5 21.9998C17.4756 19.4688 18.7041 17.0426 20.1667 14.7581C22.3029 11.3426 25.2773 8.53039 28.8072 6.58897C32.3371 4.64755 36.3049 3.64148 40.3334 3.66647C40.3334 8.65314 38.9034 17.4165 29.3334 23.8331M16.5 21.9998H7.33337C7.33337 21.9998 8.34171 16.4448 11 14.6665C13.97 12.6865 20.1667 14.6665 20.1667 14.6665M8.25004 30.2498C5.50004 32.5598 4.58337 39.4165 4.58337 39.4165C4.58337 39.4165 11.44 38.4998 13.75 35.7498C15.0517 34.2098 15.0334 31.8448 13.585 30.4148C12.8724 29.7347 11.9337 29.3416 10.9491 29.3112C9.9645 29.2807 9.00331 29.615 8.25004 30.2498Z" stroke="#F7931A" stroke-width="3" stroke-linecap="round" stroke-linejoin="round"/>
</svg>
