<svg width="45" height="44" viewBox="0 0 45 44" fill="none" xmlns="http://www.w3.org/2000/svg">
<path d="M33.3001 38.4999C35.3536 38.4999 36.3804 38.4999 37.1647 38.1003C37.8546 37.7487 38.4156 37.1878 38.7671 36.4979C39.1667 35.7135 39.1667 34.6868 39.1667 32.6333V20.5333C39.1667 18.4797 39.1667 17.453 38.7671 16.6686C38.4156 15.9787 37.8546 15.4178 37.1647 15.0662C36.3804 14.6666 35.3536 14.6666 33.3001 14.6666L12.0334 14.6666C9.97989 14.6666 8.95313 14.6666 8.16878 15.0662C7.47886 15.4178 6.91793 15.9787 6.56639 16.6686C6.16675 17.453 6.16675 18.4797 6.16675 20.5333L6.16675 32.6333C6.16675 34.6868 6.16675 35.7135 6.56639 36.4979C6.91793 37.1878 7.47886 37.7487 8.16878 38.1003C8.95313 38.4999 9.97989 38.4999 12.0334 38.4999H33.3001Z" fill="#F7931A" fill-opacity="0.1"/>
<path d="M31.8334 26.5833C31.8334 27.0895 31.423 27.4999 30.9167 27.4999C30.4105 27.4999 30.0001 27.0895 30.0001 26.5833C30.0001 26.077 30.4105 25.6666 30.9167 25.6666C31.423 25.6666 31.8334 26.077 31.8334 26.5833Z" fill="#F7931A" fill-opacity="0.1"/>
<path d="M30.0001 14.6666V8.25113C30.0001 6.72627 30.0001 5.96385 29.6789 5.4953C29.3982 5.08593 28.9636 4.80784 28.4743 4.72458C27.9143 4.62928 27.222 4.94878 25.8375 5.58778L9.57494 13.0936C8.34018 13.6635 7.72279 13.9484 7.27061 14.3903C6.87085 14.781 6.56571 15.2579 6.37851 15.7846C6.16675 16.3804 6.16675 17.0603 6.16675 18.4203V27.4999M30.9167 26.5833H30.9351M6.16675 20.5333L6.16675 32.6333C6.16675 34.6868 6.16675 35.7135 6.56639 36.4979C6.91793 37.1878 7.47886 37.7487 8.16878 38.1003C8.95313 38.4999 9.97989 38.4999 12.0334 38.4999H33.3001C35.3536 38.4999 36.3804 38.4999 37.1647 38.1003C37.8546 37.7487 38.4156 37.1878 38.7671 36.4979C39.1667 35.7135 39.1667 34.6868 39.1667 32.6333V20.5333C39.1667 18.4797 39.1667 17.453 38.7671 16.6686C38.4156 15.9787 37.8546 15.4178 37.1647 15.0662C36.3804 14.6666 35.3536 14.6666 33.3001 14.6666L12.0334 14.6666C9.97989 14.6666 8.95313 14.6666 8.16878 15.0662C7.47886 15.4178 6.91793 15.9787 6.56639 16.6686C6.16675 17.453 6.16675 18.4797 6.16675 20.5333ZM31.8334 26.5833C31.8334 27.0895 31.423 27.4999 30.9167 27.4999C30.4105 27.4999 30.0001 27.0895 30.0001 26.5833C30.0001 26.077 30.4105 25.6666 30.9167 25.6666C31.423 25.6666 31.8334 26.077 31.8334 26.5833Z" stroke="#F7931A" stroke-width="3" stroke-linecap="round" stroke-linejoin="round"/>
</svg>
