<svg width="45" height="44" viewBox="0 0 45 44" fill="none" xmlns="http://www.w3.org/2000/svg">
<path d="M22.3331 27.5003C25.3707 27.5003 27.8331 25.0379 27.8331 22.0003C27.8331 18.9628 25.3707 16.5003 22.3331 16.5003C19.2955 16.5003 16.8331 18.9628 16.8331 22.0003C16.8331 25.0379 19.2955 27.5003 22.3331 27.5003Z" fill="#F7931A" fill-opacity="0.1"/>
<path d="M34.6664 27.0003C34.4446 27.503 34.3784 28.0606 34.4764 28.6013C34.5744 29.142 34.8322 29.6409 35.2164 30.0337L35.3164 30.1337C35.6263 30.4432 35.8722 30.8109 36.04 31.2155C36.2077 31.6202 36.294 32.0539 36.294 32.492C36.294 32.93 36.2077 33.3638 36.04 33.7685C35.8722 34.1731 35.6263 34.5407 35.3164 34.8503C35.0068 35.1602 34.6392 35.4061 34.2346 35.5739C33.8299 35.7416 33.3961 35.8279 32.9581 35.8279C32.52 35.8279 32.0863 35.7416 31.6816 35.5739C31.277 35.4061 30.9093 35.1602 30.5998 34.8503L30.4998 34.7503C30.107 34.3661 29.6081 34.1083 29.0674 34.0103C28.5267 33.9123 27.9691 33.9785 27.4664 34.2003C26.9735 34.4116 26.5531 34.7624 26.2569 35.2096C25.9608 35.6567 25.8019 36.1807 25.7998 36.717V37.0003C25.7998 37.8844 25.4486 38.7322 24.8234 39.3573C24.1983 39.9825 23.3505 40.3337 22.4664 40.3337C21.5824 40.3337 20.7345 39.9825 20.1094 39.3573C19.4843 38.7322 19.1331 37.8844 19.1331 37.0003V36.8503C19.1202 36.2987 18.9416 35.7636 18.6206 35.3148C18.2996 34.866 17.851 34.5241 17.3331 34.3337C16.8304 34.1118 16.2728 34.0456 15.7321 34.1437C15.1914 34.2417 14.6926 34.4994 14.2998 34.8837L14.1998 34.9837C13.8902 35.2936 13.5226 35.5394 13.1179 35.7072C12.7132 35.8749 12.2795 35.9613 11.8414 35.9613C11.4034 35.9613 10.9696 35.8749 10.565 35.7072C10.1603 35.5394 9.79267 35.2936 9.48309 34.9837C9.17317 34.6741 8.9273 34.3065 8.75956 33.9018C8.59181 33.4971 8.50547 33.0634 8.50547 32.6253C8.50547 32.1873 8.59181 31.7535 8.75956 31.3489C8.9273 30.9442 9.17317 30.5766 9.48309 30.267L9.58309 30.167C9.96732 29.7742 10.2251 29.2753 10.3231 28.7346C10.4211 28.194 10.3549 27.6364 10.1331 27.1337C9.92182 26.6407 9.57101 26.2203 9.12386 25.9242C8.67671 25.628 8.15273 25.4691 7.61642 25.467H7.33309C6.44903 25.467 5.60119 25.1158 4.97607 24.4907C4.35095 23.8656 3.99976 23.0177 3.99976 22.1337C3.99976 21.2496 4.35095 20.4018 4.97607 19.7766C5.60119 19.1515 6.44903 18.8003 7.33309 18.8003H7.48309C8.03475 18.7874 8.56976 18.6089 9.01859 18.2878C9.46741 17.9668 9.80928 17.5182 9.99976 17.0003C10.2216 16.4976 10.2878 15.94 10.1898 15.3993C10.0917 14.8587 9.83398 14.3598 9.44976 13.967L9.34976 13.867C9.03983 13.5574 8.79397 13.1898 8.62622 12.7851C8.45848 12.3805 8.37213 11.9467 8.37213 11.5087C8.37213 11.0706 8.45848 10.6369 8.62622 10.2322C8.79397 9.82753 9.03983 9.4599 9.34976 9.15033C9.65933 8.8404 10.027 8.59454 10.4316 8.42679C10.8363 8.25905 11.27 8.1727 11.7081 8.1727C12.1461 8.1727 12.5799 8.25905 12.9846 8.42679C13.3892 8.59454 13.7568 8.8404 14.0664 9.15033L14.1664 9.25033C14.5592 9.63455 15.0581 9.8923 15.5988 9.99033C16.1394 10.0884 16.6971 10.0222 17.1998 9.80032H17.3331C17.826 9.58905 18.2465 9.23825 18.5426 8.7911C18.8387 8.34395 18.9976 7.81997 18.9998 7.28366V7.00033C18.9998 6.11627 19.3509 5.26842 19.9761 4.6433C20.6012 4.01818 21.449 3.66699 22.3331 3.66699C23.2171 3.66699 24.065 4.01818 24.6901 4.6433C25.3152 5.26842 25.6664 6.11627 25.6664 7.00033V7.15033C25.6686 7.68664 25.8275 8.21062 26.1236 8.65777C26.4197 9.10492 26.8401 9.45572 27.3331 9.66699C27.8358 9.88885 28.3934 9.95503 28.9341 9.857C29.4747 9.75897 29.9736 9.50122 30.3664 9.11699L30.4664 9.01699C30.776 8.70707 31.1436 8.46121 31.5483 8.29346C31.9529 8.12571 32.3867 8.03937 32.8248 8.03937C33.2628 8.03937 33.6966 8.12571 34.1012 8.29346C34.5059 8.46121 34.8735 8.70707 35.1831 9.01699C35.493 9.32657 35.7389 9.6942 35.9066 10.0989C36.0744 10.5035 36.1607 10.9373 36.1607 11.3753C36.1607 11.8134 36.0744 12.2471 35.9066 12.6518C35.7389 13.0565 35.493 13.4241 35.1831 13.7337L35.0831 13.8337C34.6989 14.2265 34.4411 14.7254 34.3431 15.266C34.245 15.8067 34.3112 16.3643 34.5331 16.867V17.0003C34.7444 17.4933 35.0952 17.9137 35.5423 18.2098C35.9895 18.5059 36.5134 18.6649 37.0498 18.667H37.3331C38.2171 18.667 39.065 19.0182 39.6901 19.6433C40.3152 20.2684 40.6664 21.1163 40.6664 22.0003C40.6664 22.8844 40.3152 23.7322 39.6901 24.3573C39.065 24.9825 38.2171 25.3337 37.3331 25.3337H37.1831C36.6468 25.3358 36.1228 25.4947 35.6756 25.7908C35.2285 26.087 34.8777 26.5074 34.6664 27.0003Z" fill="#F7931A" fill-opacity="0.1"/>
<path d="M22.3331 27.5003C25.3707 27.5003 27.8331 25.0379 27.8331 22.0003C27.8331 18.9628 25.3707 16.5003 22.3331 16.5003C19.2955 16.5003 16.8331 18.9628 16.8331 22.0003C16.8331 25.0379 19.2955 27.5003 22.3331 27.5003Z" stroke="#F7931A" stroke-width="3" stroke-linecap="round" stroke-linejoin="round"/>
<path d="M34.6664 27.0003C34.4446 27.503 34.3784 28.0606 34.4764 28.6013C34.5744 29.142 34.8322 29.6409 35.2164 30.0337L35.3164 30.1337C35.6263 30.4432 35.8722 30.8109 36.04 31.2155C36.2077 31.6202 36.294 32.0539 36.294 32.492C36.294 32.93 36.2077 33.3638 36.04 33.7685C35.8722 34.1731 35.6263 34.5407 35.3164 34.8503C35.0068 35.1602 34.6392 35.4061 34.2346 35.5739C33.8299 35.7416 33.3961 35.8279 32.9581 35.8279C32.52 35.8279 32.0863 35.7416 31.6816 35.5739C31.277 35.4061 30.9093 35.1602 30.5998 34.8503L30.4998 34.7503C30.107 34.3661 29.6081 34.1083 29.0674 34.0103C28.5267 33.9123 27.9691 33.9785 27.4664 34.2003C26.9735 34.4116 26.5531 34.7624 26.2569 35.2096C25.9608 35.6567 25.8019 36.1807 25.7998 36.717V37.0003C25.7998 37.8844 25.4486 38.7322 24.8234 39.3573C24.1983 39.9825 23.3505 40.3337 22.4664 40.3337C21.5824 40.3337 20.7345 39.9825 20.1094 39.3573C19.4843 38.7322 19.1331 37.8844 19.1331 37.0003V36.8503C19.1202 36.2987 18.9416 35.7636 18.6206 35.3148C18.2996 34.866 17.851 34.5241 17.3331 34.3337C16.8304 34.1118 16.2728 34.0456 15.7321 34.1437C15.1914 34.2417 14.6926 34.4994 14.2998 34.8837L14.1998 34.9837C13.8902 35.2936 13.5226 35.5394 13.1179 35.7072C12.7132 35.8749 12.2795 35.9613 11.8414 35.9613C11.4034 35.9613 10.9696 35.8749 10.565 35.7072C10.1603 35.5394 9.79267 35.2936 9.48309 34.9837C9.17317 34.6741 8.9273 34.3065 8.75956 33.9018C8.59181 33.4971 8.50547 33.0634 8.50547 32.6253C8.50547 32.1873 8.59181 31.7535 8.75956 31.3489C8.9273 30.9442 9.17317 30.5766 9.48309 30.267L9.58309 30.167C9.96732 29.7742 10.2251 29.2753 10.3231 28.7346C10.4211 28.194 10.3549 27.6364 10.1331 27.1337C9.92182 26.6407 9.57101 26.2203 9.12386 25.9242C8.67671 25.628 8.15273 25.4691 7.61642 25.467H7.33309C6.44903 25.467 5.60119 25.1158 4.97607 24.4907C4.35095 23.8656 3.99976 23.0177 3.99976 22.1337C3.99976 21.2496 4.35095 20.4018 4.97607 19.7766C5.60119 19.1515 6.44903 18.8003 7.33309 18.8003H7.48309C8.03475 18.7874 8.56976 18.6089 9.01859 18.2878C9.46741 17.9668 9.80928 17.5182 9.99976 17.0003C10.2216 16.4976 10.2878 15.94 10.1898 15.3993C10.0917 14.8587 9.83398 14.3598 9.44976 13.967L9.34976 13.867C9.03983 13.5574 8.79397 13.1898 8.62622 12.7851C8.45848 12.3805 8.37213 11.9467 8.37213 11.5087C8.37213 11.0706 8.45848 10.6369 8.62622 10.2322C8.79397 9.82753 9.03983 9.4599 9.34976 9.15033C9.65933 8.8404 10.027 8.59454 10.4316 8.42679C10.8363 8.25905 11.27 8.1727 11.7081 8.1727C12.1461 8.1727 12.5799 8.25905 12.9846 8.42679C13.3892 8.59454 13.7568 8.8404 14.0664 9.15033L14.1664 9.25033C14.5592 9.63455 15.0581 9.8923 15.5988 9.99033C16.1394 10.0884 16.6971 10.0222 17.1998 9.80032H17.3331C17.826 9.58905 18.2465 9.23825 18.5426 8.7911C18.8387 8.34395 18.9976 7.81997 18.9998 7.28366V7.00033C18.9998 6.11627 19.3509 5.26842 19.9761 4.6433C20.6012 4.01818 21.449 3.66699 22.3331 3.66699C23.2171 3.66699 24.065 4.01818 24.6901 4.6433C25.3152 5.26842 25.6664 6.11627 25.6664 7.00033V7.15033C25.6686 7.68664 25.8275 8.21062 26.1236 8.65777C26.4197 9.10492 26.8401 9.45572 27.3331 9.66699C27.8358 9.88885 28.3934 9.95503 28.9341 9.857C29.4747 9.75897 29.9736 9.50122 30.3664 9.11699L30.4664 9.01699C30.776 8.70707 31.1436 8.46121 31.5483 8.29346C31.9529 8.12571 32.3867 8.03937 32.8248 8.03937C33.2628 8.03937 33.6966 8.12571 34.1012 8.29346C34.5059 8.46121 34.8735 8.70707 35.1831 9.01699C35.493 9.32657 35.7389 9.6942 35.9066 10.0989C36.0744 10.5035 36.1607 10.9373 36.1607 11.3753C36.1607 11.8134 36.0744 12.2471 35.9066 12.6518C35.7389 13.0565 35.493 13.4241 35.1831 13.7337L35.0831 13.8337C34.6989 14.2265 34.4411 14.7254 34.3431 15.266C34.245 15.8067 34.3112 16.3643 34.5331 16.867V17.0003C34.7444 17.4933 35.0952 17.9137 35.5423 18.2098C35.9895 18.5059 36.5134 18.6649 37.0498 18.667H37.3331C38.2171 18.667 39.065 19.0182 39.6901 19.6433C40.3152 20.2684 40.6664 21.1163 40.6664 22.0003C40.6664 22.8844 40.3152 23.7322 39.6901 24.3573C39.065 24.9825 38.2171 25.3337 37.3331 25.3337H37.1831C36.6468 25.3358 36.1228 25.4947 35.6756 25.7908C35.2285 26.087 34.8777 26.5074 34.6664 27.0003Z" stroke="#F7931A" stroke-width="3" stroke-linecap="round" stroke-linejoin="round"/>
</svg>
